<?xml version="1.0" encoding="UTF-8" standalone="no"?>
<!DOCTYPE svg PUBLIC "-//W3C//DTD SVG 1.1//EN" "http://www.w3.org/Graphics/SVG/1.1/DTD/svg11.dtd">
<svg version="1.1" xmlns="http://www.w3.org/2000/svg" xmlns:xlink="http://www.w3.org/1999/xlink" preserveAspectRatio="xMidYMid meet" viewBox="0 0 1000 750" width="1000" height="750"><defs><path d="M572.9 497.55C559.2 488.31 449.55 414.33 435.84 405.09C439.9 385.27 439.9 364.73 435.84 344.91C449.55 335.67 559.2 261.69 572.9 252.44C594.84 271.32 622.63 282.61 652.86 282.61C723.77 282.61 781.25 220.56 781.25 144.02C781.25 67.49 723.77 5.44 652.86 5.44C581.96 5.44 524.48 67.49 524.48 144.02C524.48 154.36 525.53 164.42 527.52 174.11C513.82 183.36 404.17 257.33 390.46 266.58C368.52 247.7 340.74 236.41 310.5 236.41C239.6 236.41 182.11 298.46 182.11 375C182.11 451.54 239.6 513.59 310.5 513.59C340.74 513.59 368.52 502.3 390.46 483.42C404.17 492.67 513.82 566.64 527.52 575.89C525.5 585.77 524.47 595.86 524.48 605.98C524.48 682.51 581.96 744.56 652.86 744.56C723.77 744.56 781.25 682.51 781.25 605.98C781.25 529.44 723.77 467.39 652.86 467.39C622.63 467.39 594.84 478.68 572.9 497.55Z" id="bF6zfWxTu"></path></defs><g><g><g><use xlink:href="#bF6zfWxTu" opacity="1" fill="#ffffff" fill-opacity="1"></use><g><use xlink:href="#bF6zfWxTu" opacity="1" fill-opacity="0" stroke="#000000" stroke-width="1" stroke-opacity="0"></use></g></g></g></g></svg>