<?xml version="1.0" standalone="no"?>
<!DOCTYPE svg PUBLIC "-//W3C//DTD SVG 1.1//EN" "http://www.w3.org/Graphics/SVG/1.1/DTD/svg11.dtd" >
<svg>
<metadata>
Created by FontForge 20090914 at Thu Apr  8 13:36:12 2021
 By www-data
Copyright &#194;&#169; 2013 Schick Toikka. All rights reserved. Noe Display is a trademark of Schick Toikka. Unauthorised copying or modification of any of its data is illegal.
</metadata>
<defs>
<font id="NoeDisplay-Medium" horiz-adv-x="295" >
  <font-face 
    font-family="Noe Display Medium"
    font-weight="500"
    font-stretch="normal"
    units-per-em="1000"
    panose-1="2 10 6 0 9 4 0 0 0 2"
    ascent="750"
    descent="-250"
    x-height="490"
    cap-height="703"
    bbox="-226 -252 1199 979"
    underline-thickness="18"
    underline-position="-136"
    unicode-range="U+0020-U+FB02"
  />
<missing-glyph horiz-adv-x="600" 
d="M544 -250h-488v1000h488v-1000zM291 250l-216 467v-933zM310 250l215 -462v925zM87 732l214 -462l214 462h-428zM301 229l-215 -461h428z" />
    <glyph glyph-name="fi" unicode="fi" horiz-adv-x="613" 
d="M534 490v-423.002c0 -9.33301 3.33301 -16.666 10 -21.999l59 -43v-2h-265v2l59 43c7.33301 5.33301 11 12.666 11 21.999v389c0 6.66699 -0.833008 11 -2.5 13s-5.16699 3 -10.5 3h-181v-402c0 -9.33301 4.33301 -16.666 13 -21.999l75 -46v-2h-283v2l59 43
c6.66699 4.66699 10 12 10 22v405h-62v18h62c2.66699 72.667 24.667 128 66 166s98 57 170 57c57.333 0 115.333 -9.66699 174 -29l-57 -135h-2l-61 132c-4 8.66699 -10.667 13.334 -20 14.001c-6 0.666992 -15.667 1 -29 1c-76.667 0 -115 -55 -115 -165v-41h320z" />
    <glyph glyph-name="fl" unicode="fl" horiz-adv-x="614" 
d="M536 67c0 -9.33301 3.66602 -16.668 10.999 -22.001l59 -43v-2h-265v2l59 43c6.66699 4.66699 10 12 10 22v583c0 8.66699 -3.66699 15.334 -11 20.001c-25.333 16 -52.666 24 -81.999 24c-68.667 0 -103 -51 -103 -153v-51h135v-18h-135v-400c0 -6 1 -10.333 3 -13
s6 -5.66699 12 -9l83 -48v-2h-293v2l59 43c6.66699 4.66699 10 12 10 22v405h-62v18h62c1.33301 74.667 21.5 130.5 60.5 167.5s91.167 55.5 156.5 55.5c37.333 0 73.333 -9.33301 108 -28l123 41v-659z" />
    <glyph glyph-name="f_b" unicode="fb" horiz-adv-x="882" 
d="M395 -8v655.999c0 10 -3.66699 17.333 -11 22c-25.333 16 -50.333 24 -75 24c-32 0 -55.833 -12.167 -71.5 -36.5s-23.5 -63.166 -23.5 -116.499v-51h135v-18h-135v-400c0 -6 0.833008 -10.167 2.5 -12.5s5.83398 -5.5 12.501 -9.5l83 -48v-2h-293v2l59 43
c6.66699 4.66699 10 12 10 22v405h-62v18h62c1.33301 74.667 20.833 130.5 58.5 167.5s88.167 55.5 151.5 55.5c33.333 0 66.666 -9.33301 99.999 -28l123 41v-336c34 72 84.667 108 152 108c56 0 100 -22.167 132 -66.5s48 -103.5 48 -177.5
c0 -76.667 -18.833 -139.5 -56.5 -188.5s-88.5 -73.5 -152.5 -73.5c-57.333 0 -99 19.667 -125 59l-122 -59h-2zM614 434.999c-35.333 0 -66.332 -18.667 -92.999 -56v-317c18 -20 43 -30 75 -30c82 0 123 70.667 123 212c0 63.333 -9.33301 111 -28 143
s-44.334 48 -77.001 48z" />
    <glyph glyph-name="f_h" unicode="fh" horiz-adv-x="904" 
d="M834 294c0 -44.667 -0.668945 -120.334 -2.00195 -227.001c0 -8.66699 3.66699 -16 11 -22l59 -43v-2h-265v2l56 43c8 5.33301 12 12.333 12 21c0 0.666992 0.5 29.834 1.5 87.501s1.5 95.167 1.5 112.5c0 55.333 -6.33301 96.333 -19 123s-33.667 40 -63 40
c-37.333 0 -67.666 -19.667 -90.999 -59v-303c0 -9.33301 3.66699 -16.666 11 -21.999l59 -43v-2h-265v2l59 43c6.66699 5.33301 10 12.666 10 21.999v581c0 10 -3.66699 17.333 -11 22c-25.333 16 -52 24 -80 24c-69.333 0 -104 -51 -104 -153v-51h135v-18h-135v-400
c0 -6 0.833008 -10.167 2.5 -12.5s5.83398 -5.5 12.501 -9.5l83 -48v-2h-293v2l59 43c6.66699 4.66699 10 12 10 22v405h-62v18h62c1.33301 74.667 21.5 130.5 60.5 167.5s90.833 55.5 155.5 55.5c38.667 0 75 -9.33301 109 -28l122 41v-347
c25.333 79.333 76.333 119 153 119c97.333 0 146 -68 146 -204z" />
    <glyph glyph-name="f_j" unicode="fj" horiz-adv-x="590" 
d="M388 472l-174.001 0.00292969v-402c0 -9.33301 4.33301 -16.666 13 -21.999l75 -46v-2h-283v2l59 43c6.66699 4.66699 10 12 10 22v405h-62v18h62c2.66699 72.667 24.167 128 64.5 166s96.5 57 168.5 57c56 0 114 -9.66699 174 -29l-57 -135h-2l-62 132
c-3.33301 7.33301 -9 11.666 -17 12.999c-13.333 1.33301 -24 2 -32 2c-74 0 -111 -55 -111 -165v-41h313v-462c0 -74.667 -18.167 -134.334 -54.5 -179.001s-89.166 -67.334 -158.499 -68.001c-8.66699 0 -19 0.666992 -31 2v2c39.333 5.33301 68.833 24.166 88.5 56.499
s29.5 81.5 29.5 147.5v467c0 6.66699 -0.833008 11 -2.5 13s-5.16699 3 -10.5 3z" />
    <glyph glyph-name="f_k" unicode="fk" horiz-adv-x="867" 
d="M805 70c6 -12 13.666 -21.668 22.999 -29.001l50 -39v-2h-181l-121 242c-4.66699 9.33301 -12.334 14 -23.001 14c-6 0 -12 -2 -18 -6v-183c0 -9.33301 3.66699 -16.666 11 -21.999l59 -43v-2h-265v2l59 43c6.66699 5.33301 10 12.666 10 21.999v583
c0 8.66699 -3.66699 15.334 -11 20.001c-23.333 16 -50 24 -80 24c-69.333 0 -104 -51 -104 -153v-51h135v-18h-135v-400c0 -6 0.833008 -10.167 2.5 -12.5s5.83398 -5.5 12.501 -9.5l83 -48v-2h-293v2l59 43c6.66699 4.66699 10 12 10 22v405h-62v18h62
c1.33301 75.333 21.5 131.333 60.5 168s91.167 55 156.5 55c38.667 0 74.334 -9.33301 107.001 -28l123 41v-467l179 136c6 5.33301 6.66699 11 2 17l-72 76v2h220v-2l-189 -143c-7.33301 -5.33301 -9.33301 -11 -6 -17z" />
    <glyph glyph-name=".notdef" horiz-adv-x="600" 
d="M544 -250h-488v1000h488v-1000zM291 250l-216 467v-933zM310 250l215 -462v925zM87 732l214 -462l214 462h-428zM301 229l-215 -461h428z" />
    <glyph glyph-name="space" unicode=" " horiz-adv-x="199" 
 />
    <glyph glyph-name="exclam" unicode="!" horiz-adv-x="272" 
d="M225 703l-90 -487h-2l-86 487h178zM65 60c0 20 6.83301 36.833 20.5 50.5s30.167 20.5 49.5 20.5c20 0 36.833 -6.66699 50.5 -20s20.5 -30.333 20.5 -51c0 -19.333 -6.83301 -35.5 -20.5 -48.5s-30.5 -19.5 -50.5 -19.5c-19.333 0 -35.833 6.5 -49.5 19.5
s-20.5 29.167 -20.5 48.5z" />
    <glyph glyph-name="quotedbl" unicode="&#x22;" horiz-adv-x="355" 
d="M143 623l-48 -154h-2l-47 154c-3.33301 11.333 -5 22.333 -5 33c0 16.667 4.5 30.334 13.5 41.001s22.167 16 39.5 16c18 0 31.5 -5.33301 40.5 -16s13.5 -24.334 13.5 -41.001c0 -10.667 -1.66699 -21.667 -5 -33zM308 623l-47 -154h-2l-47 154
c-3.33301 11.333 -5 22.333 -5 33c0 16.667 4.5 30.334 13.5 41.001s22.167 16 39.5 16c18 0 31.5 -5.33301 40.5 -16s13.5 -24.334 13.5 -41.001c0 -8.66699 -2 -19.667 -6 -33z" />
    <glyph glyph-name="numbersign" unicode="#" horiz-adv-x="588" 
d="M491 216h-137l-55 -190l-17 5l53 185h-154l-55 -190l-17 5l53 185h-127v18h132l58 203h-127v18h132l57 198l19 -5l-56 -193h153l57 198l19 -5l-56 -193h130v-18h-135l-59 -203h132v-18zM245 437l-59 -203h154l58 203h-153z" />
    <glyph glyph-name="dollar" unicode="$" horiz-adv-x="544" 
d="M254 -10c-68 0 -132.665 9.00293 -193.998 27.0029v223h2l109 -211c6 -10.667 13.333 -16.667 22 -18c22.667 -2.66699 39.667 -4 51 -4h20v269c-10.667 6 -31.334 16 -62.001 30c-106 49.333 -159 118.666 -159 207.999c0 56.667 20.167 103.167 60.5 139.5
s93.833 56.166 160.5 59.499v80h18v-80c53.333 0 112.666 -7.66699 177.999 -23v-215h-2l-113 202c-6 11.333 -14.333 17.333 -25 18c-8 0.666992 -18.667 1 -32 1h-6v-265l57 -27c57.333 -27.333 100.333 -55.333 129 -84s43 -66.667 43 -114
c0 -59.333 -20.667 -108.833 -62 -148.5s-97 -61.834 -167 -66.501v-95h-18v94h-10zM395.002 134.003c0 30 -9 54.667 -27 74s-46.667 39 -86 59v-258c34 6 61.333 19.5 82 40.5s31 49.167 31 84.5zM153.002 570.003c0 -30.667 9.5 -56 28.5 -76s46.5 -38.333 82.5 -55v255
c-34 -4 -61 -16.833 -81 -38.5s-30 -50.167 -30 -85.5z" />
    <glyph glyph-name="percent" unicode="%" horiz-adv-x="659" 
d="M192 699c-20 0 -33.167 -10.167 -39.5 -30.5s-9.5 -55.166 -9.5 -104.499c0 -48.667 3.16699 -83.167 9.5 -103.5s19.5 -30.5 39.5 -30.5s33.167 10 39.5 30s9.5 54.667 9.5 104s-3.16699 84.166 -9.5 104.499s-19.5 30.5 -39.5 30.5zM192 713
c44 0 77.167 -13.333 99.5 -40s33.5 -63 33.5 -109c0 -45.333 -11.167 -81.333 -33.5 -108s-55.5 -40 -99.5 -40c-43.333 0 -76.166 13.333 -98.499 40s-33.5 62.667 -33.5 108s11.167 81.5 33.5 108.5s55.166 40.5 98.499 40.5zM463 274c-20 0 -33.167 -10.167 -39.5 -30.5
s-9.5 -55.166 -9.5 -104.499c0 -48.667 3.16699 -83.167 9.5 -103.5s19.5 -30.5 39.5 -30.5s33.167 10 39.5 30s9.5 54.667 9.5 104s-3.16699 84.166 -9.5 104.499s-19.5 30.5 -39.5 30.5zM463 288c44 0 77.167 -13.333 99.5 -40s33.5 -63 33.5 -109
c0 -45.333 -11.167 -81.333 -33.5 -108s-55.5 -40 -99.5 -40c-43.333 0 -76.166 13.333 -98.499 40s-33.5 62.667 -33.5 108s11.167 81.5 33.5 108.5s55.166 40.5 98.499 40.5zM588 701l-503 -711l-16 13l503 710z" />
    <glyph glyph-name="ampersand" unicode="&#x26;" horiz-adv-x="757" 
d="M659 94c22 0 42.1699 8.16113 60.5029 24.4941s29.5 39.833 33.5 70.5h2c1.33301 -8 2 -18.333 2 -31c0 -51.333 -14.167 -92.166 -42.5 -122.499s-64.5 -45.5 -108.5 -45.5c-30.667 0 -59.334 7.5 -86.001 22.5s-55.334 38.5 -86.001 70.5
c-63.333 -62 -131 -93 -203 -93c-60.667 0 -108.667 15.333 -144 46s-53 70.334 -53 119.001c0 81.333 56.667 146 170 194c-30 34.667 -52.167 66.5 -66.5 95.5s-21.5 60.167 -21.5 93.5c0 52 17.667 94.167 53 126.5s82.666 48.5 141.999 48.5
c52.667 0 95.167 -11.667 127.5 -35s48.5 -56.666 48.5 -99.999c0 -41.333 -15.167 -74.666 -45.5 -99.999s-73.166 -48 -128.499 -68l171 -196c8 -10 16 -19 24 -27c30.667 40 53.667 77.333 69 112c4 8.66699 0.666992 20 -10 34l-80 89v2h238v-2l-104 -96
c-10 -9.33301 -19.333 -21.666 -28 -36.999c-20.667 -37.333 -45 -75.333 -73 -114c30.667 -31.333 56.167 -52.666 76.5 -63.999s41.166 -17 62.499 -17zM377.003 144.994l-167.999 197c-43.333 -38.667 -65 -84.667 -65 -138c0 -47.333 15.167 -86 45.5 -116
s65.166 -45 104.499 -45c29.333 0 53.333 4 72 12s37.667 21 57 39c-12.667 12.667 -28 29.667 -46 51zM221.004 590.994c0 -29.333 6.66797 -57.333 20.001 -84s35.333 -56.667 66 -90c55.333 44 83 97.333 83 160c0 40 -7.66699 70.167 -23 90.5s-35 30.5 -59 30.5
c-26.667 0 -47.834 -9.66699 -63.501 -29s-23.5 -45.333 -23.5 -78z" />
    <glyph glyph-name="quotesingle" unicode="'" horiz-adv-x="189" 
d="M148 656c0 -10.667 -1.66699 -21.667 -5 -33l-48 -154h-2l-47 154c-3.33301 11.333 -5 22.333 -5 33c0 16.667 4.5 30.334 13.5 41.001s22.167 16 39.5 16c18 0 31.5 -5.33301 40.5 -16s13.5 -24.334 13.5 -41.001z" />
    <glyph glyph-name="parenleft" unicode="(" horiz-adv-x="328" 
d="M54 292c0 166.667 48.667 292.667 146 378c32.667 30 71.334 52.667 116.001 68l2 -2c-33.333 -28 -60.333 -61.333 -81 -100c-50.667 -92 -76 -206.667 -76 -344s25.333 -252 76 -344c20.667 -38.667 47.667 -72 81 -100l-2 -2c-44.667 15.333 -83.334 38 -116.001 68
c-97.333 85.333 -146 211.333 -146 378z" />
    <glyph glyph-name="parenright" unicode=")" horiz-adv-x="328" 
d="M275 292c0 -166 -49 -292 -147 -378c-32.667 -30 -71.334 -52.667 -116.001 -68l-2 2c32.667 27.333 60 60.666 82 99.999c50 92.667 75 207.334 75 344.001s-25 251.334 -75 344.001c-22 39.333 -49.333 72.666 -82 99.999l2 2c44.667 -15.333 83.334 -38 116.001 -68
c98 -86 147 -212 147 -378z" />
    <glyph glyph-name="asterisk" unicode="*" horiz-adv-x="381" 
d="M353 545l-160 4l129 -92l-88 -64l-45 154l-47 -153l-88 64l131 91l-157 -4l34 104l125 -96l-51 150h109l-54 -150l128 94z" />
    <glyph glyph-name="plus" unicode="+" horiz-adv-x="540" 
d="M50 314v18h211v211h19v-211h210v-18h-210v-211h-19v211h-211z" />
    <glyph glyph-name="comma" unicode="," horiz-adv-x="235" 
d="M187 50c0 -40 -13.8301 -78.001 -41.4971 -114.001s-61.834 -59 -102.501 -69l-1 2c24 12.667 42.5 30.834 55.5 54.501s19.5 46.167 19.5 67.5c0 8 -4 12.333 -12 13c-16 2 -29.333 9.16699 -40 21.5s-16 27.166 -16 44.499c0 18.667 6.16699 34.334 18.5 47.001
s28.166 19 47.499 19c21.333 0 38.666 -7.33301 51.999 -22s20 -36 20 -64z" />
    <glyph glyph-name="hyphen" unicode="-" horiz-adv-x="351" 
d="M46 235v19h260v-19h-260z" />
    <glyph glyph-name="period" unicode="." horiz-adv-x="235" 
d="M47 60c0 20 6.83301 36.833 20.5 50.5s30.167 20.5 49.5 20.5c20 0 36.833 -6.66699 50.5 -20s20.5 -30.333 20.5 -51c0 -19.333 -6.83301 -35.5 -20.5 -48.5s-30.5 -19.5 -50.5 -19.5c-19.333 0 -35.833 6.5 -49.5 19.5s-20.5 29.167 -20.5 48.5z" />
    <glyph glyph-name="slash" unicode="/" horiz-adv-x="380" 
d="M348 732l-297 -885l-19 6l298 885z" />
    <glyph glyph-name="zero" unicode="0" horiz-adv-x="651" 
d="M325 9c28.667 0 52.834 9.66602 72.501 28.999s35.667 55 48 107s18.5 120.667 18.5 206c0 86 -6.16699 155.167 -18.5 207.5s-28.333 88 -48 107s-43.834 28.5 -72.501 28.5c-44 0 -78 -25.667 -102 -77s-36 -139.666 -36 -264.999s12 -213.833 36 -265.5
s58 -77.5 102 -77.5zM325 712.999c90 0 159.5 -30.166 208.5 -90.499s73.5 -150.833 73.5 -271.5c0 -119.333 -24.5 -209.333 -73.5 -270s-118.5 -91 -208.5 -91c-89.333 0 -158.333 30.5 -207 91.5s-73 151.5 -73 271.5c0 119.333 24.333 209.166 73 269.499
s117.667 90.5 207 90.5z" />
    <glyph glyph-name="one" unicode="1" horiz-adv-x="399" 
d="M276 717v-633c0 -8.66699 4.33301 -16 13 -22l91 -60v-2h-334v2l92 60c8 6 12 13.333 12 22v496c0 11.333 -4 18.333 -12 21l-104 30v2z" />
    <glyph glyph-name="two" unicode="2" horiz-adv-x="544" 
d="M471 0l-451.998 -0.000976562v2l118 134c31.333 35.333 63.333 74.333 96 117c41.333 54 70.5 101.167 87.5 141.5s25.5 83.833 25.5 130.5c0 113.333 -38.333 170 -115 170c-14.667 0 -25.334 -0.666992 -32.001 -2c-10 -2 -17 -8 -21 -18l-74 -176h-2l-65 163
c69.333 34 142.666 51 219.999 51c72.667 0 129.5 -17.333 170.5 -52s61.5 -81.667 61.5 -141c0 -34 -7.16699 -66.833 -21.5 -98.5s-37.5 -64 -69.5 -97s-63.333 -62 -94 -87s-72.667 -57.167 -126 -96.5l-46 -34h249c14.667 0 24 0.833008 28 2.5
s9.66699 6.83398 17 15.501l69 83h2z" />
    <glyph glyph-name="three" unicode="3" horiz-adv-x="552" 
d="M513 198c0 -62.667 -25.001 -112.999 -75.001 -150.999s-120 -57 -210 -57c-71.333 0 -138.333 11.333 -201 34l71 182h2l60 -178c3.33301 -10 9 -15.667 17 -17c17.333 -2.66699 31.333 -4 42 -4c47.333 0 84.5 17.167 111.5 51.5s40.5 77.166 40.5 128.499
s-14.333 92.166 -43 122.499s-72.667 46.833 -132 49.5v2c100 21.333 150 83.333 150 186c0 44.667 -10.333 80.5 -31 107.5s-49.334 40.5 -86.001 40.5c-13.333 0 -24 -0.666992 -32 -2s-14.333 -7.33301 -19 -18l-74 -175h-2l-64 163c66.667 33.333 139.334 50 218.001 50
c68 0 123 -15 165 -45s63 -71 63 -123c0 -87.333 -53.333 -144.333 -160 -171v-2c56.667 -5.33301 102.334 -23.666 137.001 -54.999s52 -71 52 -119z" />
    <glyph glyph-name="four" unicode="4" horiz-adv-x="582" 
d="M414 84c0 -9.33301 4 -17.001 12 -23.001l76 -59v-2h-306v2l80 59c8 6.66699 12 14.334 12 23.001v95h-281v2l302 522h105v-505h29c10.667 0 19 4.66699 25 14l98 168h2l-16 -201h-138v-95zM40 197.999h248v427z" />
    <glyph glyph-name="five" unicode="5" horiz-adv-x="559" 
d="M524 216c0 -72 -25.335 -127.667 -76.002 -167s-119.667 -59 -207 -59c-75.333 0 -142.333 11.333 -201 34l69 181h2l61 -177c2.66699 -6.66699 5.33398 -11 8.00098 -13s8.66699 -3.66699 18 -5c18 -2 30 -3 36 -3c46 0 82.167 17.667 108.5 53s39.5 82 39.5 140
c0 53.333 -14.333 95.5 -43 126.5s-69.667 46.5 -123 46.5c-40.667 0 -82 -12.667 -124 -38l-2 1l12 368l185 -6c18 -0.666992 41.333 -1 70 -1c48 0 81 8.66699 99 26l29 28h2l-12 -86c-4.66699 -32 -15.5 -53.5 -32.5 -64.5s-46.167 -16.5 -87.5 -16.5
c-19.333 0 -44.333 0.666992 -75 2l-164 6l-6 -229c60.667 41.333 125.334 62 194.001 62c67.333 0 120.833 -19.5 160.5 -58.5s59.5 -89.167 59.5 -150.5z" />
    <glyph glyph-name="six" unicode="6" horiz-adv-x="602" 
d="M564 229c0 -71.333 -23.167 -129 -69.5 -173s-106.166 -66 -179.499 -66c-86.667 0 -153.334 31.667 -200.001 95s-70 151.666 -70 264.999c0 116.667 25.5 206.334 76.5 269.001s127.833 94 230.5 94c56.667 0 118.667 -10.667 186 -32l-63 -162h-2l-81 162
c-4 8 -11.667 12.667 -23 14c-6 0.666992 -13.667 1 -23 1c-57.333 0 -98.666 -27.667 -123.999 -83s-38 -142.666 -38 -261.999c47.333 58.667 108.666 88 183.999 88c58.667 0 106 -18.333 142 -55s54 -88.334 54 -155.001zM311 400
c-45.333 0 -87.666 -20.667 -126.999 -62c0.666992 -112.667 12.667 -196 36 -250s54.666 -81 93.999 -81c32.667 0 60.667 17.667 84 53s35 86 35 152c0 58.667 -10.167 104.667 -30.5 138s-50.833 50 -91.5 50z" />
    <glyph glyph-name="seven" unicode="7" horiz-adv-x="502" 
d="M280 0l-161.999 0.00292969c42.667 109.333 93.167 221.5 151.5 336.5s106.166 201.167 143.499 258.5h-297c-8.66699 0 -14.834 -0.833008 -18.501 -2.5s-8.5 -5.83398 -14.5 -12.501l-57 -70h-2l22 193h462v-2l-63 -87c-8.66699 -12 -15.667 -24.667 -21 -38
c-16.667 -42.667 -33.667 -96.334 -51 -161.001s-31.166 -120.834 -41.499 -168.501l-42.5 -202.5z" />
    <glyph glyph-name="eight" unicode="8" horiz-adv-x="578" 
d="M287 -10c-73.333 0 -132.667 16.501 -178 49.501s-68 73.5 -68 121.5c0 44.667 14.5 79.667 43.5 105s71.5 45.333 127.5 60l-20 11c-86 47.333 -129 109.666 -129 186.999c0 56.667 21.167 102.334 63.5 137.001s96.5 52 162.5 52c60 0 111 -15 153 -45s63 -69 63 -117
c0 -40.667 -13.833 -73.5 -41.5 -98.5s-64.5 -42.5 -110.5 -52.5l47 -25c50.667 -26.667 87.667 -54.334 111 -83.001s35 -64 35 -106c0 -54 -23.5 -100.167 -70.5 -138.5s-109.833 -57.5 -188.5 -57.5zM322.999 264.001l-103 56.999c-52 -32 -78 -84 -78 -156
c0 -44 14.833 -81.167 44.5 -111.5s66.167 -45.5 109.5 -45.5c39.333 0 72 11 98 33s39 52.333 39 91c0 28 -8.83301 51.833 -26.5 71.5s-45.5 39.834 -83.5 60.501zM168.999 583c0 -29.333 8.66602 -54.833 25.999 -76.5s45.333 -43.5 84 -65.5l65 -37
c42 32 63 79.333 63 142c0 46 -11.167 82.333 -33.5 109s-51.166 40 -86.499 40c-34 0 -62.167 -10.333 -84.5 -31s-33.5 -47.667 -33.5 -81z" />
    <glyph glyph-name="nine" unicode="9" horiz-adv-x="602" 
d="M241 266c-55.333 0 -102.833 18.834 -142.5 56.501s-59.5 89.834 -59.5 156.501c0 69.333 23.167 125.666 69.5 168.999s106.5 65 180.5 65c88 0 154.833 -31 200.5 -93s68.5 -152 68.5 -270c0 -110.667 -26 -198.334 -78 -263.001s-126 -97 -222 -97
c-66 0 -130.667 11.333 -194 34l66 171h2l74 -173c3.33301 -8 11 -12.333 23 -13c6 -1.33301 15.667 -2 29 -2c56 0 96.667 27.833 122 83.5s38 142.167 38 259.5v2c-47.333 -57.333 -106.333 -86 -177 -86zM299 303.001c40 0 79.667 20.667 119 62
c-2 220.667 -45.333 331 -130 331c-32.667 0 -60.5 -17.5 -83.5 -52.5s-34.5 -86.5 -34.5 -154.5c0 -58 10.5 -103.5 31.5 -136.5s53.5 -49.5 97.5 -49.5z" />
    <glyph glyph-name="colon" unicode=":" horiz-adv-x="235" 
d="M47 60c0 20 6.83301 36.833 20.5 50.5s30.167 20.5 49.5 20.5c20 0 36.833 -6.66699 50.5 -20s20.5 -30.333 20.5 -51c0 -19.333 -6.83301 -35.5 -20.5 -48.5s-30.5 -19.5 -50.5 -19.5c-19.333 0 -35.833 6.5 -49.5 19.5s-20.5 29.167 -20.5 48.5zM47 389
c0 20.667 6.83301 37.667 20.5 51s30.167 20 49.5 20c20 0 36.833 -6.66699 50.5 -20s20.5 -30.333 20.5 -51c0 -19.333 -6.83301 -35.5 -20.5 -48.5s-30.5 -19.5 -50.5 -19.5c-19.333 0 -35.833 6.5 -49.5 19.5s-20.5 29.167 -20.5 48.5z" />
    <glyph glyph-name="semicolon" unicode=";" horiz-adv-x="235" 
d="M43 -133l-0.99707 1.99902c24 12.667 42.5 30.834 55.5 54.501s19.5 46.167 19.5 67.5c0 8 -4 12.333 -12 13c-16 2 -29.333 9.16699 -40 21.5s-16 27.166 -16 44.499c0 18.667 6.16699 34.334 18.5 47.001s28.166 19 47.499 19c21.333 0 38.666 -7.33301 51.999 -22
s20 -36 20 -64c0 -40 -13.833 -78 -41.5 -114s-61.834 -59 -102.501 -69zM47.0029 388.999c0 20.667 6.83301 37.667 20.5 51s30.167 20 49.5 20c20 0 36.833 -6.66699 50.5 -20s20.5 -30.333 20.5 -51c0 -19.333 -6.83301 -35.5 -20.5 -48.5s-30.5 -19.5 -50.5 -19.5
c-19.333 0 -35.833 6.5 -49.5 19.5s-20.5 29.167 -20.5 48.5z" />
    <glyph glyph-name="less" unicode="&#x3c;" horiz-adv-x="540" 
d="M65 324l390 179l7 -17l-355 -163l355 -163l-7 -17l-390 179v2z" />
    <glyph glyph-name="equal" unicode="=" horiz-adv-x="540" 
d="M490 404h-440v18h440v-18zM490 225h-440v18h440v-18z" />
    <glyph glyph-name="greater" unicode="&#x3e;" horiz-adv-x="540" 
d="M475 324v-2l-390 -179l-7 17l355 163l-355 163l7 17z" />
    <glyph glyph-name="question" unicode="?" horiz-adv-x="443" 
d="M264 339c-34.667 -28 -52.001 -59.667 -52.001 -95c0 -4.66699 0.666992 -12.334 2 -23.001l-1 -1c-48 20 -72 50.667 -72 92c0 29.333 20.333 65 61 107c28 28 47 48 57 60c32 36 48 72.667 48 110c0 31.333 -9.66699 56.833 -29 76.5s-43.666 29.5 -72.999 29.5
c-10 0 -19.667 -0.666992 -29 -2c-12.667 -2 -21 -7.66699 -25 -17l-75 -177h-2l-64 163c69.333 34 142 51 218 51c63.333 0 113.833 -13.667 151.5 -41s56.5 -64.666 56.5 -111.999c0 -50.667 -25 -96.667 -75 -138zM130.999 60c0 20 6.83301 36.833 20.5 50.5
s30.167 20.5 49.5 20.5c20 0 36.833 -6.66699 50.5 -20s20.5 -30.333 20.5 -51c0 -19.333 -6.83301 -35.5 -20.5 -48.5s-30.5 -19.5 -50.5 -19.5c-19.333 0 -35.833 6.5 -49.5 19.5s-20.5 29.167 -20.5 48.5z" />
    <glyph glyph-name="at" unicode="@" horiz-adv-x="1006" 
d="M671 207c-10 -39.333 -15.001 -72.334 -15.001 -99.001c0 -61.333 23 -92 69 -92c53.333 0 102 29.833 146 89.5s66 134.167 66 223.5c0 104.667 -36.167 190.334 -108.5 257.001s-166.166 100 -281.499 100c-137.333 0 -251.333 -46.5 -342 -139.5
s-136 -211.167 -136 -354.5c0 -126 40.667 -224.5 122 -295.5s182.333 -106.5 303 -106.5c78.667 0 162 25.667 250 77l8 -16c-84.667 -52.667 -171 -79 -259 -79c-80.667 0 -153.834 15.167 -219.501 45.5s-119.334 77.833 -161.001 142.5s-62.5 142 -62.5 232
c0 148.667 47.333 271.167 142 367.5s213.667 144.5 357 144.5c120 0 217.833 -35.333 293.5 -106s113.5 -160 113.5 -268c0 -96.667 -25 -177.167 -75 -241.5s-111 -96.5 -183 -96.5c-45.333 0 -82.333 11.833 -111 35.5s-43 58.167 -43 103.5c0 18 1.66699 34 5 48h-2
c-43.333 -124.667 -98 -187 -164 -187c-31.333 0 -57.166 12.833 -77.499 38.5s-30.5 63.167 -30.5 112.5c0 89.333 25.833 170.833 77.5 244.5s110.834 110.5 177.501 110.5c46 0 76 -17 90 -51l125 52l2 -2zM533.999 174.999c7.33301 18 21.333 60.5 42 127.5
s33.667 112.833 39 137.5c-8 15.333 -23.667 23 -47 23c-38 0 -71.667 -24.667 -101 -74c-20 -32.667 -36.5 -72.5 -49.5 -119.5s-19.5 -91.5 -19.5 -133.5c0 -51.333 14 -77 42 -77c30 0 61.333 38.667 94 116z" />
    <glyph glyph-name="A" unicode="A" horiz-adv-x="637" 
d="M575 95c5.33301 -16 12.667 -29.335 22 -40.002l42 -53v-2h-270v2l60 60c6 6 7.33301 14.667 4 26l-52 158h-229l-38 -115c-2 -7.33301 -2.66699 -12.666 -2 -15.999s4 -8 10 -14l91 -99v-2h-230v2l87 95c12.667 14 21 27 25 39l154 465c3.33301 10 4.5 16.833 3.5 20.5
s-4.5 8.83398 -10.5 15.501l-57 64v2h191zM268.001 593.998l-110 -329h217z" />
    <glyph glyph-name="B" unicode="B" horiz-adv-x="641" 
d="M17 703h318.001c78 0 138.333 -14.167 181 -42.5s64 -69.833 64 -124.5c0 -45.333 -17.167 -82.666 -51.5 -111.999s-78.833 -46.666 -133.5 -51.999v-3c62.667 -2.66699 113.5 -19.167 152.5 -49.5s58.5 -70.5 58.5 -120.5c0 -62.667 -23.333 -111.5 -70 -146.5
s-109.334 -52.5 -188.001 -52.5h-331v2l77 54c7.33301 5.33301 11 12.666 11 21.999v547c0 9.33301 -3.66699 16.666 -11 21.999l-77 54v2zM300.001 356h-55.999v-315c0 -10 1.66699 -16.167 5 -18.5s11.666 -3.5 24.999 -3.5h27c104 0 156 56.667 156 170
c0 55.333 -12.5 97 -37.5 125s-64.833 42 -119.5 42zM244.002 663l-0.000976562 -288.999h55c41.333 0 74 13.5 98 40.5s36 66.5 36 118.5c0 49.333 -11.5 86.833 -34.5 112.5s-54.833 38.5 -95.5 38.5h-41c-7.33301 0 -12.166 -1.33301 -14.499 -4
s-3.5 -8.33398 -3.5 -17.001z" />
    <glyph glyph-name="C" unicode="C" horiz-adv-x="612" 
d="M31 349c0 110.667 29.1709 199 87.5039 265s139.833 99 244.5 99c68.667 0 134.667 -7 198 -21v-226h-2l-124 210c-4.66699 7.33301 -8.83398 12 -12.501 14s-10.167 3.66699 -19.5 5c-6.66699 0.666992 -16.334 1 -29.001 1c-122.667 0 -184 -115 -184 -345
c0 -229.333 62.667 -344 188 -344c12 0 20.333 0.333008 25 1c14 1.33301 24.333 7 31 17l125 217h2v-235c-56.667 -11.333 -119.334 -17 -188.001 -17c-114.667 0 -200.334 32 -257.001 96s-85 151.667 -85 263z" />
    <glyph glyph-name="D" unicode="D" horiz-adv-x="694" 
d="M17 0v2.00195l77 54c7.33301 5.33301 11 12.666 11 21.999v547c0 9.33301 -3.66699 16.666 -11 21.999l-77 54v2h310c110 0 193.667 -30 251 -90s86 -143 86 -249c0 -113.333 -30 -202.333 -90 -267s-145.333 -97 -256 -97h-301zM268 19.002l20.999 -0.000976562
c72 0 126.167 26.833 162.5 80.5s54.5 138.834 54.5 255.501c0 219.333 -67.333 329 -202 329h-44c-6 0 -10.167 -1.16699 -12.5 -3.5s-3.5 -7.5 -3.5 -15.5v-624c0 -10 1.33301 -16.167 4 -18.5s9.33398 -3.5 20.001 -3.5z" />
    <glyph glyph-name="E" unicode="E" horiz-adv-x="599" 
d="M549 0l-532 0.00292969v2l77 54c7.33301 5.33301 11 12.666 11 21.999v547c0 9.33301 -3.66699 16.666 -11 21.999l-77 54v2h523v-228h-2l-105 192c-6 11.333 -15.333 17 -28 17h-145c-6.66699 0 -11 -1.33301 -13 -4s-3 -8.33398 -3 -17.001v-298h98
c10 0.666992 19 6.33398 27 17.001l76 96h2v-244h-2l-76 97c-8.66699 10.667 -18 16 -28 16h-97v-307c0 -8.66699 1 -14.334 3 -17.001s6.33301 -4 13 -4h150c16 0 26.667 4.33301 32 13l105 196h2v-228z" />
    <glyph glyph-name="F" unicode="F" horiz-adv-x="567" 
d="M361 0l-344 0.00195312v2l77 54c7.33301 5.33301 11 12.666 11 21.999v547c0 9.33301 -3.66699 16.666 -11 21.999l-77 54v2h523v-228h-2l-105 192c-6 11.333 -15.333 17 -28 17h-144c-6.66699 0 -11.167 -1.33301 -13.5 -4s-3.5 -8.33398 -3.5 -17.001v-298h98
c10 0.666992 19 6.33398 27 17.001l76 96h2v-244h-2l-76 97c-8.66699 10.667 -18 16 -28 16h-97v-263c0 -8.66699 4 -15.667 12 -21l105 -61v-2z" />
    <glyph glyph-name="G" unicode="G" horiz-adv-x="666" 
d="M342 -10c-100.667 0 -177.669 32.1699 -231.002 96.5029s-80 152.166 -80 263.499c0 109.333 29.5 197.166 88.5 263.499s140.5 99.5 244.5 99.5c74.667 0 144.334 -7.33301 209.001 -22v-227h-2l-125 211c-4.66699 8 -8.5 13.167 -11.5 15.5s-8.83301 3.83301 -17.5 4.5
c-9.33301 0.666992 -21 1 -35 1c-127.333 0 -191 -113.333 -191 -340c0 -118.667 13.833 -206.167 41.5 -262.5s70.834 -84.5 129.501 -84.5c22 0 44 4 66 12c8 3.33301 12 9.66602 12 18.999v188c0 10.667 -3.33301 19 -10 25l-68 56v2h296v-2l-68 -55
c-7.33301 -6 -11 -14.667 -11 -26v-238l-121 23c-40 -15.333 -78.667 -23 -116 -23z" />
    <glyph glyph-name="H" unicode="H" horiz-adv-x="757" 
d="M652 625v-546.999c0 -9.33301 4 -16.666 12 -21.999l77 -54v-2h-316v2l77 54c7.33301 6 11 13.333 11 22v273h-269v-273c0 -9.33301 4 -16.666 12 -21.999l77 -54v-2h-316v2l77 54c7.33301 5.33301 11 12.666 11 21.999v547c0 9.33301 -3.66699 16.666 -11 21.999l-77 54
v2h316v-2l-77 -54c-8 -6 -12 -13.333 -12 -22v-255h269v255c0 9.33301 -3.66699 16.666 -11 21.999l-77 54v2h316v-2l-77 -54c-8 -6 -12 -13.333 -12 -22z" />
    <glyph glyph-name="I" unicode="I" horiz-adv-x="350" 
d="M244 625v-546.999c0 -9.33301 4 -16.666 12 -21.999l77 -54v-2h-316v2l77 54c7.33301 5.33301 11 12.666 11 21.999v547c0 9.33301 -3.66699 16.666 -11 21.999l-77 54v2h316v-2l-77 -54c-8 -6 -12 -13.333 -12 -22z" />
    <glyph glyph-name="J" unicode="J" horiz-adv-x="320" 
d="M91 40v585.001c0 9.33301 -4 16.666 -12 21.999l-77 54v2h316v-2l-77 -54c-8 -6 -12 -13.333 -12 -22v-557c0 -82.667 -23.333 -148 -70 -196s-111 -75.667 -193 -83l-1 2c84 42 126 125 126 249z" />
    <glyph glyph-name="K" unicode="K" horiz-adv-x="675" 
d="M244 625v-546.999c0 -9.33301 4 -16.666 12 -21.999l77 -54v-2h-316v2l77 54c7.33301 5.33301 11 12.666 11 21.999v547c0 9.33301 -3.66699 16.666 -11 21.999l-77 54v2h316v-2l-77 -54c-8 -6 -12 -13.333 -12 -22zM507 587.001l-147 -153.002l233 -342
c10 -14.667 20 -26 30 -34l65 -56v-2h-198l-237 348l236 248c5.33301 6.66699 7.66602 11.334 6.99902 14.001s-4 7 -10 13l-81 78v2h283v-2l-135 -80c-19.333 -11.333 -34.666 -22.666 -45.999 -33.999z" />
    <glyph glyph-name="L" unicode="L" horiz-adv-x="567" 
d="M537 0l-520.001 0.00292969v2l77 54c7.33301 5.33301 11 12.666 11 21.999v547c0 9.33301 -3.66699 16.666 -11 21.999l-77 54v2h316v-2l-77 -54c-8 -6 -12 -13.333 -12 -22v-585c0 -8.66699 1 -14.334 3 -17.001s6.33301 -4 13 -4h129
c16.667 0 27.334 4.33301 32.001 13l114 208h2v-240z" />
    <glyph glyph-name="M" unicode="M" horiz-adv-x="871" 
d="M765 78c0 -9.33301 3.99902 -16.668 11.999 -22.001l77 -54v-2h-316v2l77 54c8 5.33301 12 12.666 12 21.999v445c0 22.667 1 44 3 64l-235 -593h-2l-233 536c-6 12.667 -13.333 31.334 -22 56.001v-455c0 -8 0.833008 -13.5 2.5 -16.5s5.83398 -7.83301 12.501 -14.5
l97 -98v-2h-244v2l98 98c9.33301 10 14 20.333 14 31v465c0 12 -3.33301 21 -10 27l-84 78v2h212l218 -505l201 505h199v-2l-77 -59c-8 -5.33301 -12 -12.666 -12 -21.999v-542z" />
    <glyph glyph-name="N" unicode="N" horiz-adv-x="693" 
d="M18 703l202 0.000976562l350 -560v429c0 11.333 -4.66699 21.666 -14 30.999l-98 98v2h244v-2l-97 -98c-10 -10.667 -15 -21 -15 -31v-572h-93l-357 570v-439c0 -11.333 5 -21.666 15 -30.999l98 -98v-2h-245v2l98 98c9.33301 9.33301 14 19.666 14 30.999v449
c0 14 -3.66699 25 -11 33l-91 88v2z" />
    <glyph glyph-name="O" unicode="O" horiz-adv-x="708" 
d="M355 7c108.667 0 163 115 163 345c0 229.333 -54.333 344 -163 344c-109.333 0 -164 -114.667 -164 -344c0 -228.667 54.667 -343.667 164 -345zM355 713c102 0 181 -31.5 237 -94.5s84 -151.833 84 -266.5c0 -115.333 -28 -204.5 -84 -267.5s-135 -94.5 -237 -94.5
s-181.333 31.5 -238 94.5s-85 152.167 -85 267.5c0 114.667 28.333 203.5 85 266.5s136 94.5 238 94.5z" />
    <glyph glyph-name="P" unicode="P" horiz-adv-x="617" 
d="M320 268l-76 0.00195312v-180c0 -14 3.66699 -23.333 11 -28l111 -58v-2h-349v2l77 54c7.33301 5.33301 11 12.666 11 21.999v547c0 9.33301 -3.66699 16.666 -11 21.999l-77 54v2h322c76 0 137.667 -17.333 185 -52s71 -88.334 71 -161.001
c0 -71.333 -25.5 -126.166 -76.5 -164.499s-117.167 -57.5 -198.5 -57.5zM244 664.002v-377.001h58c42.667 0 77.5 16.833 104.5 50.5s40.5 83.834 40.5 150.501c0 64 -12.667 112.667 -38 146s-59.333 50 -102 50h-44c-7.33301 0 -12.333 -1.33301 -15 -4s-4 -8 -4 -16z
" />
    <glyph glyph-name="Q" unicode="Q" horiz-adv-x="709" 
d="M518 -236c-44.667 0 -90.334 8.33301 -137.001 25l-205 71c-23.333 8 -44.333 12 -63 12c-11.333 0 -21.666 -0.666992 -30.999 -2l-1 1l157 136c-66.667 21.333 -117.667 61.333 -153 120s-53 133.667 -53 225c0 114.667 28.333 203.5 85 266.5s136 94.5 238 94.5
s181 -31.5 237 -94.5s84 -151.833 84 -266.5c0 -115.333 -28 -204.5 -84 -267.5s-135 -94.5 -237 -94.5c-31.333 0 -64 4 -98 12l-50 -45l222 -70c42 -13.333 85 -20 129 -20c47.333 0 87 11.667 119 35l36 27l2 -1l-46 -80c-32 -56 -82.333 -84 -151 -84zM355 7
c108.667 0 163 115 163 345c0 229.333 -54.333 344 -163 344c-109.333 0 -164 -114.667 -164 -344c0 -228.667 54.667 -343.667 164 -345z" />
    <glyph glyph-name="R" unicode="R" horiz-adv-x="664" 
d="M287 323h-43v-246c0 -9.33301 4 -16.666 12 -21.999l79 -53v-2h-318v2l77 54c7.33301 5.33301 11 12.666 11 21.999v547c0 9.33301 -3.66699 16.666 -11 21.999l-77 54v2h340c68 0 123.667 -15.5 167 -46.5s65 -77.5 65 -139.5c0 -47.333 -16.833 -87.333 -50.5 -120
s-79.5 -53.667 -137.5 -63v-2l74 -39l123 -212c7.33301 -13.333 17.333 -25.666 30 -36.999l48 -42v-2h-192l-171 308c-6 10 -14.667 15 -26 15zM244 664v-322h50c96 0 144 55.667 144 167c0 62.667 -11.667 107.5 -35 134.5s-57 40.5 -101 40.5h-39
c-7.33301 0 -12.333 -1.33301 -15 -4s-4 -8 -4 -16z" />
    <glyph glyph-name="S" unicode="S" horiz-adv-x="538" 
d="M254 -10c-68 0 -132.665 9.00391 -193.998 27.0039v223h2l109 -211c6 -10.667 13.333 -16.667 22 -18c22.667 -2.66699 39.667 -4 51 -4c44.667 0 81 10.833 109 32.5s42 53.167 42 94.5c0 32 -10.333 58.167 -31 78.5s-54.334 41.833 -101.001 64.5l-61 29
c-106 49.333 -159 118.666 -159 207.999c0 59.333 21.667 107.333 65 144s100.333 55 171 55c58.667 0 119 -7.66699 181 -23v-215h-2l-113 202c-6 11.333 -13.333 17.333 -22 18c-8 0.666992 -19.667 1 -35 1c-40.667 0 -73.334 -11.333 -98.001 -34
s-37 -53.334 -37 -92.001c0 -30.667 9.5 -55.834 28.5 -75.501s46.833 -38.167 83.5 -55.5l74 -35c57.333 -27.333 100.333 -55.333 129 -84s43 -66.667 43 -114c0 -62.667 -23.5 -114.334 -70.5 -155.001s-109.167 -61 -186.5 -61z" />
    <glyph glyph-name="T" unicode="T" horiz-adv-x="617" 
d="M378 81c0 -9.33301 3.66699 -16.666 11 -21.999l84 -57v-2h-329v2l83 57c8 5.33301 12 12.666 12 21.999v603h-88c-8 0 -13.5 -1 -16.5 -3s-6.16699 -7 -9.5 -15l-104 -210h-2v247h578v-247h-2l-103 210c-3.33301 8 -6.5 13 -9.5 15s-8.5 3 -16.5 3h-88v-603z" />
    <glyph glyph-name="U" unicode="U" horiz-adv-x="662" 
d="M342 -10c-90 0 -154.833 19.166 -194.5 57.499s-59.5 95.833 -59.5 172.5v403c0 8.66699 -4 16 -12 22l-70 56v2h307v-2l-75 -56c-7.33301 -5.33301 -11 -12.666 -11 -21.999v-386c0 -143.333 53.667 -215 161 -215c50.667 0 90 19.5 118 58.5s42 95.5 42 169.5v322
c0 12 -5 22.333 -15 31l-97 98v2h243v-2l-97 -98c-9.33301 -8.66699 -14 -19 -14 -31v-321c0 -174 -75.333 -261 -226 -261z" />
    <glyph glyph-name="V" unicode="V" horiz-adv-x="612" 
d="M354 0h-96.001l-204 608c-5.33301 16 -12.666 29.333 -21.999 40l-42 53v2h271v-2l-61 -60c-5.33301 -6 -6.33301 -14.333 -3 -25l170 -509l147 461c2 8.66699 2.5 15 1.5 19s-4.83301 9.66699 -11.5 17l-89 97v2h231v-2l-85 -93c-13.333 -14 -22 -27.667 -26 -41z" />
    <glyph glyph-name="W" unicode="W" horiz-adv-x="985" 
d="M728 0l-96.001 0.000976562l-141 443l-142 -443h-96l-199 608c-5.33301 16 -12.666 29.333 -21.999 40l-42 53v2h270v-2l-60 -60c-6 -6 -7.33301 -14.333 -4 -25l166 -510l119 369l-42 133c-3.33301 12 -10 25 -20 39l-38 54v2h265v-2l-60 -60c-6 -6 -7.33301 -14 -4 -24
l159 -508l147 459c2 9.33301 2.33301 15.666 1 18.999s-5.33301 9 -12 17l-88 97v2h230v-2l-84 -93c-13.333 -14 -22 -27.667 -26 -41z" />
    <glyph glyph-name="X" unicode="X" horiz-adv-x="680" 
d="M627 57l60 -55v-2h-301v2l53 50c8.66699 8 9.66699 16.667 3 26l-142 223l-129 -184c-8.66699 -11.333 -9.33398 -20.666 -2.00098 -27.999l86 -87v-2h-261v2l113 81c19.333 13.333 34.333 27.333 45 42l136 194l-186 293c-6.66699 10 -17 21.333 -31 34l-61 55v2h302v-2
l-54 -50c-5.33301 -4.66699 -8 -8.66699 -8 -12s2 -8 6 -14l124 -196l110 157c8.66699 11.333 9.33398 20.666 2.00098 27.999l-86 87v2h261v-2l-113 -81c-19.333 -13.333 -34.333 -27.333 -45 -42l-117 -167l204 -320c6.66699 -10 17 -21.333 31 -34z" />
    <glyph glyph-name="Y" unicode="Y" horiz-adv-x="616" 
d="M382 278l0.000976562 -196.999c0 -6.66699 0.666992 -11.167 2 -13.5s4.66602 -5.16602 9.99902 -8.49902l83 -57v-2h-329v2l84 57c7.33301 5.33301 11 12.666 11 21.999v183c0 10.667 -2.33301 20 -7 28l-171 317c-6 11.333 -15 23.666 -27 36.999l-51 55v2h294v-2
l-62 -59c-6.66699 -6.66699 -8 -13.667 -4 -21l157 -298l131 256c5.33301 10 4.33301 19 -3 27l-86 95v2h238v-2l-100 -93c-12.667 -11.333 -23 -24 -31 -38l-131 -255c-5.33301 -10 -8 -22.333 -8 -37z" />
    <glyph glyph-name="Z" unicode="Z" horiz-adv-x="599" 
d="M551 246l-0.000976562 -246h-538v2l399 682h-204c-15.333 0 -25.666 -4.33301 -30.999 -13l-119 -217h-2v249h520v-2l-400 -682h220c16 0 26.333 4.33301 31 13l122 214h2z" />
    <glyph glyph-name="bracketleft" unicode="[" horiz-adv-x="351" 
d="M172 645v-705c0 -10 4 -16.333 12 -19l157 -47v-2l-261 -14v869l261 -14v-2l-157 -47c-8 -2 -12 -8.33301 -12 -19z" />
    <glyph glyph-name="backslash" unicode="\" horiz-adv-x="380" 
d="M329 -153l-297 885l18 6l298 -885z" />
    <glyph glyph-name="bracketright" unicode="]" horiz-adv-x="351" 
d="M179 -60v705c0 10 -4 16.333 -12 19l-157 47v2l261 14v-869l-261 14v2l157 47c8 2.66699 12 9 12 19z" />
    <glyph glyph-name="asciicircum" unicode="^" horiz-adv-x="540" 
d="M270 713l179 -390l-16 -8l-164 356l-163 -356l-17 8l179 390h2z" />
    <glyph glyph-name="underscore" unicode="_" horiz-adv-x="500" 
d="M495 -91h-490v18h490v-18z" />
    <glyph glyph-name="grave" unicode="`" horiz-adv-x="323" 
d="M50 703h139l84 -163l-2 -2l-221 163v2z" />
    <glyph glyph-name="a" unicode="a" horiz-adv-x="487" 
d="M297 246l1.99902 107.001v4c0 38 -7.66699 68.167 -23 90.5s-38.333 33.5 -69 33.5c-10.667 0 -17.5 -0.666992 -20.5 -2s-6.16699 -5 -9.5 -11l-70 -141h-2l-53 136c59.333 23.333 120.333 35 183 35c65.333 0 112 -13.667 140 -41
c31.333 -32.667 47 -86.334 47 -161.001v-18l-6 -159c-2 -42 9 -63 33 -63c14.667 0 24.667 8 30 24h2c0.666992 -10.667 -1.66602 -22 -6.99902 -34c-6.66699 -16 -17.5 -29 -32.5 -39s-32.833 -15 -53.5 -15c-26.667 0 -48.5 8.66699 -65.5 26
s-25.833 42.666 -26.5 75.999c-10 -31.333 -27.167 -56.166 -51.5 -74.499s-52.5 -27.5 -84.5 -27.5c-37.333 0 -68.833 12 -94.5 36s-38.5 57 -38.5 99c0 46.667 16.5 83.167 49.5 109.5s71.5 39.5 115.5 39.5c43.333 0 78.333 -10 105 -30zM247.999 247.001
c-30 0 -53.667 -10 -71 -30s-26 -45 -26 -75c0 -26.667 6.5 -47.667 19.5 -63s29.5 -23 49.5 -23c30.667 0 55.667 15.667 75 47l2 136c-14 5.33301 -30.333 8 -49 8z" />
    <glyph glyph-name="b" unicode="b" horiz-adv-x="543" 
d="M182 726v-336c32.667 72 83.334 108 152.001 108c55.333 0 99 -22.167 131 -66.5s48 -103.5 48 -177.5c0 -76.667 -18.833 -139.5 -56.5 -188.5s-88.167 -73.5 -151.5 -73.5c-58.667 0 -100.334 19.667 -125.001 59l-122 -59h-2v643c0 10 -3.66699 17.667 -11 23l-59 43
v2zM274 435c-36 0 -66.666 -18.667 -91.999 -56v-317c18 -20 42.667 -30 74 -30c82 0 123 70.667 123 212c0 63.333 -9.33301 111 -28 143s-44.334 48 -77.001 48z" />
    <glyph glyph-name="c" unicode="c" horiz-adv-x="454" 
d="M242 -8c-60 0 -111.001 21.166 -153.001 63.499s-63 103.833 -63 184.5c0 88 24.167 153 72.5 195s106.833 63 175.5 63c51.333 0 103.333 -9.33301 156 -28l-54 -158h-2l-67 157c-4.66699 8.66699 -11 13 -19 13h-10c-39.333 0 -69.166 -17.333 -89.499 -52
s-30.5 -85 -30.5 -151c0 -73.333 13.167 -127.166 39.5 -161.499s59.833 -51.5 100.5 -51.5c58.667 0 103 33 133 99h2c-9.33301 -53.333 -30 -95.5 -62 -126.5s-75 -46.5 -129 -46.5z" />
    <glyph glyph-name="d" unicode="d" horiz-adv-x="564" 
d="M486 726v-651c0 -10 3.33301 -17.667 10 -23l60 -50v-2h-196v98c-28 -70.667 -76.333 -106 -145 -106c-55.333 0 -100.333 22.667 -135 68s-52 106 -52 182c0 76.667 19.333 138.5 58 185.5s87 70.5 145 70.5c60 0 103 -28 129 -84v221c0 10 -3.33301 17.667 -10 23
l-59 43v2zM275 53c30.667 0 59 18.001 85 54.001v297c-22 30.667 -49.333 46 -82 46c-33.333 0 -60.833 -16.333 -82.5 -49s-32.5 -82.667 -32.5 -150c0 -66.667 10.5 -116.334 31.5 -149.001s47.833 -49 80.5 -49z" />
    <glyph glyph-name="e" unicode="e" horiz-adv-x="486" 
d="M456 278l-299.997 0.000976562v-16c0 -64 13.5 -112.833 40.5 -146.5s61.5 -50.5 103.5 -50.5c72 0 123.667 36.333 155 109h2c-22.667 -121.333 -91.334 -182 -206.001 -182c-63.333 0 -116.5 21.167 -159.5 63.5s-64.5 104.166 -64.5 185.499c0 45.333 6.5 85 19.5 119
s30.667 60.833 53 80.5s46.666 34.167 72.999 43.5s54.166 14 83.499 14c56.667 0 104.5 -16 143.5 -48s58.5 -81 58.5 -147c0 -6 -0.666992 -14.333 -2 -25zM254.003 482.001c-60 0 -92.667 -61.999 -98 -185.999h179c0.666992 5.33301 1 11.666 1 18.999
c0 111.333 -27.333 167 -82 167z" />
    <glyph glyph-name="f" unicode="f" horiz-adv-x="332" 
d="M26 472l-0.00195312 17.999h62v20c0 72 14.5 123.833 43.5 155.5s73.167 47.5 132.5 47.5c46.667 0 93.334 -8 140.001 -24l-56 -135h-2l-58 130c-3.33301 6 -6 9.66699 -8 11s-6.33301 2 -13 2c-35.333 0 -53 -35.333 -53 -106v-101h135v-18h-135v-400
c0 -6.66699 0.833008 -11.167 2.5 -13.5s5.83398 -5.16602 12.501 -8.49902l83 -48v-2h-293v2l59 43c6.66699 4 10 11.333 10 22v405h-62z" />
    <glyph glyph-name="g" unicode="g" horiz-adv-x="501" 
d="M40 335c0 52 18.6709 92.168 56.0039 120.501s84.666 42.5 141.999 42.5c49.333 0 90.666 -10 123.999 -30c6.66699 -4 13 -2.66699 19 4l100 121h2v-151h-93c36 -28.667 54 -66 54 -112c0 -50.667 -19.167 -89.5 -57.5 -116.5s-86.833 -40.5 -145.5 -40.5
c-25.333 0 -47.666 2.33301 -66.999 7c-31.333 -8.66699 -47 -24 -47 -46c0 -14 8 -25.167 24 -33.5s39 -12.5 69 -12.5h86c57.333 0 101.5 -11.667 132.5 -35s46.5 -57.333 46.5 -102c0 -57.333 -24.833 -102.833 -74.5 -136.5s-110.5 -50.5 -182.5 -50.5
c-54.667 0 -102.334 9.66699 -143.001 29s-61 46.666 -61 81.999c0 24 9.83301 44.833 29.5 62.5s48.5 30.167 86.5 37.5c-30 6.66699 -53.167 18.667 -69.5 36s-24.5 38 -24.5 62c0 26 10.167 48.833 30.5 68.5s48.166 33.834 83.499 42.501
c-36.667 10.667 -65.834 28.667 -87.501 54s-32.5 57.666 -32.5 96.999zM176.004 -28.999l-25 2.00098c-34 -16.667 -51 -42.667 -51 -78s15.333 -62.833 46 -82.5s67 -29.5 109 -29.5c40.667 0 75.5 9.16699 104.5 27.5s43.5 44.166 43.5 77.499c0 50 -37 76.333 -111 79z
M165.004 336.002c0 -98 25.667 -147 77 -147s77 49 77 147s-25.667 147 -77 147s-77 -49 -77 -147z" />
    <glyph glyph-name="h" unicode="h" horiz-adv-x="573" 
d="M500 67c0 -8.66699 3.66699 -15.999 11 -21.999l60 -43v-2h-266v2l57 43c7.33301 6 11 13 11 21c0 0.666992 0.5 29.834 1.5 87.501s1.5 95.167 1.5 112.5c0 56 -6.16699 97.167 -18.5 123.5s-33.5 39.5 -63.5 39.5c-36.667 0 -67 -20.333 -91 -61v-301
c0 -8.66699 3.66699 -16 11 -22l59 -43v-2h-265v2l59 43c6.66699 5.33301 10 12.666 10 21.999v568c0 10 -3.33301 17.667 -10 23l-59 43v2l195 23v-350c24.667 81.333 75.667 122 153 122c97.333 0 146 -68 146 -204c0 -44.667 -0.666992 -120.334 -2 -227.001z" />
    <glyph glyph-name="i" unicode="i" horiz-adv-x="296" 
d="M149 556c-19.333 0 -35.666 6.33301 -48.999 19s-20 28.334 -20 47.001c0 20 6.66699 36.5 20 49.5s29.666 19.5 48.999 19.5c20 0 36.667 -6.5 50 -19.5s20 -29.5 20 -49.5c0 -18.667 -6.83301 -34.334 -20.5 -47.001s-30.167 -19 -49.5 -19zM22 490l195 0.000976562
v-423c0 -8.66699 3.66699 -16 11 -22l59 -43v-2h-265v2l59 43c6.66699 5.33301 10 12.666 10 21.999v348c0 10 -3.33301 17.667 -10 23l-59 50v2z" />
    <glyph glyph-name="j" unicode="j" horiz-adv-x="273" 
d="M15 490l195 0.000976562v-462c0 -74.667 -18.5 -134.5 -55.5 -179.5s-90.833 -67.5 -161.5 -67.5c-6 0 -15 0.666992 -27 2v2c39.333 5.33301 68.833 24.166 88.5 56.499s29.5 81.5 29.5 147.5v426c0 10 -3.33301 17.667 -10 23l-59 50v2zM73 622.001
c0 20 6.66602 36.5 19.999 49.5s29.666 19.5 48.999 19.5c20 0 36.5 -6.5 49.5 -19.5s19.5 -29.5 19.5 -49.5c0 -18.667 -6.66699 -34.334 -20 -47.001s-29.666 -19 -48.999 -19s-35.666 6.33301 -48.999 19s-20 28.334 -20 47.001z" />
    <glyph glyph-name="k" unicode="k" horiz-adv-x="535" 
d="M473 70c6 -12 13.668 -21.667 23.001 -29l50 -39v-2h-181l-121 242c-5.33301 10 -12.333 15 -21 15c-6.66699 0 -13.334 -2.33301 -20.001 -7v-183c0 -8.66699 3.66699 -16 11 -22l59 -43v-2h-265v2l59 43c6.66699 5.33301 10 12.666 10 21.999v568
c0 10 -3.33301 17.667 -10 23l-59 43v2l195 23v-467l180 136c6.66699 4.66699 7 10.334 1 17.001l-72 76v2h221v-2l-190 -143c-7.33301 -5.33301 -9.33301 -11 -6 -17z" />
    <glyph glyph-name="l" unicode="l" horiz-adv-x="281" 
d="M203 726v-658.999c0 -8.66699 3.66699 -16 11 -22l59 -43v-2h-265v2l59 43c6.66699 5.33301 10 12.666 10 21.999v568c0 10 -3.33301 17.667 -10 23l-59 43v2z" />
    <glyph glyph-name="m" unicode="m" horiz-adv-x="884" 
d="M516 294c0 -44.667 -0.666992 -120.332 -2 -226.999c0 -8.66699 3.66699 -16 11 -22l59 -43v-2h-265v2l56 43c8 5.33301 12 12.333 12 21c0 0.666992 0.5 29.834 1.5 87.501s1.5 95.167 1.5 112.5c0 56 -6.16699 97.167 -18.5 123.5s-33.5 39.5 -63.5 39.5
c-36.667 0 -67 -20.333 -91 -61v-301c0 -8.66699 3.66699 -16 11 -22l59 -43v-2h-265v2l59 43c6.66699 5.33301 10 12.666 10 21.999v348c0 10 -3.33301 17.667 -10 23l-59 50v2h195v-114c24.667 81.333 75.667 122 153 122c74 0 120 -40.333 138 -121
c12 37.333 32 66.833 60 88.5s61.667 32.5 101 32.5c46 0 81.5 -17 106.5 -51s37.5 -85 37.5 -153c0 -44.667 -0.666992 -120.334 -2 -227.001c0 -8.66699 3.66699 -16 11 -22l59 -43v-2h-265v2l56 43c8 5.33301 12 12.333 12 21c0 1.33301 0.5 30.5 1.5 87.5
s1.5 93.833 1.5 110.5c0 56 -6.16699 97.5 -18.5 124.5s-33.5 40.5 -63.5 40.5c-38 0 -70 -19.333 -96 -58c4.66699 -21.333 7 -47 7 -77z" />
    <glyph glyph-name="n" unicode="n" horiz-adv-x="587" 
d="M390 266c0 56 -6.16699 97.168 -18.5 123.501s-33.5 39.5 -63.5 39.5c-36.667 0 -67 -20.333 -91 -61v-301c0 -8.66699 3.66699 -16 11 -22l59 -43v-2h-265v2l59 43c6.66699 5.33301 10 12.666 10 21.999v348c0 10 -3.33301 17.667 -10 23l-59 50v2h195v-114
c24.667 81.333 75.667 122 153 122c97.333 0 146 -68 146 -204c0 -44.667 -0.666992 -120.334 -2 -227.001c0 -8.66699 3.66699 -16 11 -22l59 -43v-2h-265v2l56 43c8 5.33301 12 12.333 12 21c0 0.666992 0.5 29.834 1.5 87.501s1.5 95.167 1.5 112.5z" />
    <glyph glyph-name="o" unicode="o" horiz-adv-x="536" 
d="M268 482c-32 0 -56.333 -17.6689 -73 -53.002s-25 -96.333 -25 -183c0 -87.333 8.33301 -148.833 25 -184.5s41 -53.5 73 -53.5s56.5 17.833 73.5 53.5s25.5 96.834 25.5 183.501s-8.5 147.834 -25.5 183.501s-41.5 53.5 -73.5 53.5zM268 -8.00195
c-74 0 -132.667 21.999 -176 65.999s-65 106.667 -65 188c0 80.667 21.667 142.834 65 186.501s102 65.5 176 65.5c74.667 0 133.5 -21.833 176.5 -65.5s64.5 -106.167 64.5 -187.5c0 -80.667 -21.667 -143 -65 -187s-102 -66 -176 -66z" />
    <glyph glyph-name="p" unicode="p" horiz-adv-x="564" 
d="M77 -161v576.002c0 10 -3.33301 17.667 -10 23l-59 50v2h195v-109c32.667 78 83.667 117 153 117c54.667 0 98.167 -21.833 130.5 -65.5s48.5 -101.834 48.5 -174.501c0 -80.667 -18.5 -145.167 -55.5 -193.5s-85.167 -72.5 -144.5 -72.5c-65.333 0 -109.333 26 -132 78
v-225c0 -10 5 -17.667 15 -23l83 -48v-2h-293v2l59 43c6.66699 5.33301 10 12.666 10 21.999zM296 435.002c-37.333 0 -68.335 -21.333 -93.002 -64v-294c20.667 -24.667 48.334 -37 83.001 -37s62.334 17.833 83.001 53.5s31 88.167 31 157.5
c0 58 -9.33301 103.167 -28 135.5s-44 48.5 -76 48.5z" />
    <glyph glyph-name="q" unicode="q" horiz-adv-x="542" 
d="M361 -155v256.999c-29.333 -73.333 -79.333 -110 -150 -110c-50 0 -92.833 22.667 -128.5 68s-53.5 105 -53.5 179c0 80 19.333 143.167 58 189.5s88 69.5 148 69.5c55.333 0 97.333 -21.333 126 -64l126 64v-659c0 -9.33301 3.33301 -16.666 10 -21.999l52 -43v-2h-285
v2l83 48c9.33301 5.33301 14 13 14 23zM275 54.999c32 0 60.668 18.667 86.001 56v314c-25.333 20.667 -51.333 31 -78 31c-34.667 0 -63.334 -17 -86.001 -51s-34 -85.667 -34 -155c0 -60 10.167 -107.5 30.5 -142.5s47.5 -52.5 81.5 -52.5z" />
    <glyph glyph-name="r" unicode="r" horiz-adv-x="412" 
d="M217 338l-0.000976562 -262.999c0 -10 4.66699 -17.667 14 -23l103 -50v-2h-312v2l59 43c6.66699 5.33301 10 12.666 10 21.999v348c0 10 -3.33301 17.667 -10 23l-59 50v2h195v-141c8.66699 40 25.5 74.833 50.5 104.5s56.5 44.5 94.5 44.5c22.667 0 42 -7 58 -21
l-53 -152h-2l-63 103c-3.33301 4 -7.66602 5 -12.999 3c-11.333 -4.66699 -22 -13 -32 -25s-16.667 -21.333 -20 -28z" />
    <glyph glyph-name="s" unicode="s" horiz-adv-x="434" 
d="M405 150c0 -50 -19.168 -88.833 -57.501 -116.5s-87.166 -41.5 -146.499 -41.5s-116 10.333 -170 31l48 146h2l67 -146c3.33301 -6.66699 9.33301 -10.667 18 -12c11.333 -2 22.666 -3 33.999 -3c30.667 0 54.667 8 72 24s26 36 26 60c0 22 -7.16699 39.167 -21.5 51.5
s-38.5 26.166 -72.5 41.499l-64 29c-64 29.333 -96 75 -96 137c0 44.667 17.5 80.334 52.5 107.001s78.833 40 131.5 40c56 0 110 -8.33301 162 -25l-46 -136h-2l-70 130c-5.33301 10 -15.666 15 -30.999 15h-12c-24.667 0 -45.167 -7 -61.5 -21s-24.5 -33.667 -24.5 -59
c0 -21.333 7 -38.5 21 -51.5s35 -25.5 63 -37.5l66 -28c36 -15.333 63.667 -33 83 -53s29 -47.333 29 -82z" />
    <glyph glyph-name="t" unicode="t" horiz-adv-x="322" 
d="M194 472v-345c0 -22.667 4.83301 -40.167 14.5 -52.5s23.167 -18.5 40.5 -18.5c15.333 0 29.166 4.66699 41.499 14s21.5 21 27.5 35l2 -1c-5.33301 -32 -19.166 -58.667 -41.499 -80s-53.5 -32 -93.5 -32c-78 0 -117 41.333 -117 124v356h-63v18h51
c10.667 0 19.667 4.33301 27 13l109 152h2v-165h133v-18h-133z" />
    <glyph glyph-name="u" unicode="u" horiz-adv-x="565" 
d="M487 490v-414.999c0 -10 3.33301 -17.667 10 -23l59 -50v-2h-196v111c-28 -79.333 -77.333 -119 -148 -119c-95.333 0 -143 67.667 -143 203c0 40 0.666992 113.333 2 220c0 10 -3.33301 18 -10 24l-60 49v2h196c0 -0.666992 -0.166992 -21.334 -0.5 -62.001l-1 -126
c-0.333008 -43.333 -0.5 -69 -0.5 -77c0 -55.333 6 -96.5 18 -123.5s32.333 -40.5 61 -40.5c33.333 0 62 20.333 86 61v293c0 10 -3.33301 17.667 -10 23l-59 50v2h196z" />
    <glyph glyph-name="v" unicode="v" horiz-adv-x="452" 
d="M388 361l-127.002 -361.001h-76l-147 401c-5.33301 15.333 -11.333 28.333 -18 39l-31 48v2h223v-2l-41 -50c-5.33301 -7.33301 -6.66602 -15.666 -3.99902 -24.999l111 -309l92 259c4 10.667 2.33301 22 -5 34l-58 91v2h163v-2l-63 -90
c-7.33301 -10.667 -13.666 -23 -18.999 -37z" />
    <glyph glyph-name="w" unicode="w" horiz-adv-x="734" 
d="M752 488l-63 -90c-8 -12 -14.333 -24.333 -19 -37l-127 -361h-77l-104 291l-105 -291h-77l-143 401c-4.66699 14.667 -10.334 27.667 -17.001 39l-31 48v2h222v-2l-42 -50c-5.33301 -6 -6.33301 -14.333 -3 -25l108 -311l78 216l-29 83
c-5.33301 16.667 -11 29.667 -17 39l-31 48v2h221v-2l-41 -50c-6 -8 -7.33301 -16.333 -4 -25l109 -310l91 260c4.66699 12 3.33398 23.333 -3.99902 34l-58 91v2h163v-2z" />
    <glyph glyph-name="x" unicode="x" horiz-adv-x="489" 
d="M199 210l-138 202.999c-9.33301 14 -20 26.667 -32 38l-40 37v2h255v-2l-50 -41c-6.66699 -5.33301 -6.66699 -13 0 -23l84 -124l73 95c4.66699 6.66699 7.16699 11.334 7.5 14.001s-1.83398 7 -6.50098 13l-54 66v2h192v-2l-93 -73
c-12.667 -9.33301 -24.667 -21.333 -36 -36l-73 -94l142 -208c8 -11.333 18.333 -23.333 31 -36l40 -39v-2h-255v2l51 42c6.66699 5.33301 6.33398 13 -0.999023 23l-87 128l-76 -99c-5.33301 -6.66699 -8 -11.5 -8 -14.5s2.33301 -7.5 7 -13.5l54 -66v-2h-192v2l93 73
c10.667 8.66699 22.667 21 36 37z" />
    <glyph glyph-name="y" unicode="y" horiz-adv-x="454" 
d="M56 -236c-15.333 0 -30.333 3.33203 -45 9.99902l36 162h2l76 -99c4.66699 -6.66699 9 -10 13 -10c3.33301 0 7.33301 3.33301 12 10c18 24.667 39 64.334 63 119.001l-180 459c-3.33301 8.66699 -9.33301 20 -18 34l-25 39v2h225v-2l-44 -49
c-6 -6.66699 -7 -14.667 -3 -24l111 -296l95 242c4.66699 12 4 22.667 -2 32l-60 95v2h162v-2l-60 -88c-8 -12 -15.333 -26 -22 -42l-150 -385c-18.667 -47.333 -41 -91.333 -67 -132c-32 -51.333 -71.667 -77 -119 -77z" />
    <glyph glyph-name="z" unicode="z" horiz-adv-x="452" 
d="M310 33l109.998 167h3l-15 -200h-394v2l278 471h-121c-8.66699 0 -14.167 -0.666992 -16.5 -2s-5.83301 -5.66602 -10.5 -12.999l-103 -158h-3v190h398v-2l-275 -470h121c8.66699 0 14.334 0.666992 17.001 2s6.33398 5.66602 11.001 12.999z" />
    <glyph glyph-name="braceleft" unicode="{" horiz-adv-x="352" 
d="M217 186l-16.001 -174.002c-3.33301 -36.667 6.66699 -70.5 30 -101.5s60.333 -45.167 111 -42.5v-2c-22.667 -5.33301 -44.334 -8 -65.001 -8c-49.333 0 -92.166 16.167 -128.499 48.5s-51.833 75.833 -46.5 130.5l17 175c2 20.667 -4.83301 38.5 -20.5 53.5
s-36.834 23.833 -63.501 26.5v2c27.333 3.33301 48.666 12.333 63.999 27s22 32.334 20 53.001l-17 175c-5.33301 54.667 10.334 98.167 47.001 130.5s79.334 48.5 128.001 48.5c20.667 0 42.334 -2.66699 65.001 -8v-2c-50.667 2.66699 -87.667 -11.666 -111 -42.999
s-33.333 -65.333 -30 -102l16 -173c2.66699 -26.667 -4.33301 -49.5 -21 -68.5s-38.334 -31.5 -65.001 -37.5v-2c26.667 -6 48.334 -18.667 65.001 -38s23.667 -42 21 -68z" />
    <glyph glyph-name="bar" unicode="|" horiz-adv-x="219" 
d="M119 -250h-19v1000h19v-1000z" />
    <glyph glyph-name="braceright" unicode="}" horiz-adv-x="352" 
d="M250 549l-17.001 -174.998c-2 -20.667 4.66699 -38.334 20 -53.001s36.666 -23.667 63.999 -27v-2c-26.667 -2.66699 -47.834 -11.5 -63.501 -26.5s-22.5 -32.833 -20.5 -53.5l17 -175c5.33301 -54.667 -10.334 -98.167 -47.001 -130.5s-79.667 -48.5 -129 -48.5
c-20 0 -41.333 2.66699 -64 8v2c50.667 -2.66699 87.667 11.5 111 42.5s33.333 64.833 30 101.5l-16 174c-2.66699 26 4.33301 48.667 21 68s38.334 32 65.001 38v2c-27.333 6 -49.166 18.5 -65.499 37.5s-23.166 41.833 -20.499 68.5l16 173
c3.33301 36.667 -6.66699 70.667 -30 102s-60.333 45.666 -111 42.999v2c22.667 5.33301 44 8 64 8c49.333 0 92.333 -16.333 129 -49s52.334 -76 47.001 -130z" />
    <glyph glyph-name="asciitilde" unicode="~" horiz-adv-x="502" 
d="M364 277c-30.667 0 -69.499 11 -116.499 33s-83.833 33 -110.5 33c-40 0 -72 -19.667 -96 -59l-16 10c26.667 44.667 64 67 112 67c30.667 0 69.5 -11 116.5 -33s83.833 -33 110.5 -33c41.333 0 74 19.333 98 58l15 -9c-26.667 -44.667 -64.334 -67 -113.001 -67z" />
    <glyph glyph-name="uni00A0" unicode="&#xa0;" horiz-adv-x="0" 
 />
    <glyph glyph-name="exclamdown" unicode="&#xa1;" horiz-adv-x="272" 
d="M47 -214l86 487h2l90 -487h-178zM65 429c0 19.333 6.83301 35.5 20.5 48.5s30.167 19.5 49.5 19.5c20 0 36.833 -6.5 50.5 -19.5s20.5 -29.167 20.5 -48.5c0 -20.667 -6.83301 -37.667 -20.5 -51s-30.5 -20 -50.5 -20c-19.333 0 -35.833 6.83301 -49.5 20.5
s-20.5 30.5 -20.5 50.5z" />
    <glyph glyph-name="cent" unicode="&#xa2;" horiz-adv-x="459" 
d="M272 -105h-16.9971v97h-13c-62.667 0 -114.334 21.167 -155.001 63.5s-61 104.166 -61 185.499c0 84.667 21.833 148 65.5 190s98.167 64.333 163.5 67v107h17v-107c57.333 -1.33301 111 -9.66602 161 -24.999v-2l-61 -160h-2l-65 159
c-2 4.66699 -4.83301 7.66699 -8.5 9s-11.834 2 -24.501 2v-412c9.33301 -2 18.666 -3 27.999 -3c60.667 0 104.334 33 131.001 99h2c-7.33301 -48 -24.333 -87.333 -51 -118s-63.334 -48.667 -110.001 -54v-98zM150.003 277c0 -58 9.66797 -103.832 29.001 -137.499
s44.666 -55.834 75.999 -66.501v407c-32 -4.66699 -57.5 -24.667 -76.5 -60s-28.5 -83 -28.5 -143z" />
    <glyph glyph-name="sterling" unicode="&#xa3;" horiz-adv-x="553" 
d="M419 296l-169.998 0.00292969c4 -18 6 -36 6 -54c0 -70 -37.333 -114.667 -112 -134v-1h247c17.333 0 28.833 1 34.5 3s12.5 7.66699 20.5 17l67 81h2l-23 -208h-466v2l83 94c31.333 34 47 72.333 47 115c0 18.667 -7.33301 47 -22 85h-100v18h92
c-1.33301 3.33301 -5 11.666 -11 24.999l-12.5 28c-2.33301 5.33301 -5.83301 13.833 -10.5 25.5s-8 21.167 -10 28.5l-7.5 26.5c-3 10.333 -5 20.166 -6 29.499s-1.5 18.666 -1.5 27.999c0 64.667 19.667 115.5 59 152.5s96.666 55.5 171.999 55.5c70.667 0 136 -9 196 -27
l-35 -181h-2l-95 174c-4.66699 10 -13.334 15 -26.001 15h-28c-40.667 0 -70 -14.667 -88 -44s-27 -67.333 -27 -114c0 -25.333 3 -50.5 9 -75.5s13.833 -51.833 23.5 -80.5s16.5 -50.667 20.5 -66h174v-18z" />
    <glyph glyph-name="currency" unicode="&#xa4;" horiz-adv-x="664" 
d="M332 120c-64 0 -117.668 19.001 -161.001 57.001l-113 -112l-12 12l111 112c-41.333 42.667 -62 97 -62 163c0 65.333 21 119.666 63 162.999l-112 113l12 13l113 -113c44.667 38 98.334 57 161.001 57c62 0 115.667 -19 161 -57l113 113l13 -13l-113 -113
c42.667 -42.667 64 -97 64 -163c0 -64.667 -21.333 -119 -64 -163l112 -111l-12 -13l-112 112c-44 -38 -98 -57 -162 -57zM331.999 138.001c62 0 114 19.5 156 58.5s63 90.833 63 155.5c0 64 -21 115.833 -63 155.5s-94 59.5 -156 59.5s-113.833 -19.833 -155.5 -59.5
s-62.5 -91.5 -62.5 -155.5c0 -64.667 20.833 -116.5 62.5 -155.5s93.5 -58.5 155.5 -58.5z" />
    <glyph glyph-name="yen" unicode="&#xa5;" horiz-adv-x="624" 
d="M384 163l0.000976562 -81.999c0 -6.66699 0.666992 -11.167 2 -13.5s4.66602 -5.16602 9.99902 -8.49902l83 -57v-2h-329v2l84 57c7.33301 5.33301 11 12.666 11 21.999v82h-147v18h147v86h-147v18h144l-2 3l-2 4l-171 317c-6 11.333 -15 23.666 -27 36.999l-51 55v2h294
v-2l-62 -59c-6.66699 -6.66699 -8 -13.667 -4 -21l157 -298l131 256c5.33301 10 4.33301 19 -3 27l-86 95v2h238v-2l-100 -93c-12.667 -11.333 -23 -24 -31 -38l-131 -255c-5.33301 -10 -8 -20 -8 -30h150v-18h-150v-86h150v-18h-150z" />
    <glyph glyph-name="brokenbar" unicode="&#xa6;" horiz-adv-x="219" 
d="M119 -250h-19v438h19v-438zM119 322h-19v428h19v-428z" />
    <glyph glyph-name="section" unicode="&#xa7;" horiz-adv-x="510" 
d="M461 268c0 -35.333 -12.333 -64.5 -37 -87.5s-53 -39.833 -85 -50.5c57.333 -43.333 86 -93.333 86 -150c0 -46.667 -18 -83.334 -54 -110.001s-78.667 -40 -128 -40c-56.667 0 -107.667 5.66699 -153 17l36 193h2l78 -177c6 -12 15 -18 27 -18h13
c28 0 50.5 8.83301 67.5 26.5s25.5 38.5 25.5 62.5c0 42.667 -35.667 87 -107 133l-46 30c-50 32.667 -85 61.667 -105 87s-30 55.333 -30 90s12.5 63.834 37.5 87.501s53.167 40.5 84.5 50.5c-57.333 44.667 -86 95 -86 151c0 46.667 18 83.334 54 110.001s79 40 129 40
c53.333 0 104 -5.66699 152 -17l-36 -193h-2l-78 176c-3.33301 7.33301 -6.5 12.333 -9.5 15s-8.16699 4 -15.5 4h-15c-28 0 -50.5 -8.83301 -67.5 -26.5s-25.5 -38.834 -25.5 -63.501c0 -42.667 35.667 -87 107 -133l46 -30c50 -32.667 85 -61.667 105 -87
s30 -55.333 30 -90zM295 327l-114 78.998c-11.333 -5.33301 -21.333 -15.833 -30 -31.5s-13 -31.167 -13 -46.5c0 -38 26.333 -75.333 79 -112l114 -80c10.667 6 20.667 16.833 30 32.5s14 30.834 14 45.501c0 38.667 -26.667 76.334 -80 113.001z" />
    <glyph glyph-name="dieresis" unicode="&#xa8;" horiz-adv-x="399" 
d="M50 622c0 16.667 5.83301 30.834 17.5 42.501s25.834 17.5 42.501 17.5c16 0 29.833 -5.83301 41.5 -17.5s17.5 -25.834 17.5 -42.501c0 -16 -5.83301 -29.667 -17.5 -41s-25.5 -17 -41.5 -17c-16.667 0 -30.834 5.66699 -42.501 17s-17.5 25 -17.5 41zM230 622
c0 16.667 5.66699 30.834 17 42.501s25 17.5 41 17.5c17.333 0 31.833 -5.83301 43.5 -17.5s17.5 -25.834 17.5 -42.501c0 -16 -6 -29.667 -18 -41s-26.333 -17 -43 -17c-16 0 -29.667 5.66699 -41 17s-17 25 -17 41z" />
    <glyph glyph-name="copyright" unicode="&#xa9;" horiz-adv-x="813" 
d="M45 351c0 107.333 34.667 194.5 104 261.5s155 100.5 257 100.5s187.833 -33.5 257.5 -100.5s104.5 -154.167 104.5 -261.5c0 -108 -34.833 -195.167 -104.5 -261.5s-155.5 -99.5 -257.5 -99.5s-187.667 33.167 -257 99.5s-104 153.5 -104 261.5zM64 351
c0 -102.667 32.833 -185.5 98.5 -248.5s146.834 -94.5 243.501 -94.5c97.333 0 178.833 31.5 244.5 94.5s98.5 145.833 98.5 248.5c0 102 -33 184.833 -99 248.5s-147.333 95.5 -244 95.5s-177.834 -31.833 -243.501 -95.5s-98.5 -146.5 -98.5 -248.5zM330 352
c0 -61.333 9.00098 -108.668 27.001 -142.001s42.667 -50 74 -50c14 0 23 3.33301 27 10l83 117h1v-133c-30.667 -6.66699 -69 -10 -115 -10c-66.667 0 -117.834 18.833 -153.501 56.5s-53.5 87.834 -53.5 150.501c0 62 18.5 112.333 55.5 151s85.5 58 145.5 58
c46 0 86.333 -4 121 -12v-128h-1l-85 114c-4.66699 7.33301 -15 11 -31 11c-29.333 0 -52.5 -17.667 -69.5 -53s-25.5 -82 -25.5 -140z" />
    <glyph glyph-name="ordfeminine" unicode="&#xaa;" horiz-adv-x="402" 
d="M318 562l-4 -110.002c-1.33301 -28.667 6.33398 -43 23.001 -43c8.66699 0 15.334 5.66699 20.001 17h2c0 -9.33301 -1.66699 -17.666 -5 -24.999c-10.667 -24 -30.334 -36 -59.001 -36c-17.333 0 -32 5.5 -44 16.5s-18.667 27.167 -20 48.5
c-7.33301 -20 -19.333 -35.833 -36 -47.5s-35.334 -17.5 -56.001 -17.5c-25.333 0 -46.833 8.33301 -64.5 25s-26.5 39.334 -26.5 68.001c0 32 11.333 57.167 34 75.5s49 27.5 79 27.5c28.667 0 52.334 -7 71.001 -21l2 74c1.33301 54.667 -21.334 82 -68.001 82
c-8.66699 0 -14.667 -3 -18 -9l-46 -95h-1l-36 97c42 16 84 24 126 24c44 0 75.667 -9.66699 95 -29c23.333 -23.333 34 -64 32 -122zM231 440.998l1.00098 91c-10 4 -21 6 -33 6c-20.667 0 -36.834 -6.66699 -48.501 -20s-17.5 -30 -17.5 -50c0 -18 4.33301 -32 13 -42
s20 -15 34 -15c18.667 0 35.667 10 51 30z" />
    <glyph glyph-name="guillemotleft" unicode="&#xab;" horiz-adv-x="449" 
d="M29 252l212 213l1 -1l-96 -213l96 -213l-1 -1l-212 213v2zM206 252l212 213l1 -1l-96 -213l96 -213l-1 -1l-212 213v2z" />
    <glyph glyph-name="logicalnot" unicode="&#xac;" horiz-adv-x="540" 
d="M500 109h-19v207h-442v18h461v-225z" />
    <glyph glyph-name="uni00AD" unicode="&#xad;" horiz-adv-x="351" 
d="M46 235v19h260v-19h-260z" />
    <glyph glyph-name="registered" unicode="&#xae;" horiz-adv-x="813" 
d="M45 351c0 107.333 34.667 194.5 104 261.5s155 100.5 257 100.5s187.833 -33.5 257.5 -100.5s104.5 -154.167 104.5 -261.5c0 -108 -34.833 -195.167 -104.5 -261.5s-155.5 -99.5 -257.5 -99.5s-187.667 33.167 -257 99.5s-104 153.5 -104 261.5zM64 351
c0 -102.667 32.833 -185.5 98.5 -248.5s146.834 -94.5 243.501 -94.5c97.333 0 178.833 31.5 244.5 94.5s98.5 145.833 98.5 248.5c0 102 -33 184.833 -99 248.5s-147.333 95.5 -244 95.5s-177.834 -31.833 -243.501 -95.5s-98.5 -146.5 -98.5 -248.5zM231 165l43 28.001
c4.66699 3.33301 7 7.66602 7 12.999v297c0 5.33301 -2.33301 9.66602 -7 12.999l-43 28v2h208c37.333 0 67.666 -8.33301 90.999 -25s35 -42 35 -76c0 -26 -9.16699 -48 -27.5 -66s-43.833 -29.333 -76.5 -34v-2l42 -21l68 -114c6.66699 -10.667 12.334 -17.667 17.001 -21
l28 -22v-2h-120l-89 166c-3.33301 5.33301 -8.33301 8 -15 8h-22v-131c0 -5.33301 2.33301 -9.66602 7 -12.999l42 -28v-2h-188v2zM370 518.001v-164h28c47.333 0 71 28.667 71 86c0 59.333 -21.667 89 -65 89h-22c-8 0 -12 -3.66699 -12 -11z" />
    <glyph glyph-name="macron" unicode="&#xaf;" horiz-adv-x="362" 
d="M312 592h-262v18h262v-18z" />
    <glyph glyph-name="degree" unicode="&#xb0;" horiz-adv-x="324" 
d="M35 589c0 36 12.333 65.333 37 88s54.667 34 90 34s65.333 -11.333 90 -34s37 -52 37 -88c0 -35.333 -12.333 -64 -37 -86s-54.667 -33 -90 -33s-65.333 11 -90 33s-37 50.667 -37 86zM54 589c0 -29.333 10.833 -53.5 32.5 -72.5s46.834 -28.5 75.501 -28.5
c29.333 0 54.666 9.5 75.999 28.5s32 43.167 32 72.5c0 30 -10.667 54.833 -32 74.5s-46.666 29.5 -75.999 29.5c-28.667 0 -53.834 -9.83301 -75.501 -29.5s-32.5 -44.5 -32.5 -74.5z" />
    <glyph glyph-name="plusminus" unicode="&#xb1;" horiz-adv-x="540" 
d="M50 365v18h211v161h19v-161h210v-18h-210v-162h-19v162h-211zM50 105v18h440v-18h-440z" />
    <glyph glyph-name="twosuperior" unicode="&#xb2;" 
d="M268 522l-13.999 -102h-240v2c36 32 68 62 96 90c48.667 47.333 73 88.333 73 123c0 42 -18 63 -54 63h-12c-6 0 -10 -2.66699 -12 -8l-41 -92h-2l-40 93c39.333 14.667 78.666 22 117.999 22s70 -7.16699 92 -21.5s33 -34.5 33 -60.5c0 -30 -12.833 -55.333 -38.5 -76
s-69.167 -45 -130.5 -73v-2h105c14 0 23.667 2.66699 29 8l36 34h2z" />
    <glyph glyph-name="threesuperior" unicode="&#xb3;" 
d="M273 502c0 -24.667 -12.1699 -45.167 -36.5029 -61.5s-58.166 -24.5 -101.499 -24.5c-44.667 0 -83.667 6 -117 18l50 97h2l28 -91c2 -4.66699 5.33301 -7.33398 10 -8.00098s12.334 -1 23.001 -1c18 0 32.833 6.16699 44.5 18.5s17.5 29.5 17.5 51.5
c0 42 -27.333 64.333 -82 67v2c48.667 8 73 33 73 75c0 35.333 -15.333 53 -46 53h-18c-6 0 -10 -2.66699 -12 -8l-41 -90h-2l-40 91c37.333 14.667 77.333 22 120 22c78 0 117 -23.333 117 -70c0 -35.333 -26.333 -58.333 -79 -69v-2
c28.667 -1.33301 50.834 -8.16602 66.501 -20.499s23.5 -28.833 23.5 -49.5z" />
    <glyph glyph-name="acute" unicode="&#xb4;" horiz-adv-x="323" 
d="M135 703h138v-2l-221 -163l-2 2z" />
    <glyph glyph-name="mu" unicode="&#xb5;" horiz-adv-x="571" 
d="M493 72c0 -10.667 3.33301 -18.666 10 -23.999l59 -46v-2h-196v112c-10.667 -34.667 -28 -62.334 -52 -83.001s-51.333 -31 -82 -31c-10 0 -20.333 1.33301 -31 4v-154c0 -10.667 4.66699 -18.667 14 -24l83 -50v-2h-293v2l61 43c6.66699 4.66699 10 12 10 22v580
c0 10 -3.33301 17.667 -10 23l-59 46v2h194v-285c0 -54 6 -91.833 18 -113.5s32 -32.5 60 -32.5c34.667 0 63.667 21 87 63v296c0 10 -3.33301 18 -10 24l-59 46v2h196v-418z" />
    <glyph glyph-name="paragraph" unicode="&#xb6;" horiz-adv-x="605" 
d="M441 -250l-19.001 0.000976562v250h-69c-38.667 0 -74.167 5.66699 -106.5 17s-62.333 29.666 -90 54.999s-49.334 61.166 -65.001 107.499s-23.5 101.5 -23.5 165.5s7.83301 119.833 23.5 167.5s37.334 84.834 65.001 111.501s57.834 46.5 90.501 59.5s68 19.5 106 19.5
h177v-18h-89v-669h89v-16h-89v-250zM349.999 16.001h72v669h-72v-669z" />
    <glyph glyph-name="periodcentered" unicode="&#xb7;" horiz-adv-x="235" 
d="M47 424c0 20 6.83301 36.833 20.5 50.5s30.167 20.5 49.5 20.5c20 0 36.833 -6.66699 50.5 -20s20.5 -30.333 20.5 -51c0 -19.333 -6.83301 -35.666 -20.5 -48.999s-30.5 -20 -50.5 -20c-19.333 0 -35.833 6.66699 -49.5 20s-20.5 29.666 -20.5 48.999z" />
    <glyph glyph-name="cedilla" unicode="&#xb8;" horiz-adv-x="363" 
d="M288 -142c0 -27.333 -10.001 -49.834 -30.001 -67.501s-47.333 -26.5 -82 -26.5c-32 0 -59 8.5 -81 25.5s-34 38.167 -36 63.5l2 1c5.33301 -18 15.833 -31.833 31.5 -41.5s31.834 -14.5 48.501 -14.5c18 0 33.333 5.16699 46 15.5s19 24.166 19 41.499
c0 18 -6.16699 32.167 -18.5 42.5s-28.166 15.5 -47.499 15.5c-14 0 -26.333 -2 -37 -6l-1 2l70 90h2l-9 -61c33.333 6.66699 62.166 1.83398 86.499 -14.499s36.5 -38.166 36.5 -65.499z" />
    <glyph glyph-name="onesuperior" unicode="&#xb9;" horiz-adv-x="252" 
d="M172 716v-252c0 -5.33301 2.33301 -9 7 -11l65 -32v-1h-221v1l65 32c4.66699 2 7 5.66699 7 11v186c0 4.66699 -2.33301 7.66699 -7 9l-71 22v2z" />
    <glyph glyph-name="ordmasculine" unicode="&#xba;" horiz-adv-x="410" 
d="M205 697c-22 0 -38.833 -11.667 -50.5 -35s-17.5 -64 -17.5 -122c0 -58.667 5.83301 -99.667 17.5 -123s28.5 -35 50.5 -35s38.833 11.667 50.5 35s17.5 64 17.5 122c0 58.667 -5.83301 99.667 -17.5 123s-28.5 35 -50.5 35zM205 365
c-50.667 0 -90.832 15.166 -120.499 45.499s-44.5 73.5 -44.5 129.5c0 55.333 14.833 98 44.5 128s69.834 45 120.501 45c51.333 0 91.666 -15 120.999 -45s44 -73 44 -129c0 -55.333 -14.833 -98.166 -44.5 -128.499s-69.834 -45.5 -120.501 -45.5z" />
    <glyph glyph-name="guillemotright" unicode="&#xbb;" horiz-adv-x="449" 
d="M242 250l-212 -213l-1 1l95 213l-95 213l1 1l212 -213v-2zM419 250l-212 -213l-1 1l95 213l-95 213l1 1l212 -213v-2z" />
    <glyph glyph-name="onequarter" unicode="&#xbc;" horiz-adv-x="485" 
d="M60 360h365v-18h-365v18zM184 0v0.999023l45 27c4 2.66699 6 6.33398 6 11.001v33h-143v2l158 215h58v-202h15c6.66699 0 11.667 2.66699 15 8l47 82h2l-7 -105h-72v-33c0 -4 2.33301 -7.66699 7 -11l42 -27v-1h-173zM122 86.999h113v154zM292 452.999l65 -32v-1h-221v1
l65 32c4.66699 2 7 5.66699 7 11v186c0 4.66699 -2.33301 7.66699 -7 9l-71 22v2l155 33v-252c0 -5.33301 2.33301 -9 7 -11z" />
    <glyph glyph-name="onehalf" unicode="&#xbd;" horiz-adv-x="485" 
d="M425 360v-18h-365v18h365zM357 421v-1h-221v1l65 32c4.66699 2 7 5.66699 7 11v186c0 4.66699 -2.33301 7.66699 -7 9l-71 22v2l155 33v-252c0 -5.33301 2.33301 -9 7 -11zM366 102l-13.999 -102h-240v2c36 32 68 62 96 90c48.667 47.333 73 88.333 73 123
c0 42 -18 63 -54 63h-12c-6 0 -10 -2.66699 -12 -8l-41 -92h-2l-40 93c39.333 14.667 78.666 22 117.999 22s70 -7.16699 92 -21.5s33 -34.5 33 -60.5c0 -30 -12.833 -55.333 -38.5 -76s-69.167 -45 -130.5 -73v-2h105c14 0 23.667 2.66699 29 8l36 34h2z" />
    <glyph glyph-name="threequarters" unicode="&#xbe;" horiz-adv-x="485" 
d="M60 342v18h365v-18h-365zM308 39c0 -4 2.33301 -7.66797 7 -11.001l42 -27v-1h-173v1l45 27c4 2.66699 6 6.33398 6 11.001v33h-143v2l158 215h58v-202h15c6.66699 0 11.667 2.66699 15 8l47 82h2l-7 -105h-72v-33zM122 86.999h113v154zM370 501.999
c0 -24.667 -12.168 -45.167 -36.501 -61.5s-58.166 -24.5 -101.499 -24.5c-45.333 0 -84.333 6 -117 18l50 97h2l28 -91c1.33301 -4 4.66602 -6.33301 9.99902 -7c4 -1.33301 11.667 -2 23 -2c18 0 32.833 6.16699 44.5 18.5s17.5 29.5 17.5 51.5
c0 42 -27.333 64.333 -82 67v2c48.667 8 73 33 73 75c0 35.333 -15.333 53 -46 53h-18c-5.33301 -0.666992 -9.33301 -3.33398 -12 -8.00098l-41 -90h-2l-40 91c37.333 14.667 77.333 22 120 22c78 0 117 -23.333 117 -70c0 -35.333 -26.333 -58.333 -79 -69v-2
c28.667 -1.33301 50.834 -8.16602 66.501 -20.499s23.5 -28.833 23.5 -49.5z" />
    <glyph glyph-name="questiondown" unicode="&#xbf;" horiz-adv-x="409" 
d="M230 269c48 -20 72.002 -50.668 72.002 -92.001c0 -12.667 -3.33301 -25.667 -10 -39s-13.5 -24.333 -20.5 -33s-17.167 -20.334 -30.5 -35.001c-28 -28 -47 -48 -57 -60c-32 -34 -48 -70.667 -48 -110c0 -31.333 9.66699 -56.833 29 -76.5s43.666 -29.5 72.999 -29.5
c10 0 19.667 0.666992 29 2s15.166 2.83301 17.499 4.5s4.83301 5.83398 7.5 12.501l75 177h2l64 -163c-69.333 -34 -142 -51 -218 -51c-63.333 0 -113.833 13.667 -151.5 41s-56.5 64.666 -56.5 111.999c0 46 25 92 75 138l49 42c28.667 24.667 44.667 38.334 48 41.001
c18.667 18 32 33.667 40 47s12 29.333 12 48c0 4.66699 -0.666992 12.334 -2 23.001zM312.002 428.999c0 -20 -6.83301 -36.833 -20.5 -50.5s-30.167 -20.5 -49.5 -20.5c-20 0 -36.833 6.66699 -50.5 20s-20.5 30.333 -20.5 51c0 19.333 6.83301 35.5 20.5 48.5
s30.5 19.5 50.5 19.5c19.333 0 35.833 -6.5 49.5 -19.5s20.5 -29.167 20.5 -48.5z" />
    <glyph glyph-name="Agrave" unicode="&#xc0;" horiz-adv-x="637" 
d="M575 95c5.33301 -16 12.667 -29.335 22 -40.002l42 -53v-2h-270v2l60 60c6 6 7.33301 14.667 4 26l-52 158h-229l-38 -115c-2 -7.33301 -2.66699 -12.666 -2 -15.999s4 -8 10 -14l91 -99v-2h-230v2l87 95c12.667 14 21 27 25 39l154 465c3.33301 10 4.5 16.833 3.5 20.5
s-4.5 8.83398 -10.5 15.501l-57 64v2h191zM268.001 593.998l-110 -329h217zM145.001 914.998h139l84 -163l-2 -2l-221 163v2z" />
    <glyph glyph-name="Aacute" unicode="&#xc1;" horiz-adv-x="637" 
d="M575 95c5.33301 -16 12.667 -29.335 22 -40.002l42 -53v-2h-270v2l60 60c6 6 7.33301 14.667 4 26l-52 158h-229l-38 -115c-2 -7.33301 -2.66699 -12.666 -2 -15.999s4 -8 10 -14l91 -99v-2h-230v2l87 95c12.667 14 21 27 25 39l154 465c3.33301 10 4.5 16.833 3.5 20.5
s-4.5 8.83398 -10.5 15.501l-57 64v2h191zM268.001 593.998l-110 -329h217zM325.001 914.998h138v-2l-221 -163l-2 2z" />
    <glyph glyph-name="Acircumflex" unicode="&#xc2;" horiz-adv-x="637" 
d="M575 95c5.33301 -16 12.667 -29.335 22 -40.002l42 -53v-2h-270v2l60 60c6 6 7.33301 14.667 4 26l-52 158h-229l-38 -115c-2 -7.33301 -2.66699 -12.666 -2 -15.999s4 -8 10 -14l91 -99v-2h-230v2l87 95c12.667 14 21 27 25 39l154 465c3.33301 10 4.5 16.833 3.5 20.5
s-4.5 8.83398 -10.5 15.501l-57 64v2h191zM268.001 593.998l-110 -329h217zM455.001 749.998l-1 -2l-151 72l-151 -72l-1 2l151 173h2z" />
    <glyph glyph-name="Atilde" unicode="&#xc3;" horiz-adv-x="637" 
d="M575 95c5.33301 -16 12.667 -29.335 22 -40.002l42 -53v-2h-270v2l60 60c6 6 7.33301 14.667 4 26l-52 158h-229l-38 -115c-2 -7.33301 -2.66699 -12.666 -2 -15.999s4 -8 10 -14l91 -99v-2h-230v2l87 95c12.667 14 21 27 25 39l154 465c3.33301 10 4.5 16.833 3.5 20.5
s-4.5 8.83398 -10.5 15.501l-57 64v2h191zM268.001 593.998l-110 -329h217zM365.001 773.998c-16 0 -39.166 7.83301 -69.499 23.5s-52.5 23.5 -66.5 23.5c-28.667 0 -49.334 -16 -62.001 -48h-2c0 6.66699 0.666992 16.667 2 30c3.33301 27.333 11.666 48.833 24.999 64.5
s30.666 23.5 51.999 23.5c16 0 39 -8 69 -24s52 -24 66 -24c30 0 51 16 63 48h2c0 -8 -0.666992 -18.667 -2 -32c-3.33301 -26 -11.666 -46.667 -24.999 -62s-30.666 -23 -51.999 -23z" />
    <glyph glyph-name="Adieresis" unicode="&#xc4;" horiz-adv-x="637" 
d="M575 95c5.33301 -16 12.667 -29.335 22 -40.002l42 -53v-2h-270v2l60 60c6 6 7.33301 14.667 4 26l-52 158h-229l-38 -115c-2 -7.33301 -2.66699 -12.666 -2 -15.999s4 -8 10 -14l91 -99v-2h-230v2l87 95c12.667 14 21 27 25 39l154 465c3.33301 10 4.5 16.833 3.5 20.5
s-4.5 8.83398 -10.5 15.501l-57 64v2h191zM268.001 593.998l-110 -329h217zM154.001 833.998c0 16.667 5.83301 30.834 17.5 42.501s25.834 17.5 42.501 17.5c16 0 29.833 -5.83301 41.5 -17.5s17.5 -25.834 17.5 -42.501c0 -16 -5.83301 -29.667 -17.5 -41
s-25.5 -17 -41.5 -17c-16.667 0 -30.834 5.66699 -42.501 17s-17.5 25 -17.5 41zM334.001 833.998c0 16.667 5.66699 30.834 17 42.501s25 17.5 41 17.5c17.333 0 31.833 -5.83301 43.5 -17.5s17.5 -25.834 17.5 -42.501c0 -16 -6 -29.667 -18 -41s-26.333 -17 -43 -17
c-16 0 -29.667 5.66699 -41 17s-17 25 -17 41z" />
    <glyph glyph-name="Aring" unicode="&#xc5;" horiz-adv-x="637" 
d="M575 95c5.33301 -16 12.667 -29.335 22 -40.002l42 -53v-2h-270v2l60 60c6 6 7.33301 14.667 4 26l-52 158h-229l-38 -115c-2 -7.33301 -2.66699 -12.666 -2 -15.999s4 -8 10 -14l91 -99v-2h-230v2l87 95c12.667 14 21 27 25 39l154 465c3.33301 10 4.5 16.833 3.5 20.5
s-4.5 8.83398 -10.5 15.501l-57 64v2h191zM268.001 593.998l-110 -329h217zM392.001 837.998c0 -24.667 -8.50098 -45.167 -25.501 -61.5s-37.833 -24.5 -62.5 -24.5c-24 0 -44.5 8.33301 -61.5 25s-25.5 37 -25.5 61c0 24.667 8.33301 45.334 25 62.001
s37.334 25 62.001 25s45.5 -8.33301 62.5 -25s25.5 -37.334 25.5 -62.001zM372 837.998c0 19.333 -6.5 35.5 -19.5 48.5s-29.167 19.5 -48.5 19.5s-35.333 -6.5 -48 -19.5s-19 -29.167 -19 -48.5c0 -18.667 6.5 -34.5 19.5 -47.5s28.833 -19.5 47.5 -19.5
c19.333 0 35.5 6.33301 48.5 19s19.5 28.667 19.5 48z" />
    <glyph glyph-name="AE" unicode="&#xc6;" horiz-adv-x="927" 
d="M669 365c10 0.666992 18.999 6.33691 26.999 17.0039l77 96h2v-244h-2l-77 97c-8.66699 10.667 -17.667 16 -27 16h-98v-307c0 -8.66699 1 -14.334 3 -17.001s6.66699 -4 14 -4h149c16 0 26.667 4.33301 32 13l105 196h3v-228h-533v2l77 54
c8 5.33301 12 12.666 12 21.999v167h-235l-66 -109c-6.66699 -10.667 -10 -18.334 -10 -23.001s3.33301 -11 10 -19l77 -92v-2h-235v2l92 86c22 20.667 35.333 34.667 40 42l288 472c5.33301 10 7.83301 16.5 7.5 19.5s-3.16602 7.5 -8.49902 13.5l-65 66v2h539v-228h-2
l-105 192c-6 11.333 -15.333 17 -28 17h-144c-7.33301 0 -12 -1.33301 -14 -4s-3 -8.33398 -3 -17.001v-298h98zM432.999 264.003v365l-223 -365h223z" />
    <glyph glyph-name="Ccedilla" unicode="&#xc7;" horiz-adv-x="612" 
d="M469 -142c0 -27.333 -9.99805 -49.8359 -29.998 -67.5029s-47.333 -26.5 -82 -26.5c-32 0 -59 8.5 -81 25.5s-34 38.167 -36 63.5l2 1c5.33301 -18 15.833 -31.833 31.5 -41.5s31.834 -14.5 48.501 -14.5c18 0 33.333 5.16699 46 15.5s19 24.166 19 41.499
c0 18 -6.16699 32.167 -18.5 42.5s-28.166 15.5 -47.499 15.5c-14 0 -26.333 -2 -37 -6l-1 2l63 82c-106 4.66699 -185 38.834 -237 102.501s-78 148.834 -78 255.501c0 110.667 29.167 199 87.5 265s139.833 99 244.5 99c68.667 0 134.667 -7 198 -21v-226h-2l-124 210
c-4.66699 7.33301 -8.83398 12 -12.501 14s-10.167 3.66699 -19.5 5c-6.66699 0.666992 -16.334 1 -29.001 1c-122.667 0 -184 -115 -184 -345c0 -229.333 62.667 -344 188 -344c12 0 20.333 0.333008 25 1c14 1.33301 24.333 7 31 17l125 217h2v-235
c-56.667 -11.333 -119.334 -17 -188.001 -17c-2.66699 0 -6 0.166992 -10 0.5s-7 0.5 -9 0.5l-8 -53c33.333 6.66699 62.166 1.83398 86.499 -14.499s36.5 -38.166 36.5 -65.499z" />
    <glyph glyph-name="Egrave" unicode="&#xc8;" horiz-adv-x="599" 
d="M549 0l-532 0.00292969v2l77 54c7.33301 5.33301 11 12.666 11 21.999v547c0 9.33301 -3.66699 16.666 -11 21.999l-77 54v2h523v-228h-2l-105 192c-6 11.333 -15.333 17 -28 17h-145c-6.66699 0 -11 -1.33301 -13 -4s-3 -8.33398 -3 -17.001v-298h98
c10 0.666992 19 6.33398 27 17.001l76 96h2v-244h-2l-76 97c-8.66699 10.667 -18 16 -28 16h-97v-307c0 -8.66699 1 -14.334 3 -17.001s6.33301 -4 13 -4h150c16 0 26.667 4.33301 32 13l105 196h2v-228zM155 915.003h139l84 -163l-2 -2l-221 163v2z" />
    <glyph glyph-name="Eacute" unicode="&#xc9;" horiz-adv-x="599" 
d="M335 915h138v-2l-221 -163l-2 2zM549 0l-532 0.00292969v2l77 54c7.33301 5.33301 11 12.666 11 21.999v547c0 9.33301 -3.66699 16.666 -11 21.999l-77 54v2h523v-228h-2l-105 192c-6 11.333 -15.333 17 -28 17h-145c-6.66699 0 -11 -1.33301 -13 -4
s-3 -8.33398 -3 -17.001v-298h98c10 0.666992 19 6.33398 27 17.001l76 96h2v-244h-2l-76 97c-8.66699 10.667 -18 16 -28 16h-97v-307c0 -8.66699 1 -14.334 3 -17.001s6.33301 -4 13 -4h150c16 0 26.667 4.33301 32 13l105 196h2v-228z" />
    <glyph glyph-name="Ecircumflex" unicode="&#xca;" horiz-adv-x="599" 
d="M465 750l-1 -2l-151 72l-151 -72l-1 2l151 173h2zM549 0l-532 0.00292969v2l77 54c7.33301 5.33301 11 12.666 11 21.999v547c0 9.33301 -3.66699 16.666 -11 21.999l-77 54v2h523v-228h-2l-105 192c-6 11.333 -15.333 17 -28 17h-145c-6.66699 0 -11 -1.33301 -13 -4
s-3 -8.33398 -3 -17.001v-298h98c10 0.666992 19 6.33398 27 17.001l76 96h2v-244h-2l-76 97c-8.66699 10.667 -18 16 -28 16h-97v-307c0 -8.66699 1 -14.334 3 -17.001s6.33301 -4 13 -4h150c16 0 26.667 4.33301 32 13l105 196h2v-228z" />
    <glyph glyph-name="Edieresis" unicode="&#xcb;" horiz-adv-x="599" 
d="M163 834c0 16.667 5.83301 30.834 17.5 42.501s25.834 17.5 42.501 17.5c16 0 29.833 -5.83301 41.5 -17.5s17.5 -25.834 17.5 -42.501c0 -16 -5.83301 -29.667 -17.5 -41s-25.5 -17 -41.5 -17c-16.667 0 -30.834 5.66699 -42.501 17s-17.5 25 -17.5 41zM343 834
c0 16.667 5.66699 30.834 17 42.501s25 17.5 41 17.5c17.333 0 31.833 -5.83301 43.5 -17.5s17.5 -25.834 17.5 -42.501c0 -16 -6 -29.667 -18 -41s-26.333 -17 -43 -17c-16 0 -29.667 5.66699 -41 17s-17 25 -17 41zM549 0l-532 0.00292969v2l77 54
c7.33301 5.33301 11 12.666 11 21.999v547c0 9.33301 -3.66699 16.666 -11 21.999l-77 54v2h523v-228h-2l-105 192c-6 11.333 -15.333 17 -28 17h-145c-6.66699 0 -11 -1.33301 -13 -4s-3 -8.33398 -3 -17.001v-298h98c10 0.666992 19 6.33398 27 17.001l76 96h2v-244h-2
l-76 97c-8.66699 10.667 -18 16 -28 16h-97v-307c0 -8.66699 1 -14.334 3 -17.001s6.33301 -4 13 -4h150c16 0 26.667 4.33301 32 13l105 196h2v-228z" />
    <glyph glyph-name="Igrave" unicode="&#xcc;" horiz-adv-x="350" 
d="M244 625v-546.999c0 -9.33301 4 -16.666 12 -21.999l77 -54v-2h-316v2l77 54c7.33301 5.33301 11 12.666 11 21.999v547c0 9.33301 -3.66699 16.666 -11 21.999l-77 54v2h316v-2l-77 -54c-8 -6 -12 -13.333 -12 -22zM17 915.001h139l84 -163l-2 -2l-221 163v2z" />
    <glyph glyph-name="Iacute" unicode="&#xcd;" horiz-adv-x="350" 
d="M244 625v-546.999c0 -9.33301 4 -16.666 12 -21.999l77 -54v-2h-316v2l77 54c7.33301 5.33301 11 12.666 11 21.999v547c0 9.33301 -3.66699 16.666 -11 21.999l-77 54v2h316v-2l-77 -54c-8 -6 -12 -13.333 -12 -22zM196 915.001h138v-2l-221 -163l-2 2z" />
    <glyph glyph-name="Icircumflex" unicode="&#xce;" horiz-adv-x="350" 
d="M244 625v-546.999c0 -9.33301 4 -16.666 12 -21.999l77 -54v-2h-316v2l77 54c7.33301 5.33301 11 12.666 11 21.999v547c0 9.33301 -3.66699 16.666 -11 21.999l-77 54v2h316v-2l-77 -54c-8 -6 -12 -13.333 -12 -22zM327 750.001l-1 -2l-151 72l-151 -72l-1 2l151 173h2z
" />
    <glyph glyph-name="Idieresis" unicode="&#xcf;" horiz-adv-x="350" 
d="M244 625v-546.999c0 -9.33301 4 -16.666 12 -21.999l77 -54v-2h-316v2l77 54c7.33301 5.33301 11 12.666 11 21.999v547c0 9.33301 -3.66699 16.666 -11 21.999l-77 54v2h316v-2l-77 -54c-8 -6 -12 -13.333 -12 -22zM25 834.001c0 16.667 5.83301 30.834 17.5 42.501
s25.834 17.5 42.501 17.5c16 0 29.833 -5.83301 41.5 -17.5s17.5 -25.834 17.5 -42.501c0 -16 -5.83301 -29.667 -17.5 -41s-25.5 -17 -41.5 -17c-16.667 0 -30.834 5.66699 -42.501 17s-17.5 25 -17.5 41zM205 834.001c0 16.667 5.66699 30.834 17 42.501s25 17.5 41 17.5
c17.333 0 31.833 -5.83301 43.5 -17.5s17.5 -25.834 17.5 -42.501c0 -16 -6 -29.667 -18 -41s-26.333 -17 -43 -17c-16 0 -29.667 5.66699 -41 17s-17 25 -17 41z" />
    <glyph glyph-name="Eth" unicode="&#xd0;" horiz-adv-x="702" 
d="M24 348v18h89v256c0 12 -3.66699 20.667 -11 26l-79 53v2h312c110.667 0 194.5 -29.833 251.5 -89.5s85.5 -142.5 85.5 -248.5c0 -112 -30 -200.833 -90 -266.5s-145.333 -98.5 -256 -98.5h-303v2l79 53c7.33301 5.33301 11 14.333 11 27v266h-89zM311 684h-41
c-6.66699 0 -11.334 -1.16699 -14.001 -3.5s-4 -7.5 -4 -15.5v-299h117v-18h-117v-307c0 -10 1.33301 -16.167 4 -18.5s9.33398 -3.5 20.001 -3.5h21c144 0 216 112 216 336c0 219.333 -67.333 329 -202 329z" />
    <glyph glyph-name="Ntilde" unicode="&#xd1;" horiz-adv-x="693" 
d="M18 703l202 0.000976562l350 -560v429c0 11.333 -4.66699 21.666 -14 30.999l-98 98v2h244v-2l-97 -98c-10 -10.667 -15 -21 -15 -31v-572h-93l-357 570v-439c0 -11.333 5 -21.666 15 -30.999l98 -98v-2h-245v2l98 98c9.33301 9.33301 14 19.666 14 30.999v449
c0 14 -3.66699 25 -11 33l-91 88v2zM412 774.001c-16 0 -39.166 7.83301 -69.499 23.5s-52.5 23.5 -66.5 23.5c-28.667 0 -49.334 -16 -62.001 -48h-2c0 6.66699 0.666992 16.667 2 30c3.33301 27.333 11.666 48.833 24.999 64.5s30.666 23.5 51.999 23.5c16 0 39 -8 69 -24
s52 -24 66 -24c30 0 51 16 63 48h2c0 -8 -0.666992 -18.667 -2 -32c-3.33301 -26 -11.666 -46.667 -24.999 -62s-30.666 -23 -51.999 -23z" />
    <glyph glyph-name="Ograve" unicode="&#xd2;" horiz-adv-x="708" 
d="M355 7c108.667 0 163 115 163 345c0 229.333 -54.333 344 -163 344c-109.333 0 -164 -114.667 -164 -344c0 -228.667 54.667 -343.667 164 -345zM355 713c102 0 181 -31.5 237 -94.5s84 -151.833 84 -266.5c0 -115.333 -28 -204.5 -84 -267.5s-135 -94.5 -237 -94.5
s-181.333 31.5 -238 94.5s-85 152.167 -85 267.5c0 114.667 28.333 203.5 85 266.5s136 94.5 238 94.5zM196 915h139l84 -163l-2 -2l-221 163v2z" />
    <glyph glyph-name="Oacute" unicode="&#xd3;" horiz-adv-x="708" 
d="M375 915h138v-2l-221 -163l-2 2zM355 7c108.667 0 163 115 163 345c0 229.333 -54.333 344 -163 344c-109.333 0 -164 -114.667 -164 -344c0 -228.667 54.667 -343.667 164 -345zM355 713c102 0 181 -31.5 237 -94.5s84 -151.833 84 -266.5
c0 -115.333 -28 -204.5 -84 -267.5s-135 -94.5 -237 -94.5s-181.333 31.5 -238 94.5s-85 152.167 -85 267.5c0 114.667 28.333 203.5 85 266.5s136 94.5 238 94.5z" />
    <glyph glyph-name="Ocircumflex" unicode="&#xd4;" horiz-adv-x="708" 
d="M506 750l-1 -2l-151 72l-151 -72l-1 2l151 173h2zM355 7c108.667 0 163 115 163 345c0 229.333 -54.333 344 -163 344c-109.333 0 -164 -114.667 -164 -344c0 -228.667 54.667 -343.667 164 -345zM355 713c102 0 181 -31.5 237 -94.5s84 -151.833 84 -266.5
c0 -115.333 -28 -204.5 -84 -267.5s-135 -94.5 -237 -94.5s-181.333 31.5 -238 94.5s-85 152.167 -85 267.5c0 114.667 28.333 203.5 85 266.5s136 94.5 238 94.5z" />
    <glyph glyph-name="Otilde" unicode="&#xd5;" horiz-adv-x="708" 
d="M355 7c108.667 0 163 115 163 345c0 229.333 -54.333 344 -163 344c-109.333 0 -164 -114.667 -164 -344c0 -228.667 54.667 -343.667 164 -345zM355 713c102 0 181 -31.5 237 -94.5s84 -151.833 84 -266.5c0 -115.333 -28 -204.5 -84 -267.5s-135 -94.5 -237 -94.5
s-181.333 31.5 -238 94.5s-85 152.167 -85 267.5c0 114.667 28.333 203.5 85 266.5s136 94.5 238 94.5zM415 774c-16 0 -39.166 7.83301 -69.499 23.5s-52.5 23.5 -66.5 23.5c-28.667 0 -49.334 -16 -62.001 -48h-2c0 6.66699 0.666992 16.667 2 30
c3.33301 27.333 11.666 48.833 24.999 64.5s30.666 23.5 51.999 23.5c16 0 39 -8 69 -24s52 -24 66 -24c30 0 51 16 63 48h2c0 -8 -0.666992 -18.667 -2 -32c-3.33301 -26 -11.666 -46.667 -24.999 -62s-30.666 -23 -51.999 -23z" />
    <glyph glyph-name="Odieresis" unicode="&#xd6;" horiz-adv-x="708" 
d="M204 834c0 16.667 5.83301 30.834 17.5 42.501s25.834 17.5 42.501 17.5c16 0 29.833 -5.83301 41.5 -17.5s17.5 -25.834 17.5 -42.501c0 -16 -5.83301 -29.667 -17.5 -41s-25.5 -17 -41.5 -17c-16.667 0 -30.834 5.66699 -42.501 17s-17.5 25 -17.5 41zM384 834
c0 16.667 5.66699 30.834 17 42.501s25 17.5 41 17.5c17.333 0 31.833 -5.83301 43.5 -17.5s17.5 -25.834 17.5 -42.501c0 -16 -6 -29.667 -18 -41s-26.333 -17 -43 -17c-16 0 -29.667 5.66699 -41 17s-17 25 -17 41zM355 7c108.667 0 163 115 163 345
c0 229.333 -54.333 344 -163 344c-109.333 0 -164 -114.667 -164 -344c0 -228.667 54.667 -343.667 164 -345zM355 713c102 0 181 -31.5 237 -94.5s84 -151.833 84 -266.5c0 -115.333 -28 -204.5 -84 -267.5s-135 -94.5 -237 -94.5s-181.333 31.5 -238 94.5
s-85 152.167 -85 267.5c0 114.667 28.333 203.5 85 266.5s136 94.5 238 94.5z" />
    <glyph glyph-name="multiply" unicode="&#xd7;" horiz-adv-x="540" 
d="M121 161l-13 13l149 149l-149 149l13 13l149 -149l149 149l13 -13l-149 -149l149 -149l-13 -13l-149 149z" />
    <glyph glyph-name="Oslash" unicode="&#xd8;" horiz-adv-x="708" 
d="M355 713c54 0 101.667 -9.00098 143 -27.001l42 94l17 -8l-42 -94c107.333 -56 161 -164.667 161 -326c0 -115.333 -28 -204.5 -84 -267.5s-135 -94.5 -237 -94.5c-48.667 0 -93 7.66699 -133 23l-42 -95l-17 8l41 94c-114.667 52.667 -172 163.334 -172 332.001
c0 114.667 28.333 203.5 85 266.5s136 94.5 238 94.5zM191 351.999c0 -118 14.667 -205.667 44 -263l235 533c-28 49.333 -66.333 74 -115 74c-109.333 0 -164 -114.667 -164 -344zM355 6.99902c108.667 0 163 114.999 163 344.999c0 106.667 -12.333 189.334 -37 248.001
l-235 -531c26.667 -41.333 63 -62 109 -62z" />
    <glyph glyph-name="Ugrave" unicode="&#xd9;" horiz-adv-x="662" 
d="M342 -10c-90 0 -154.833 19.166 -194.5 57.499s-59.5 95.833 -59.5 172.5v403c0 8.66699 -4 16 -12 22l-70 56v2h307v-2l-75 -56c-7.33301 -5.33301 -11 -12.666 -11 -21.999v-386c0 -143.333 53.667 -215 161 -215c50.667 0 90 19.5 118 58.5s42 95.5 42 169.5v322
c0 12 -5 22.333 -15 31l-97 98v2h243v-2l-97 -98c-9.33301 -8.66699 -14 -19 -14 -31v-321c0 -174 -75.333 -261 -226 -261zM210 914.999h139l84 -163l-2 -2l-221 163v2z" />
    <glyph glyph-name="Uacute" unicode="&#xda;" horiz-adv-x="662" 
d="M389 915h138v-2l-221 -163l-2 2zM342 -10c-90 0 -154.833 19.166 -194.5 57.499s-59.5 95.833 -59.5 172.5v403c0 8.66699 -4 16 -12 22l-70 56v2h307v-2l-75 -56c-7.33301 -5.33301 -11 -12.666 -11 -21.999v-386c0 -143.333 53.667 -215 161 -215
c50.667 0 90 19.5 118 58.5s42 95.5 42 169.5v322c0 12 -5 22.333 -15 31l-97 98v2h243v-2l-97 -98c-9.33301 -8.66699 -14 -19 -14 -31v-321c0 -174 -75.333 -261 -226 -261z" />
    <glyph glyph-name="Ucircumflex" unicode="&#xdb;" horiz-adv-x="662" 
d="M520 750l-1 -2l-151 72l-151 -72l-1 2l151 173h2zM342 -10c-90 0 -154.833 19.166 -194.5 57.499s-59.5 95.833 -59.5 172.5v403c0 8.66699 -4 16 -12 22l-70 56v2h307v-2l-75 -56c-7.33301 -5.33301 -11 -12.666 -11 -21.999v-386c0 -143.333 53.667 -215 161 -215
c50.667 0 90 19.5 118 58.5s42 95.5 42 169.5v322c0 12 -5 22.333 -15 31l-97 98v2h243v-2l-97 -98c-9.33301 -8.66699 -14 -19 -14 -31v-321c0 -174 -75.333 -261 -226 -261z" />
    <glyph glyph-name="Udieresis" unicode="&#xdc;" horiz-adv-x="662" 
d="M218 834c0 16.667 5.83301 30.834 17.5 42.501s25.834 17.5 42.501 17.5c16 0 29.833 -5.83301 41.5 -17.5s17.5 -25.834 17.5 -42.501c0 -16 -5.83301 -29.667 -17.5 -41s-25.5 -17 -41.5 -17c-16.667 0 -30.834 5.66699 -42.501 17s-17.5 25 -17.5 41zM398 834
c0 16.667 5.66699 30.834 17 42.501s25 17.5 41 17.5c17.333 0 31.833 -5.83301 43.5 -17.5s17.5 -25.834 17.5 -42.501c0 -16 -6 -29.667 -18 -41s-26.333 -17 -43 -17c-16 0 -29.667 5.66699 -41 17s-17 25 -17 41zM342 -10c-90 0 -154.833 19.166 -194.5 57.499
s-59.5 95.833 -59.5 172.5v403c0 8.66699 -4 16 -12 22l-70 56v2h307v-2l-75 -56c-7.33301 -5.33301 -11 -12.666 -11 -21.999v-386c0 -143.333 53.667 -215 161 -215c50.667 0 90 19.5 118 58.5s42 95.5 42 169.5v322c0 12 -5 22.333 -15 31l-97 98v2h243v-2l-97 -98
c-9.33301 -8.66699 -14 -19 -14 -31v-321c0 -174 -75.333 -261 -226 -261z" />
    <glyph glyph-name="Yacute" unicode="&#xdd;" horiz-adv-x="616" 
d="M382 278l0.000976562 -196.999c0 -6.66699 0.666992 -11.167 2 -13.5s4.66602 -5.16602 9.99902 -8.49902l83 -57v-2h-329v2l84 57c7.33301 5.33301 11 12.666 11 21.999v183c0 10.667 -2.33301 20 -7 28l-171 317c-6 11.333 -15 23.666 -27 36.999l-51 55v2h294v-2
l-62 -59c-6.66699 -6.66699 -8 -13.667 -4 -21l157 -298l131 256c5.33301 10 4.33301 19 -3 27l-86 95v2h238v-2l-100 -93c-12.667 -11.333 -23 -24 -31 -38l-131 -255c-5.33301 -10 -8 -22.333 -8 -37zM360.001 915.001h138v-2l-221 -163l-2 2z" />
    <glyph glyph-name="Thorn" unicode="&#xde;" horiz-adv-x="616" 
d="M595 372c0 -70 -25.5 -124.165 -76.5 -162.498s-116.833 -57.5 -197.5 -57.5h-77v-69c0 -10 4 -17.667 12 -23l100 -58v-2h-339v2l77 54c7.33301 5.33301 11 13 11 23v546c0 9.33301 -3.66699 16.666 -11 21.999l-77 54v2h227v-118h95c76 0 137.667 -17.333 185 -52
s71 -88.334 71 -161.001zM244 171.002h60c42 0 76.667 16.667 104 50s41 83 41 149c0 64 -13 112.667 -39 146s-61 50 -105 50h-61v-395z" />
    <glyph glyph-name="germandbls" unicode="&#xdf;" horiz-adv-x="608" 
d="M596 149c0 -49.333 -18.3359 -87.832 -55.0029 -115.499s-82 -41.5 -136 -41.5c-59.333 0 -114.666 11.333 -165.999 34l55 140h2l59 -143c2.66699 -6.66699 9 -11 19 -13c6.66699 -1.33301 17.667 -2 33 -2c26 0 46.333 8.5 61 25.5s22 37.5 22 61.5
c0 19.333 -6.16699 35.5 -18.5 48.5s-30.166 25.833 -53.499 38.5l-74 38c-57.333 29.333 -86 65.333 -86 108c0 20.667 5 38.167 15 52.5s27 31.166 51 50.499l39 33c33.333 27.333 50 69.333 50 126c0 31.333 -9.16699 57 -27.5 77s-42.833 30 -73.5 30
c-65.333 0 -98 -51 -98 -153v-544h-195v2l59 43c6.66699 4.66699 10 12 10 22v405h-65v18h65c0.666992 82 19.5 139.667 56.5 173s92.167 50 165.5 50c52.667 0 97.834 -10.833 135.501 -32.5s56.5 -51.5 56.5 -89.5c0 -36.667 -24.333 -70.667 -73 -102
c-10 -5.33301 -27.667 -17.333 -53 -36c-21.333 -16.667 -32 -34.667 -32 -54c0 -28 24.667 -54 74 -78l77 -38c32.667 -15.333 57.667 -33.5 75 -54.5s26 -47.5 26 -79.5z" />
    <glyph glyph-name="agrave" unicode="&#xe0;" horiz-adv-x="487" 
d="M297 246l1.99902 107.001v4c0 38 -7.66699 68.167 -23 90.5s-38.333 33.5 -69 33.5c-10.667 0 -17.5 -0.666992 -20.5 -2s-6.16699 -5 -9.5 -11l-70 -141h-2l-53 136c59.333 23.333 120.333 35 183 35c65.333 0 112 -13.667 140 -41
c31.333 -32.667 47 -86.334 47 -161.001v-18l-6 -159c-2 -42 9 -63 33 -63c14.667 0 24.667 8 30 24h2c0.666992 -10.667 -1.66602 -22 -6.99902 -34c-6.66699 -16 -17.5 -29 -32.5 -39s-32.833 -15 -53.5 -15c-26.667 0 -48.5 8.66699 -65.5 26
s-25.833 42.666 -26.5 75.999c-10 -31.333 -27.167 -56.166 -51.5 -74.499s-52.5 -27.5 -84.5 -27.5c-37.333 0 -68.833 12 -94.5 36s-38.5 57 -38.5 99c0 46.667 16.5 83.167 49.5 109.5s71.5 39.5 115.5 39.5c43.333 0 78.333 -10 105 -30zM247.999 247.001
c-30 0 -53.667 -10 -71 -30s-26 -45 -26 -75c0 -26.667 6.5 -47.667 19.5 -63s29.5 -23 49.5 -23c30.667 0 55.667 15.667 75 47l2 136c-14 5.33301 -30.333 8 -49 8zM78.999 703.001h139l84 -163l-2 -2l-221 163v2z" />
    <glyph glyph-name="aacute" unicode="&#xe1;" horiz-adv-x="487" 
d="M297 246l1.99902 107.001v4c0 38 -7.66699 68.167 -23 90.5s-38.333 33.5 -69 33.5c-10.667 0 -17.5 -0.666992 -20.5 -2s-6.16699 -5 -9.5 -11l-70 -141h-2l-53 136c59.333 23.333 120.333 35 183 35c65.333 0 112 -13.667 140 -41
c31.333 -32.667 47 -86.334 47 -161.001v-18l-6 -159c-2 -42 9 -63 33 -63c14.667 0 24.667 8 30 24h2c0.666992 -10.667 -1.66602 -22 -6.99902 -34c-6.66699 -16 -17.5 -29 -32.5 -39s-32.833 -15 -53.5 -15c-26.667 0 -48.5 8.66699 -65.5 26
s-25.833 42.666 -26.5 75.999c-10 -31.333 -27.167 -56.166 -51.5 -74.499s-52.5 -27.5 -84.5 -27.5c-37.333 0 -68.833 12 -94.5 36s-38.5 57 -38.5 99c0 46.667 16.5 83.167 49.5 109.5s71.5 39.5 115.5 39.5c43.333 0 78.333 -10 105 -30zM247.999 247.001
c-30 0 -53.667 -10 -71 -30s-26 -45 -26 -75c0 -26.667 6.5 -47.667 19.5 -63s29.5 -23 49.5 -23c30.667 0 55.667 15.667 75 47l2 136c-14 5.33301 -30.333 8 -49 8zM258.999 703.001h138v-2l-221 -163l-2 2z" />
    <glyph glyph-name="acircumflex" unicode="&#xe2;" horiz-adv-x="487" 
d="M297 246l1.99902 107.001v4c0 38 -7.66699 68.167 -23 90.5s-38.333 33.5 -69 33.5c-10.667 0 -17.5 -0.666992 -20.5 -2s-6.16699 -5 -9.5 -11l-70 -141h-2l-53 136c59.333 23.333 120.333 35 183 35c65.333 0 112 -13.667 140 -41
c31.333 -32.667 47 -86.334 47 -161.001v-18l-6 -159c-2 -42 9 -63 33 -63c14.667 0 24.667 8 30 24h2c0.666992 -10.667 -1.66602 -22 -6.99902 -34c-6.66699 -16 -17.5 -29 -32.5 -39s-32.833 -15 -53.5 -15c-26.667 0 -48.5 8.66699 -65.5 26
s-25.833 42.666 -26.5 75.999c-10 -31.333 -27.167 -56.166 -51.5 -74.499s-52.5 -27.5 -84.5 -27.5c-37.333 0 -68.833 12 -94.5 36s-38.5 57 -38.5 99c0 46.667 16.5 83.167 49.5 109.5s71.5 39.5 115.5 39.5c43.333 0 78.333 -10 105 -30zM247.999 247.001
c-30 0 -53.667 -10 -71 -30s-26 -45 -26 -75c0 -26.667 6.5 -47.667 19.5 -63s29.5 -23 49.5 -23c30.667 0 55.667 15.667 75 47l2 136c-14 5.33301 -30.333 8 -49 8zM388.999 538.001l-1 -2l-151 72l-151 -72l-1 2l151 173h2z" />
    <glyph glyph-name="atilde" unicode="&#xe3;" horiz-adv-x="487" 
d="M297 246l1.99902 107.001v4c0 38 -7.66699 68.167 -23 90.5s-38.333 33.5 -69 33.5c-10.667 0 -17.5 -0.666992 -20.5 -2s-6.16699 -5 -9.5 -11l-70 -141h-2l-53 136c59.333 23.333 120.333 35 183 35c65.333 0 112 -13.667 140 -41
c31.333 -32.667 47 -86.334 47 -161.001v-18l-6 -159c-2 -42 9 -63 33 -63c14.667 0 24.667 8 30 24h2c0.666992 -10.667 -1.66602 -22 -6.99902 -34c-6.66699 -16 -17.5 -29 -32.5 -39s-32.833 -15 -53.5 -15c-26.667 0 -48.5 8.66699 -65.5 26
s-25.833 42.666 -26.5 75.999c-10 -31.333 -27.167 -56.166 -51.5 -74.499s-52.5 -27.5 -84.5 -27.5c-37.333 0 -68.833 12 -94.5 36s-38.5 57 -38.5 99c0 46.667 16.5 83.167 49.5 109.5s71.5 39.5 115.5 39.5c43.333 0 78.333 -10 105 -30zM247.999 247.001
c-30 0 -53.667 -10 -71 -30s-26 -45 -26 -75c0 -26.667 6.5 -47.667 19.5 -63s29.5 -23 49.5 -23c30.667 0 55.667 15.667 75 47l2 136c-14 5.33301 -30.333 8 -49 8zM298.999 562.001c-16 0 -39.166 7.83301 -69.499 23.5s-52.5 23.5 -66.5 23.5
c-28.667 0 -49.334 -16 -62.001 -48h-2c0 6.66699 0.666992 16.667 2 30c3.33301 27.333 11.666 48.833 24.999 64.5s30.666 23.5 51.999 23.5c16 0 39 -8 69 -24s52 -24 66 -24c30 0 51 16 63 48h2c0 -8 -0.666992 -18.667 -2 -32
c-3.33301 -26 -11.666 -46.667 -24.999 -62s-30.666 -23 -51.999 -23z" />
    <glyph glyph-name="adieresis" unicode="&#xe4;" horiz-adv-x="487" 
d="M297 246l1.99902 107.001v4c0 38 -7.66699 68.167 -23 90.5s-38.333 33.5 -69 33.5c-10.667 0 -17.5 -0.666992 -20.5 -2s-6.16699 -5 -9.5 -11l-70 -141h-2l-53 136c59.333 23.333 120.333 35 183 35c65.333 0 112 -13.667 140 -41
c31.333 -32.667 47 -86.334 47 -161.001v-18l-6 -159c-2 -42 9 -63 33 -63c14.667 0 24.667 8 30 24h2c0.666992 -10.667 -1.66602 -22 -6.99902 -34c-6.66699 -16 -17.5 -29 -32.5 -39s-32.833 -15 -53.5 -15c-26.667 0 -48.5 8.66699 -65.5 26
s-25.833 42.666 -26.5 75.999c-10 -31.333 -27.167 -56.166 -51.5 -74.499s-52.5 -27.5 -84.5 -27.5c-37.333 0 -68.833 12 -94.5 36s-38.5 57 -38.5 99c0 46.667 16.5 83.167 49.5 109.5s71.5 39.5 115.5 39.5c43.333 0 78.333 -10 105 -30zM247.999 247.001
c-30 0 -53.667 -10 -71 -30s-26 -45 -26 -75c0 -26.667 6.5 -47.667 19.5 -63s29.5 -23 49.5 -23c30.667 0 55.667 15.667 75 47l2 136c-14 5.33301 -30.333 8 -49 8zM86.999 622.001c0 16.667 5.83301 30.834 17.5 42.501s25.834 17.5 42.501 17.5
c16 0 29.833 -5.83301 41.5 -17.5s17.5 -25.834 17.5 -42.501c0 -16 -5.83301 -29.667 -17.5 -41s-25.5 -17 -41.5 -17c-16.667 0 -30.834 5.66699 -42.501 17s-17.5 25 -17.5 41zM266.999 622.001c0 16.667 5.66699 30.834 17 42.501s25 17.5 41 17.5
c17.333 0 31.833 -5.83301 43.5 -17.5s17.5 -25.834 17.5 -42.501c0 -16 -6 -29.667 -18 -41s-26.333 -17 -43 -17c-16 0 -29.667 5.66699 -41 17s-17 25 -17 41z" />
    <glyph glyph-name="aring" unicode="&#xe5;" horiz-adv-x="487" 
d="M297 246l1.99902 107.001v4c0 38 -7.66699 68.167 -23 90.5s-38.333 33.5 -69 33.5c-10.667 0 -17.5 -0.666992 -20.5 -2s-6.16699 -5 -9.5 -11l-70 -141h-2l-53 136c59.333 23.333 120.333 35 183 35c65.333 0 112 -13.667 140 -41
c31.333 -32.667 47 -86.334 47 -161.001v-18l-6 -159c-2 -42 9 -63 33 -63c14.667 0 24.667 8 30 24h2c0.666992 -10.667 -1.66602 -22 -6.99902 -34c-6.66699 -16 -17.5 -29 -32.5 -39s-32.833 -15 -53.5 -15c-26.667 0 -48.5 8.66699 -65.5 26
s-25.833 42.666 -26.5 75.999c-10 -31.333 -27.167 -56.166 -51.5 -74.499s-52.5 -27.5 -84.5 -27.5c-37.333 0 -68.833 12 -94.5 36s-38.5 57 -38.5 99c0 46.667 16.5 83.167 49.5 109.5s71.5 39.5 115.5 39.5c43.333 0 78.333 -10 105 -30zM247.999 247.001
c-30 0 -53.667 -10 -71 -30s-26 -45 -26 -75c0 -26.667 6.5 -47.667 19.5 -63s29.5 -23 49.5 -23c30.667 0 55.667 15.667 75 47l2 136c-14 5.33301 -30.333 8 -49 8zM324.999 626.001c0 -24.667 -8.50098 -45.167 -25.501 -61.5s-37.833 -24.5 -62.5 -24.5
c-24 0 -44.5 8.33301 -61.5 25s-25.5 37 -25.5 61c0 24.667 8.33301 45.334 25 62.001s37.334 25 62.001 25s45.5 -8.33301 62.5 -25s25.5 -37.334 25.5 -62.001zM304.998 626.001c0 19.333 -6.5 35.5 -19.5 48.5s-29.167 19.5 -48.5 19.5s-35.333 -6.5 -48 -19.5
s-19 -29.167 -19 -48.5c0 -18.667 6.5 -34.5 19.5 -47.5s28.833 -19.5 47.5 -19.5c19.333 0 35.5 6.33301 48.5 19s19.5 28.667 19.5 48z" />
    <glyph glyph-name="ae" unicode="&#xe6;" horiz-adv-x="756" 
d="M188 276c43.333 0 79.6689 -10 109.002 -30c0 2 0.333008 20 1 54s1 52.333 1 55c0 38.667 -7.83301 69.167 -23.5 91.5s-38.834 33.5 -69.501 33.5c-10 0 -16.667 -0.833008 -20 -2.5s-6.33301 -5.16699 -9 -10.5l-70 -139h-2l-56 139c60 20.667 122 31 186 31
c56.667 0 99 -13.667 127 -41l15 -19c40 40 89.667 60 149 60c56.667 0 104.5 -16 143.5 -48s58.5 -81 58.5 -147c0 -10 -0.333008 -18.333 -1 -25h-302v-17c0 -63.333 13.667 -111.833 41 -145.5s62 -50.5 104 -50.5c72 0 123.667 36.333 155 109h2
c-22.667 -121.333 -91.334 -182 -206.001 -182c-40.667 0 -78 9.16699 -112 27.5s-61 45.5 -81 81.5c-9.33301 -30.667 -28 -56.5 -56 -77.5s-62.333 -31.5 -103 -31.5s-74.5 12.333 -101.5 37s-40.5 58.667 -40.5 102c0 45.333 16.5 80.833 49.5 106.5
s70.167 38.5 111.5 38.5zM524.003 482c-61.333 0 -94.333 -61.999 -99 -185.999h180c0.666992 65.333 -5.5 112.666 -18.5 141.999s-33.833 44 -62.5 44zM230.003 55.001c39.333 0 71 17.3311 95 51.998c-18.667 36 -28 80 -28 132c-17.333 5.33301 -33.333 8 -48 8
c-30.667 0 -54.667 -9.66699 -72 -29s-26 -43.666 -26 -72.999c0 -27.333 7.16699 -49.166 21.5 -65.499s33.5 -24.5 57.5 -24.5z" />
    <glyph glyph-name="ccedilla" unicode="&#xe7;" horiz-adv-x="454" 
d="M298 66c58.667 0 102.999 32.998 132.999 98.998h2c-9.33301 -53.333 -30 -95.5 -62 -126.5s-75 -46.5 -129 -46.5h-2l-8 -54c33.333 6.66699 62.166 1.83398 86.499 -14.499s36.5 -38.166 36.5 -65.499s-10 -49.833 -30 -67.5s-47.333 -26.5 -82 -26.5
c-32 0 -59 8.5 -81 25.5s-34 38.167 -36 63.5l2 1c5.33301 -18 15.833 -31.833 31.5 -41.5s31.834 -14.5 48.501 -14.5c18 0 33.333 5.16699 46 15.5s19 24.166 19 41.499c0 18 -6.16699 32.167 -18.5 42.5s-28.166 15.5 -47.499 15.5c-14 0 -26.333 -2 -37 -6l-1 2l64 83
c-58.667 2 -107.834 24 -147.501 66s-59.5 102.667 -59.5 182c0 88 24.167 153 72.5 195s106.833 63 175.5 63c51.333 0 103.333 -9.33301 156 -28l-54 -158h-2l-67 157c-4.66699 8.66699 -11 13 -19 13h-10c-39.333 0 -69.166 -17.333 -89.499 -52s-30.5 -85 -30.5 -151
c0 -73.333 13.167 -127.166 39.5 -161.499s59.833 -51.5 100.5 -51.5z" />
    <glyph glyph-name="egrave" unicode="&#xe8;" horiz-adv-x="486" 
d="M456 278l-299.997 0.000976562v-16c0 -64 13.5 -112.833 40.5 -146.5s61.5 -50.5 103.5 -50.5c72 0 123.667 36.333 155 109h2c-22.667 -121.333 -91.334 -182 -206.001 -182c-63.333 0 -116.5 21.167 -159.5 63.5s-64.5 104.166 -64.5 185.499c0 45.333 6.5 85 19.5 119
s30.667 60.833 53 80.5s46.666 34.167 72.999 43.5s54.166 14 83.499 14c56.667 0 104.5 -16 143.5 -48s58.5 -81 58.5 -147c0 -6 -0.666992 -14.333 -2 -25zM254.003 482.001c-60 0 -92.667 -61.999 -98 -185.999h179c0.666992 5.33301 1 11.666 1 18.999
c0 111.333 -27.333 167 -82 167zM99.0029 703.002h139l84 -163l-2 -2l-221 163v2z" />
    <glyph glyph-name="eacute" unicode="&#xe9;" horiz-adv-x="486" 
d="M279 703h138v-2l-221 -163l-2 2zM456 278l-299.997 0.000976562v-16c0 -64 13.5 -112.833 40.5 -146.5s61.5 -50.5 103.5 -50.5c72 0 123.667 36.333 155 109h2c-22.667 -121.333 -91.334 -182 -206.001 -182c-63.333 0 -116.5 21.167 -159.5 63.5
s-64.5 104.166 -64.5 185.499c0 45.333 6.5 85 19.5 119s30.667 60.833 53 80.5s46.666 34.167 72.999 43.5s54.166 14 83.499 14c56.667 0 104.5 -16 143.5 -48s58.5 -81 58.5 -147c0 -6 -0.666992 -14.333 -2 -25zM254.003 482.001c-60 0 -92.667 -61.999 -98 -185.999
h179c0.666992 5.33301 1 11.666 1 18.999c0 111.333 -27.333 167 -82 167z" />
    <glyph glyph-name="ecircumflex" unicode="&#xea;" horiz-adv-x="486" 
d="M409 538l-1 -2l-151 72l-151 -72l-1 2l151 173h2zM456 278l-299.997 0.000976562v-16c0 -64 13.5 -112.833 40.5 -146.5s61.5 -50.5 103.5 -50.5c72 0 123.667 36.333 155 109h2c-22.667 -121.333 -91.334 -182 -206.001 -182c-63.333 0 -116.5 21.167 -159.5 63.5
s-64.5 104.166 -64.5 185.499c0 45.333 6.5 85 19.5 119s30.667 60.833 53 80.5s46.666 34.167 72.999 43.5s54.166 14 83.499 14c56.667 0 104.5 -16 143.5 -48s58.5 -81 58.5 -147c0 -6 -0.666992 -14.333 -2 -25zM254.003 482.001c-60 0 -92.667 -61.999 -98 -185.999
h179c0.666992 5.33301 1 11.666 1 18.999c0 111.333 -27.333 167 -82 167z" />
    <glyph glyph-name="edieresis" unicode="&#xeb;" horiz-adv-x="486" 
d="M107 622c0 16.667 5.83301 30.834 17.5 42.501s25.834 17.5 42.501 17.5c16 0 29.833 -5.83301 41.5 -17.5s17.5 -25.834 17.5 -42.501c0 -16 -5.83301 -29.667 -17.5 -41s-25.5 -17 -41.5 -17c-16.667 0 -30.834 5.66699 -42.501 17s-17.5 25 -17.5 41zM287 622
c0 16.667 5.66699 30.834 17 42.501s25 17.5 41 17.5c17.333 0 31.833 -5.83301 43.5 -17.5s17.5 -25.834 17.5 -42.501c0 -16 -6 -29.667 -18 -41s-26.333 -17 -43 -17c-16 0 -29.667 5.66699 -41 17s-17 25 -17 41zM456 278l-299.997 0.000976562v-16
c0 -64 13.5 -112.833 40.5 -146.5s61.5 -50.5 103.5 -50.5c72 0 123.667 36.333 155 109h2c-22.667 -121.333 -91.334 -182 -206.001 -182c-63.333 0 -116.5 21.167 -159.5 63.5s-64.5 104.166 -64.5 185.499c0 45.333 6.5 85 19.5 119s30.667 60.833 53 80.5
s46.666 34.167 72.999 43.5s54.166 14 83.499 14c56.667 0 104.5 -16 143.5 -48s58.5 -81 58.5 -147c0 -6 -0.666992 -14.333 -2 -25zM254.003 482.001c-60 0 -92.667 -61.999 -98 -185.999h179c0.666992 5.33301 1 11.666 1 18.999c0 111.333 -27.333 167 -82 167z" />
    <glyph glyph-name="igrave" unicode="&#xec;" horiz-adv-x="297" 
d="M218 490v-423.001c0 -9.33301 3.66699 -16.666 11 -21.999l59 -43v-2h-265v2l59 43c6.66699 4.66699 10 12 10 22v348c0 10 -3.33301 17.667 -10 23l-59 50v2h195zM-8 702.999h139l84 -163l-2 -2l-221 163v2z" />
    <glyph glyph-name="iacute" unicode="&#xed;" horiz-adv-x="297" 
d="M171 703h138v-2l-221 -163l-2 2zM218 490v-423.001c0 -9.33301 3.66699 -16.666 11 -21.999l59 -43v-2h-265v2l59 43c6.66699 4.66699 10 12 10 22v348c0 10 -3.33301 17.667 -10 23l-59 50v2h195z" />
    <glyph glyph-name="icircumflex" unicode="&#xee;" horiz-adv-x="297" 
d="M292 538l-1 -2l-151 72l-151 -72l-1 2l151 173h2zM218 490v-423.001c0 -9.33301 3.66699 -16.666 11 -21.999l59 -43v-2h-265v2l59 43c6.66699 4.66699 10 12 10 22v348c0 10 -3.33301 17.667 -10 23l-59 50v2h195z" />
    <glyph glyph-name="idieresis" unicode="&#xef;" horiz-adv-x="297" 
d="M-9 622c0 16.667 5.83301 30.834 17.5 42.501s25.834 17.5 42.501 17.5c16 0 29.833 -5.83301 41.5 -17.5s17.5 -25.834 17.5 -42.501c0 -16 -5.83301 -29.667 -17.5 -41s-25.5 -17 -41.5 -17c-16.667 0 -30.834 5.66699 -42.501 17s-17.5 25 -17.5 41zM171 622
c0 16.667 5.66699 30.834 17 42.501s25 17.5 41 17.5c17.333 0 31.833 -5.83301 43.5 -17.5s17.5 -25.834 17.5 -42.501c0 -16 -6 -29.667 -18 -41s-26.333 -17 -43 -17c-16 0 -29.667 5.66699 -41 17s-17 25 -17 41zM218 490v-423.001
c0 -9.33301 3.66699 -16.666 11 -21.999l59 -43v-2h-265v2l59 43c6.66699 4.66699 10 12 10 22v348c0 10 -3.33301 17.667 -10 23l-59 50v2h195z" />
    <glyph glyph-name="eth" unicode="&#xf0;" horiz-adv-x="528" 
d="M126 711l-0.000976562 2c2.66699 0 8.66699 -0.666992 18 -2c66.667 -8.66699 125.334 -29.334 176.001 -62.001l118 67l8 -16l-109 -62c53.333 -38.667 93.666 -89.334 120.999 -152.001s41 -131 41 -205c0 -192.667 -80.333 -289 -241 -289
c-66 0 -120.833 22.167 -164.5 66.5s-65.5 104.5 -65.5 180.5c0 76.667 19.833 137.834 59.5 183.501s87.834 68.5 144.501 68.5c54 0 94 -21 120 -63c-14.667 70.667 -40 129.334 -76 176.001l-123 -70l-8 16l120 68c-36 41.333 -82.333 72.333 -139 93zM366.999 266
c0 52.667 -3.99805 101 -11.998 145c-22.667 28.667 -50 43 -82 43c-34.667 0 -60.834 -21.167 -78.501 -63.5s-26.5 -94.833 -26.5 -157.5c0 -67.333 8.16699 -121.5 24.5 -162.5s39.166 -61.5 68.499 -61.5c70.667 0 106 85.667 106 257z" />
    <glyph glyph-name="ntilde" unicode="&#xf1;" horiz-adv-x="587" 
d="M390 266c0 56 -6.16699 97.168 -18.5 123.501s-33.5 39.5 -63.5 39.5c-36.667 0 -67 -20.333 -91 -61v-301c0 -8.66699 3.66699 -16 11 -22l59 -43v-2h-265v2l59 43c6.66699 5.33301 10 12.666 10 21.999v348c0 10 -3.33301 17.667 -10 23l-59 50v2h195v-114
c24.667 81.333 75.667 122 153 122c97.333 0 146 -68 146 -204c0 -44.667 -0.666992 -120.334 -2 -227.001c0 -8.66699 3.66699 -16 11 -22l59 -43v-2h-265v2l56 43c8 5.33301 12 12.333 12 21c0 0.666992 0.5 29.834 1.5 87.501s1.5 95.167 1.5 112.5zM359 562.001
c-16 0 -39.166 7.83301 -69.499 23.5s-52.5 23.5 -66.5 23.5c-28.667 0 -49.334 -16 -62.001 -48h-2c0 6.66699 0.666992 16.667 2 30c3.33301 27.333 11.666 48.833 24.999 64.5s30.666 23.5 51.999 23.5c16 0 39 -8 69 -24s52 -24 66 -24c30 0 51 16 63 48h2
c0 -8 -0.666992 -18.667 -2 -32c-3.33301 -26 -11.666 -46.667 -24.999 -62s-30.666 -23 -51.999 -23z" />
    <glyph glyph-name="ograve" unicode="&#xf2;" horiz-adv-x="536" 
d="M268 482c-32 0 -56.333 -17.6689 -73 -53.002s-25 -96.333 -25 -183c0 -87.333 8.33301 -148.833 25 -184.5s41 -53.5 73 -53.5s56.5 17.833 73.5 53.5s25.5 96.834 25.5 183.501s-8.5 147.834 -25.5 183.501s-41.5 53.5 -73.5 53.5zM268 -8.00195
c-74 0 -132.667 21.999 -176 65.999s-65 106.667 -65 188c0 80.667 21.667 142.834 65 186.501s102 65.5 176 65.5c74.667 0 133.5 -21.833 176.5 -65.5s64.5 -106.167 64.5 -187.5c0 -80.667 -21.667 -143 -65 -187s-102 -66 -176 -66zM109 702.997h139l84 -163l-2 -2
l-221 163v2z" />
    <glyph glyph-name="oacute" unicode="&#xf3;" horiz-adv-x="536" 
d="M289 703h138v-2l-221 -163l-2 2zM268 482c-32 0 -56.333 -17.6689 -73 -53.002s-25 -96.333 -25 -183c0 -87.333 8.33301 -148.833 25 -184.5s41 -53.5 73 -53.5s56.5 17.833 73.5 53.5s25.5 96.834 25.5 183.501s-8.5 147.834 -25.5 183.501s-41.5 53.5 -73.5 53.5z
M268 -8.00195c-74 0 -132.667 21.999 -176 65.999s-65 106.667 -65 188c0 80.667 21.667 142.834 65 186.501s102 65.5 176 65.5c74.667 0 133.5 -21.833 176.5 -65.5s64.5 -106.167 64.5 -187.5c0 -80.667 -21.667 -143 -65 -187s-102 -66 -176 -66z" />
    <glyph glyph-name="ocircumflex" unicode="&#xf4;" horiz-adv-x="536" 
d="M419 538l-1 -2l-151 72l-151 -72l-1 2l151 173h2zM268 482c-32 0 -56.333 -17.6689 -73 -53.002s-25 -96.333 -25 -183c0 -87.333 8.33301 -148.833 25 -184.5s41 -53.5 73 -53.5s56.5 17.833 73.5 53.5s25.5 96.834 25.5 183.501s-8.5 147.834 -25.5 183.501
s-41.5 53.5 -73.5 53.5zM268 -8.00195c-74 0 -132.667 21.999 -176 65.999s-65 106.667 -65 188c0 80.667 21.667 142.834 65 186.501s102 65.5 176 65.5c74.667 0 133.5 -21.833 176.5 -65.5s64.5 -106.167 64.5 -187.5c0 -80.667 -21.667 -143 -65 -187s-102 -66 -176 -66
z" />
    <glyph glyph-name="otilde" unicode="&#xf5;" horiz-adv-x="536" 
d="M268 482c-32 0 -56.333 -17.6689 -73 -53.002s-25 -96.333 -25 -183c0 -87.333 8.33301 -148.833 25 -184.5s41 -53.5 73 -53.5s56.5 17.833 73.5 53.5s25.5 96.834 25.5 183.501s-8.5 147.834 -25.5 183.501s-41.5 53.5 -73.5 53.5zM268 -8.00195
c-74 0 -132.667 21.999 -176 65.999s-65 106.667 -65 188c0 80.667 21.667 142.834 65 186.501s102 65.5 176 65.5c74.667 0 133.5 -21.833 176.5 -65.5s64.5 -106.167 64.5 -187.5c0 -80.667 -21.667 -143 -65 -187s-102 -66 -176 -66zM329 561.997
c-16 0 -39.166 7.83301 -69.499 23.5s-52.5 23.5 -66.5 23.5c-28.667 0 -49.334 -16 -62.001 -48h-2c0 6.66699 0.666992 16.667 2 30c3.33301 27.333 11.666 48.833 24.999 64.5s30.666 23.5 51.999 23.5c16 0 39 -8 69 -24s52 -24 66 -24c30 0 51 16 63 48h2
c0 -8 -0.666992 -18.667 -2 -32c-3.33301 -26 -11.666 -46.667 -24.999 -62s-30.666 -23 -51.999 -23z" />
    <glyph glyph-name="odieresis" unicode="&#xf6;" horiz-adv-x="536" 
d="M118 622c0 16.667 5.83301 30.834 17.5 42.501s25.834 17.5 42.501 17.5c16 0 29.833 -5.83301 41.5 -17.5s17.5 -25.834 17.5 -42.501c0 -16 -5.83301 -29.667 -17.5 -41s-25.5 -17 -41.5 -17c-16.667 0 -30.834 5.66699 -42.501 17s-17.5 25 -17.5 41zM298 622
c0 16.667 5.66699 30.834 17 42.501s25 17.5 41 17.5c17.333 0 31.833 -5.83301 43.5 -17.5s17.5 -25.834 17.5 -42.501c0 -16 -6 -29.667 -18 -41s-26.333 -17 -43 -17c-16 0 -29.667 5.66699 -41 17s-17 25 -17 41zM268 482c-32 0 -56.333 -17.6689 -73 -53.002
s-25 -96.333 -25 -183c0 -87.333 8.33301 -148.833 25 -184.5s41 -53.5 73 -53.5s56.5 17.833 73.5 53.5s25.5 96.834 25.5 183.501s-8.5 147.834 -25.5 183.501s-41.5 53.5 -73.5 53.5zM268 -8.00195c-74 0 -132.667 21.999 -176 65.999s-65 106.667 -65 188
c0 80.667 21.667 142.834 65 186.501s102 65.5 176 65.5c74.667 0 133.5 -21.833 176.5 -65.5s64.5 -106.167 64.5 -187.5c0 -80.667 -21.667 -143 -65 -187s-102 -66 -176 -66z" />
    <glyph glyph-name="divide" unicode="&#xf7;" horiz-adv-x="540" 
d="M50 307v18h440v-18h-440zM202 473c0 19.333 6.5 35.166 19.5 47.499s28.833 18.5 47.5 18.5c19.333 0 35.333 -6.16699 48 -18.5s19 -28.166 19 -47.499c0 -18.667 -6.33301 -34.167 -19 -46.5s-28.667 -18.5 -48 -18.5c-18.667 0 -34.5 6.16699 -47.5 18.5
s-19.5 27.833 -19.5 46.5zM202 153c0 19.333 6.5 35.166 19.5 47.499s28.833 18.5 47.5 18.5c19.333 0 35.333 -6.16699 48 -18.5s19 -28.166 19 -47.499c0 -18.667 -6.33301 -34.167 -19 -46.5s-28.667 -18.5 -48 -18.5c-18.667 0 -34.5 6.16699 -47.5 18.5
s-19.5 27.833 -19.5 46.5z" />
    <glyph glyph-name="oslash" unicode="&#xf8;" horiz-adv-x="536" 
d="M416 555l-35.001 -77.999c86 -36.667 129 -114 129 -232c0 -83.333 -21.5 -146.333 -64.5 -189s-102.167 -64 -177.5 -64c-33.333 0 -64.666 4.66699 -93.999 14l-39 -88l-18 9l38 86c-85.333 36 -128 113.667 -128 233c0 83.333 21.5 146.166 64.5 188.499
s101.833 63.5 176.5 63.5c34 0 65.667 -4.66699 95 -14l35 78zM267.999 482.001c-32.667 0 -57.167 -17.5 -73.5 -52.5s-24.5 -96.167 -24.5 -183.5c0 -73.333 5.33301 -127.333 16 -162l154 348c-16 33.333 -40 50 -72 50zM365.999 245.001c0 68 -5.33301 121.333 -16 160
l-154 -348c15.333 -32 39.333 -48 72 -48s57.167 17.5 73.5 52.5s24.5 96.167 24.5 183.5z" />
    <glyph glyph-name="ugrave" unicode="&#xf9;" horiz-adv-x="565" 
d="M487 490v-414.999c0 -10 3.33301 -17.667 10 -23l59 -50v-2h-196v111c-28 -79.333 -77.333 -119 -148 -119c-95.333 0 -143 67.667 -143 203c0 40 0.666992 113.333 2 220c0 10 -3.33301 18 -10 24l-60 49v2h196c0 -0.666992 -0.166992 -21.334 -0.5 -62.001l-1 -126
c-0.333008 -43.333 -0.5 -69 -0.5 -77c0 -55.333 6 -96.5 18 -123.5s32.333 -40.5 61 -40.5c33.333 0 62 20.333 86 61v293c0 10 -3.33301 17.667 -10 23l-59 50v2h196zM109 703.001h139l84 -163l-2 -2l-221 163v2z" />
    <glyph glyph-name="uacute" unicode="&#xfa;" horiz-adv-x="565" 
d="M289 703h138v-2l-221 -163l-2 2zM487 490v-414.999c0 -10 3.33301 -17.667 10 -23l59 -50v-2h-196v111c-28 -79.333 -77.333 -119 -148 -119c-95.333 0 -143 67.667 -143 203c0 40 0.666992 113.333 2 220c0 10 -3.33301 18 -10 24l-60 49v2h196
c0 -0.666992 -0.166992 -21.334 -0.5 -62.001l-1 -126c-0.333008 -43.333 -0.5 -69 -0.5 -77c0 -55.333 6 -96.5 18 -123.5s32.333 -40.5 61 -40.5c33.333 0 62 20.333 86 61v293c0 10 -3.33301 17.667 -10 23l-59 50v2h196z" />
    <glyph glyph-name="ucircumflex" unicode="&#xfb;" horiz-adv-x="565" 
d="M419 538l-1 -2l-151 72l-151 -72l-1 2l151 173h2zM487 490v-414.999c0 -10 3.33301 -17.667 10 -23l59 -50v-2h-196v111c-28 -79.333 -77.333 -119 -148 -119c-95.333 0 -143 67.667 -143 203c0 40 0.666992 113.333 2 220c0 10 -3.33301 18 -10 24l-60 49v2h196
c0 -0.666992 -0.166992 -21.334 -0.5 -62.001l-1 -126c-0.333008 -43.333 -0.5 -69 -0.5 -77c0 -55.333 6 -96.5 18 -123.5s32.333 -40.5 61 -40.5c33.333 0 62 20.333 86 61v293c0 10 -3.33301 17.667 -10 23l-59 50v2h196z" />
    <glyph glyph-name="udieresis" unicode="&#xfc;" horiz-adv-x="565" 
d="M117 622c0 16.667 5.83301 30.834 17.5 42.501s25.834 17.5 42.501 17.5c16 0 29.833 -5.83301 41.5 -17.5s17.5 -25.834 17.5 -42.501c0 -16 -5.83301 -29.667 -17.5 -41s-25.5 -17 -41.5 -17c-16.667 0 -30.834 5.66699 -42.501 17s-17.5 25 -17.5 41zM297 622
c0 16.667 5.66699 30.834 17 42.501s25 17.5 41 17.5c17.333 0 31.833 -5.83301 43.5 -17.5s17.5 -25.834 17.5 -42.501c0 -16 -6 -29.667 -18 -41s-26.333 -17 -43 -17c-16 0 -29.667 5.66699 -41 17s-17 25 -17 41zM487 490v-414.999c0 -10 3.33301 -17.667 10 -23l59 -50
v-2h-196v111c-28 -79.333 -77.333 -119 -148 -119c-95.333 0 -143 67.667 -143 203c0 40 0.666992 113.333 2 220c0 10 -3.33301 18 -10 24l-60 49v2h196c0 -0.666992 -0.166992 -21.334 -0.5 -62.001l-1 -126c-0.333008 -43.333 -0.5 -69 -0.5 -77
c0 -55.333 6 -96.5 18 -123.5s32.333 -40.5 61 -40.5c33.333 0 62 20.333 86 61v293c0 10 -3.33301 17.667 -10 23l-59 50v2h196z" />
    <glyph glyph-name="yacute" unicode="&#xfd;" horiz-adv-x="454" 
d="M56 -236c-15.333 0 -30.333 3.33203 -45 9.99902l36 162h2l76 -99c4.66699 -6.66699 9 -10 13 -10c3.33301 0 7.33301 3.33301 12 10c18 24.667 39 64.334 63 119.001l-180 459c-3.33301 8.66699 -9.33301 20 -18 34l-25 39v2h225v-2l-44 -49
c-6 -6.66699 -7 -14.667 -3 -24l111 -296l95 242c4.66699 12 4 22.667 -2 32l-60 95v2h162v-2l-60 -88c-8 -12 -15.333 -26 -22 -42l-150 -385c-18.667 -47.333 -41 -91.333 -67 -132c-32 -51.333 -71.667 -77 -119 -77zM274 702.999h138v-2l-221 -163l-2 2z" />
    <glyph glyph-name="thorn" unicode="&#xfe;" horiz-adv-x="551" 
d="M342 498c55.333 0 99 -21.332 131 -63.999s48 -101.334 48 -176.001c0 -80 -17.667 -144.333 -53 -193s-83.333 -73 -144 -73c-67.333 0 -112 28.333 -134 85v-229c0 -10.667 4.66699 -18.667 14 -24l83 -50v-2h-293v2l59 43c7.33301 4.66699 11 12 11 22v789
c0 9.33301 -3.66699 17 -11 23l-59 50v2l196 9v-333c29.333 79.333 80 119 152 119zM282 429.001c-38 0 -68.666 -20.001 -91.999 -60.001v-282c18.667 -30.667 46 -46 82 -46c35.333 0 63.166 17.833 83.499 53.5s30.5 87.834 30.5 156.501c0 64 -8.66699 109.667 -26 137
s-43.333 41 -78 41z" />
    <glyph glyph-name="ydieresis" unicode="&#xff;" horiz-adv-x="454" 
d="M56 -236c-15.333 0 -30.333 3.33203 -45 9.99902l36 162h2l76 -99c4.66699 -6.66699 9 -10 13 -10c3.33301 0 7.33301 3.33301 12 10c18 24.667 39 64.334 63 119.001l-180 459c-3.33301 8.66699 -9.33301 20 -18 34l-25 39v2h225v-2l-44 -49
c-6 -6.66699 -7 -14.667 -3 -24l111 -296l95 242c4.66699 12 4 22.667 -2 32l-60 95v2h162v-2l-60 -88c-8 -12 -15.333 -26 -22 -42l-150 -385c-18.667 -47.333 -41 -91.333 -67 -132c-32 -51.333 -71.667 -77 -119 -77zM103 621.999c0 16.667 5.83301 30.834 17.5 42.501
s25.834 17.5 42.501 17.5c16 0 29.833 -5.83301 41.5 -17.5s17.5 -25.834 17.5 -42.501c0 -16 -5.83301 -29.667 -17.5 -41s-25.5 -17 -41.5 -17c-16.667 0 -30.834 5.66699 -42.501 17s-17.5 25 -17.5 41zM283 621.999c0 16.667 5.66699 30.834 17 42.501s25 17.5 41 17.5
c17.333 0 31.833 -5.83301 43.5 -17.5s17.5 -25.834 17.5 -42.501c0 -16 -6 -29.667 -18 -41s-26.333 -17 -43 -17c-16 0 -29.667 5.66699 -41 17s-17 25 -17 41z" />
    <glyph glyph-name="Amacron" unicode="&#x100;" horiz-adv-x="637" 
d="M575 95c5.33301 -16 12.667 -29.335 22 -40.002l42 -53v-2h-270v2l60 60c6 6 7.33301 14.667 4 26l-52 158h-229l-38 -115c-2 -7.33301 -2.66699 -12.666 -2 -15.999s4 -8 10 -14l91 -99v-2h-230v2l87 95c12.667 14 21 27 25 39l154 465c3.33301 10 4.5 16.833 3.5 20.5
s-4.5 8.83398 -10.5 15.501l-57 64v2h191zM268.001 593.998l-110 -329h217zM432.001 803.998h-262v18h262v-18z" />
    <glyph glyph-name="amacron" unicode="&#x101;" horiz-adv-x="487" 
d="M297 246l1.99902 107.001v4c0 38 -7.66699 68.167 -23 90.5s-38.333 33.5 -69 33.5c-10.667 0 -17.5 -0.666992 -20.5 -2s-6.16699 -5 -9.5 -11l-70 -141h-2l-53 136c59.333 23.333 120.333 35 183 35c65.333 0 112 -13.667 140 -41
c31.333 -32.667 47 -86.334 47 -161.001v-18l-6 -159c-2 -42 9 -63 33 -63c14.667 0 24.667 8 30 24h2c0.666992 -10.667 -1.66602 -22 -6.99902 -34c-6.66699 -16 -17.5 -29 -32.5 -39s-32.833 -15 -53.5 -15c-26.667 0 -48.5 8.66699 -65.5 26
s-25.833 42.666 -26.5 75.999c-10 -31.333 -27.167 -56.166 -51.5 -74.499s-52.5 -27.5 -84.5 -27.5c-37.333 0 -68.833 12 -94.5 36s-38.5 57 -38.5 99c0 46.667 16.5 83.167 49.5 109.5s71.5 39.5 115.5 39.5c43.333 0 78.333 -10 105 -30zM247.999 247.001
c-30 0 -53.667 -10 -71 -30s-26 -45 -26 -75c0 -26.667 6.5 -47.667 19.5 -63s29.5 -23 49.5 -23c30.667 0 55.667 15.667 75 47l2 136c-14 5.33301 -30.333 8 -49 8zM365.999 592.001h-262v18h262v-18z" />
    <glyph glyph-name="Abreve" unicode="&#x102;" horiz-adv-x="637" 
d="M575 95c5.33301 -16 12.667 -29.335 22 -40.002l42 -53v-2h-270v2l60 60c6 6 7.33301 14.667 4 26l-52 158h-229l-38 -115c-2 -7.33301 -2.66699 -12.666 -2 -15.999s4 -8 10 -14l91 -99v-2h-230v2l87 95c12.667 14 21 27 25 39l154 465c3.33301 10 4.5 16.833 3.5 20.5
s-4.5 8.83398 -10.5 15.501l-57 64v2h191zM268.001 593.998l-110 -329h217zM424.001 877.998c0 -41.333 -12.167 -72.5 -36.5 -93.5s-53.833 -31.5 -88.5 -31.5c-34 0 -63.167 10.5 -87.5 31.5s-36.5 52.167 -36.5 93.5c0 13.333 1.33301 26.666 4 39.999h2
c1.33301 -30.667 12.833 -54.5 34.5 -71.5s49.5 -25.5 83.5 -25.5s62 8.5 84 25.5s33.667 40.833 35 71.5h2c2.66699 -13.333 4 -26.666 4 -39.999z" />
    <glyph glyph-name="abreve" unicode="&#x103;" horiz-adv-x="487" 
d="M297 246l1.99902 107.001v4c0 38 -7.66699 68.167 -23 90.5s-38.333 33.5 -69 33.5c-10.667 0 -17.5 -0.666992 -20.5 -2s-6.16699 -5 -9.5 -11l-70 -141h-2l-53 136c59.333 23.333 120.333 35 183 35c65.333 0 112 -13.667 140 -41
c31.333 -32.667 47 -86.334 47 -161.001v-18l-6 -159c-2 -42 9 -63 33 -63c14.667 0 24.667 8 30 24h2c0.666992 -10.667 -1.66602 -22 -6.99902 -34c-6.66699 -16 -17.5 -29 -32.5 -39s-32.833 -15 -53.5 -15c-26.667 0 -48.5 8.66699 -65.5 26
s-25.833 42.666 -26.5 75.999c-10 -31.333 -27.167 -56.166 -51.5 -74.499s-52.5 -27.5 -84.5 -27.5c-37.333 0 -68.833 12 -94.5 36s-38.5 57 -38.5 99c0 46.667 16.5 83.167 49.5 109.5s71.5 39.5 115.5 39.5c43.333 0 78.333 -10 105 -30zM247.999 247.001
c-30 0 -53.667 -10 -71 -30s-26 -45 -26 -75c0 -26.667 6.5 -47.667 19.5 -63s29.5 -23 49.5 -23c30.667 0 55.667 15.667 75 47l2 136c-14 5.33301 -30.333 8 -49 8zM357.999 666.001c0 -41.333 -12.167 -72.5 -36.5 -93.5s-53.833 -31.5 -88.5 -31.5
c-34 0 -63.167 10.5 -87.5 31.5s-36.5 52.167 -36.5 93.5c0 13.333 1.33301 26.666 4 39.999h2c1.33301 -30.667 12.833 -54.5 34.5 -71.5s49.5 -25.5 83.5 -25.5s62 8.5 84 25.5s33.667 40.833 35 71.5h2c2.66699 -13.333 4 -26.666 4 -39.999z" />
    <glyph glyph-name="Aogonek" unicode="&#x104;" horiz-adv-x="637" 
d="M575 95c5.33301 -16 12.666 -29.333 21.999 -40l42 -53v-2h-257c-45.333 -24 -68 -59.333 -68 -106c0 -24.667 7 -43.667 21 -57s31.667 -20 53 -20c31.333 0 56.666 13.333 75.999 40l2 -1c-23.333 -61.333 -62.666 -92 -117.999 -92
c-27.333 0 -51.5 9.16699 -72.5 27.5s-31.5 43.166 -31.5 74.499c0 28 11.333 54.667 34 80s53 44 91 56l60 60c6 6 7.33301 14.667 4 26l-52 158h-229l-38 -115c-3.33301 -10.667 -0.666016 -20.667 8.00098 -30l91 -99v-2h-230v2l87 95c12.667 14 21 27 25 39l154 465
c3.33301 10 4.5 16.833 3.5 20.5s-4.5 8.83398 -10.5 15.501l-57 64v2h191zM268 594l-110 -329h217z" />
    <glyph glyph-name="aogonek" unicode="&#x105;" horiz-adv-x="487" 
d="M404 -7c-44 -21.333 -66.001 -54.3291 -66.001 -98.9961c0 -24.667 7 -43.667 21 -57s31.667 -20 53 -20c32 0 57 13.333 75 40l2 -1c-22 -61.333 -61 -92 -117 -92c-27.333 0 -51.5 9.16699 -72.5 27.5s-31.5 43.166 -31.5 74.499c0 28 11.167 53.167 33.5 75.5
s52.833 39.166 91.5 50.499h-5c-26.667 0 -48.5 8.66699 -65.5 26s-25.833 42.666 -26.5 75.999c-10 -31.333 -27.167 -56.166 -51.5 -74.499s-52.5 -27.5 -84.5 -27.5c-37.333 0 -68.833 12 -94.5 36s-38.5 57 -38.5 99c0 46.667 16.5 83.167 49.5 109.5
s71.5 39.5 115.5 39.5c43.333 0 78.333 -10 105 -30l2 107v4c0 38 -7.66699 68.167 -23 90.5s-38.333 33.5 -69 33.5c-10.667 0 -17.5 -0.666992 -20.5 -2s-6.16699 -5 -9.5 -11l-70 -141h-2l-53 136c59.333 23.333 120.333 35 183 35c65.333 0 112 -13.667 140 -41
c31.333 -32.667 47 -86.334 47 -161.001v-18l-6 -159c-2 -42 9 -63 33 -63c14.667 0 24.667 8 30 24h2c0.666992 -10.667 -1.66602 -22 -6.99902 -34c-12.667 -30.667 -36 -48.334 -70 -53.001zM247.999 247.004c-30 0 -53.667 -10 -71 -30s-26 -45 -26 -75
c0 -26.667 6.5 -47.667 19.5 -63s29.5 -23 49.5 -23c30.667 0 55.667 15.667 75 47l2 136c-14 5.33301 -30.333 8 -49 8z" />
    <glyph glyph-name="Cacute" unicode="&#x106;" horiz-adv-x="612" 
d="M383 915h138v-2l-221 -163l-2 2zM31 349c0 110.667 29.1709 199 87.5039 265s139.833 99 244.5 99c68.667 0 134.667 -7 198 -21v-226h-2l-124 210c-4.66699 7.33301 -8.83398 12 -12.501 14s-10.167 3.66699 -19.5 5c-6.66699 0.666992 -16.334 1 -29.001 1
c-122.667 0 -184 -115 -184 -345c0 -229.333 62.667 -344 188 -344c12 0 20.333 0.333008 25 1c14 1.33301 24.333 7 31 17l125 217h2v-235c-56.667 -11.333 -119.334 -17 -188.001 -17c-114.667 0 -200.334 32 -257.001 96s-85 151.667 -85 263z" />
    <glyph glyph-name="cacute" unicode="&#x107;" horiz-adv-x="454" 
d="M287 703h138v-2l-221 -163l-2 2zM242 -8c-60 0 -111.001 21.166 -153.001 63.499s-63 103.833 -63 184.5c0 88 24.167 153 72.5 195s106.833 63 175.5 63c51.333 0 103.333 -9.33301 156 -28l-54 -158h-2l-67 157c-4.66699 8.66699 -11 13 -19 13h-10
c-39.333 0 -69.166 -17.333 -89.499 -52s-30.5 -85 -30.5 -151c0 -73.333 13.167 -127.166 39.5 -161.499s59.833 -51.5 100.5 -51.5c58.667 0 103 33 133 99h2c-9.33301 -53.333 -30 -95.5 -62 -126.5s-75 -46.5 -129 -46.5z" />
    <glyph glyph-name="Ccircumflex" unicode="&#x108;" horiz-adv-x="612" 
d="M513 750l-1 -2l-151 72l-151 -72l-1 2l151 173h2zM31 349c0 110.667 29.1709 199 87.5039 265s139.833 99 244.5 99c68.667 0 134.667 -7 198 -21v-226h-2l-124 210c-4.66699 7.33301 -8.83398 12 -12.501 14s-10.167 3.66699 -19.5 5
c-6.66699 0.666992 -16.334 1 -29.001 1c-122.667 0 -184 -115 -184 -345c0 -229.333 62.667 -344 188 -344c12 0 20.333 0.333008 25 1c14 1.33301 24.333 7 31 17l125 217h2v-235c-56.667 -11.333 -119.334 -17 -188.001 -17c-114.667 0 -200.334 32 -257.001 96
s-85 151.667 -85 263z" />
    <glyph glyph-name="ccircumflex" unicode="&#x109;" horiz-adv-x="454" 
d="M418 538l-1 -2l-151 72l-151 -72l-1 2l151 173h2zM242 -8c-60 0 -111.001 21.166 -153.001 63.499s-63 103.833 -63 184.5c0 88 24.167 153 72.5 195s106.833 63 175.5 63c51.333 0 103.333 -9.33301 156 -28l-54 -158h-2l-67 157c-4.66699 8.66699 -11 13 -19 13h-10
c-39.333 0 -69.166 -17.333 -89.499 -52s-30.5 -85 -30.5 -151c0 -73.333 13.167 -127.166 39.5 -161.499s59.833 -51.5 100.5 -51.5c58.667 0 103 33 133 99h2c-9.33301 -53.333 -30 -95.5 -62 -126.5s-75 -46.5 -129 -46.5z" />
    <glyph glyph-name="Cdotaccent" unicode="&#x10a;" horiz-adv-x="612" 
d="M31 349c0 110.667 29.1709 199 87.5039 265s139.833 99 244.5 99c68.667 0 134.667 -7 198 -21v-226h-2l-124 210c-4.66699 7.33301 -8.83398 12 -12.501 14s-10.167 3.66699 -19.5 5c-6.66699 0.666992 -16.334 1 -29.001 1c-122.667 0 -184 -115 -184 -345
c0 -229.333 62.667 -344 188 -344c12 0 20.333 0.333008 25 1c14 1.33301 24.333 7 31 17l125 217h2v-235c-56.667 -11.333 -119.334 -17 -188.001 -17c-114.667 0 -200.334 32 -257.001 96s-85 151.667 -85 263zM294.004 831c0 19.333 6.5 35.166 19.5 47.499
s28.833 18.5 47.5 18.5c19.333 0 35.333 -6.16699 48 -18.5s19 -28.166 19 -47.499c0 -18.667 -6.33301 -34.167 -19 -46.5s-28.667 -18.5 -48 -18.5c-18.667 0 -34.5 6.16699 -47.5 18.5s-19.5 27.833 -19.5 46.5z" />
    <glyph glyph-name="cdotaccent" unicode="&#x10b;" horiz-adv-x="454" 
d="M242 -8c-60 0 -111.001 21.166 -153.001 63.499s-63 103.833 -63 184.5c0 88 24.167 153 72.5 195s106.833 63 175.5 63c51.333 0 103.333 -9.33301 156 -28l-54 -158h-2l-67 157c-4.66699 8.66699 -11 13 -19 13h-10c-39.333 0 -69.166 -17.333 -89.499 -52
s-30.5 -85 -30.5 -151c0 -73.333 13.167 -127.166 39.5 -161.499s59.833 -51.5 100.5 -51.5c58.667 0 103 33 133 99h2c-9.33301 -53.333 -30 -95.5 -62 -126.5s-75 -46.5 -129 -46.5zM197.999 618.999c0 19.333 6.5 35.166 19.5 47.499s28.833 18.5 47.5 18.5
c19.333 0 35.333 -6.16699 48 -18.5s19 -28.166 19 -47.499c0 -18.667 -6.33301 -34.167 -19 -46.5s-28.667 -18.5 -48 -18.5c-18.667 0 -34.5 6.16699 -47.5 18.5s-19.5 27.833 -19.5 46.5z" />
    <glyph glyph-name="Ccaron" unicode="&#x10c;" horiz-adv-x="612" 
d="M361 845l151 72l1 -1l-151 -174h-2l-151 174l1 1zM31 349c0 110.667 29.1709 199 87.5039 265s139.833 99 244.5 99c68.667 0 134.667 -7 198 -21v-226h-2l-124 210c-4.66699 7.33301 -8.83398 12 -12.501 14s-10.167 3.66699 -19.5 5
c-6.66699 0.666992 -16.334 1 -29.001 1c-122.667 0 -184 -115 -184 -345c0 -229.333 62.667 -344 188 -344c12 0 20.333 0.333008 25 1c14 1.33301 24.333 7 31 17l125 217h2v-235c-56.667 -11.333 -119.334 -17 -188.001 -17c-114.667 0 -200.334 32 -257.001 96
s-85 151.667 -85 263z" />
    <glyph glyph-name="ccaron" unicode="&#x10d;" horiz-adv-x="454" 
d="M266 634l151 72l1 -1l-151 -174h-2l-151 174l1 1zM242 -8c-60 0 -111.001 21.166 -153.001 63.499s-63 103.833 -63 184.5c0 88 24.167 153 72.5 195s106.833 63 175.5 63c51.333 0 103.333 -9.33301 156 -28l-54 -158h-2l-67 157c-4.66699 8.66699 -11 13 -19 13h-10
c-39.333 0 -69.166 -17.333 -89.499 -52s-30.5 -85 -30.5 -151c0 -73.333 13.167 -127.166 39.5 -161.499s59.833 -51.5 100.5 -51.5c58.667 0 103 33 133 99h2c-9.33301 -53.333 -30 -95.5 -62 -126.5s-75 -46.5 -129 -46.5z" />
    <glyph glyph-name="Dcaron" unicode="&#x10e;" horiz-adv-x="694" 
d="M326 845l151 72l1 -1l-151 -174h-2l-151 174l1 1zM17 0v2.00195l77 54c7.33301 5.33301 11 12.666 11 21.999v547c0 9.33301 -3.66699 16.666 -11 21.999l-77 54v2h310c110 0 193.667 -30 251 -90s86 -143 86 -249c0 -113.333 -30 -202.333 -90 -267
s-145.333 -97 -256 -97h-301zM268 19.002l20.999 -0.000976562c72 0 126.167 26.833 162.5 80.5s54.5 138.834 54.5 255.501c0 219.333 -67.333 329 -202 329h-44c-6 0 -10.167 -1.16699 -12.5 -3.5s-3.5 -7.5 -3.5 -15.5v-624c0 -10 1.33301 -16.167 4 -18.5
s9.33398 -3.5 20.001 -3.5z" />
    <glyph glyph-name="dcaron" unicode="&#x10f;" horiz-adv-x="583" 
d="M538 510l9 193h102l-109 -193h-2zM486 726v-651c0 -10 3.33301 -17.667 10 -23l60 -50v-2h-196v98c-28 -70.667 -76.333 -106 -145 -106c-55.333 0 -100.333 22.667 -135 68s-52 106 -52 182c0 76.667 19.333 138.5 58 185.5s87 70.5 145 70.5c60 0 103 -28 129 -84v221
c0 10 -3.33301 17.667 -10 23l-59 43v2zM275 53c30.667 0 59 18.001 85 54.001v297c-22 30.667 -49.333 46 -82 46c-33.333 0 -60.833 -16.333 -82.5 -49s-32.5 -82.667 -32.5 -150c0 -66.667 10.5 -116.334 31.5 -149.001s47.833 -49 80.5 -49z" />
    <glyph glyph-name="Dcroat" unicode="&#x110;" horiz-adv-x="700" 
d="M23 348v18h89v256c0 12 -3.66699 20.667 -11 26l-79 53v2h312c110.667 0 194.5 -29.833 251.5 -89.5s85.5 -142.5 85.5 -248.5c0 -112 -30 -200.833 -90 -266.5s-145.333 -98.5 -256 -98.5h-303v2l79 53c7.33301 5.33301 11 14.333 11 27v266h-89zM310 684h-41
c-6.66699 0 -11.334 -1.16699 -14.001 -3.5s-4 -7.5 -4 -15.5v-299h117v-18h-117v-307c0 -10 1.33301 -16.167 4 -18.5s9.33398 -3.5 20.001 -3.5h21c144 0 216 112 216 336c0 219.333 -67.333 329 -202 329z" />
    <glyph glyph-name="dcroat" unicode="&#x111;" horiz-adv-x="567" 
d="M486 726v-145h73v-17h-73v-489c0 -10 3.33301 -17.667 10 -23l60 -50v-2h-196v98c-28 -70.667 -76.333 -106 -145 -106c-55.333 0 -100.333 22.667 -135 68s-52 106 -52 182c0 76.667 19.333 138.5 58 185.5s87 70.5 145 70.5c60 0 103 -28 129 -84v150h-130v17h130v54
c0 10 -3.33301 17.667 -10 23l-59 43v2zM275 53c30.667 0 59 18.001 85 54.001v297c-22 30.667 -49.333 46 -82 46c-33.333 0 -60.833 -16.333 -82.5 -49s-32.5 -82.667 -32.5 -150c0 -66.667 10.5 -116.334 31.5 -149.001s47.833 -49 80.5 -49z" />
    <glyph glyph-name="Emacron" unicode="&#x112;" horiz-adv-x="599" 
d="M549 0l-532 0.00292969v2l77 54c7.33301 5.33301 11 12.666 11 21.999v547c0 9.33301 -3.66699 16.666 -11 21.999l-77 54v2h523v-228h-2l-105 192c-6 11.333 -15.333 17 -28 17h-145c-6.66699 0 -11 -1.33301 -13 -4s-3 -8.33398 -3 -17.001v-298h98
c10 0.666992 19 6.33398 27 17.001l76 96h2v-244h-2l-76 97c-8.66699 10.667 -18 16 -28 16h-97v-307c0 -8.66699 1 -14.334 3 -17.001s6.33301 -4 13 -4h150c16 0 26.667 4.33301 32 13l105 196h2v-228zM442 804.003h-262v18h262v-18z" />
    <glyph glyph-name="emacron" unicode="&#x113;" horiz-adv-x="486" 
d="M456 278l-299.997 0.000976562v-16c0 -64 13.5 -112.833 40.5 -146.5s61.5 -50.5 103.5 -50.5c72 0 123.667 36.333 155 109h2c-22.667 -121.333 -91.334 -182 -206.001 -182c-63.333 0 -116.5 21.167 -159.5 63.5s-64.5 104.166 -64.5 185.499c0 45.333 6.5 85 19.5 119
s30.667 60.833 53 80.5s46.666 34.167 72.999 43.5s54.166 14 83.499 14c56.667 0 104.5 -16 143.5 -48s58.5 -81 58.5 -147c0 -6 -0.666992 -14.333 -2 -25zM254.003 482.001c-60 0 -92.667 -61.999 -98 -185.999h179c0.666992 5.33301 1 11.666 1 18.999
c0 111.333 -27.333 167 -82 167zM386.003 592.002h-262v18h262v-18z" />
    <glyph glyph-name="Ebreve" unicode="&#x114;" horiz-adv-x="599" 
d="M549 0l-532 0.00292969v2l77 54c7.33301 5.33301 11 12.666 11 21.999v547c0 9.33301 -3.66699 16.666 -11 21.999l-77 54v2h523v-228h-2l-105 192c-6 11.333 -15.333 17 -28 17h-145c-6.66699 0 -11 -1.33301 -13 -4s-3 -8.33398 -3 -17.001v-298h98
c10 0.666992 19 6.33398 27 17.001l76 96h2v-244h-2l-76 97c-8.66699 10.667 -18 16 -28 16h-97v-307c0 -8.66699 1 -14.334 3 -17.001s6.33301 -4 13 -4h150c16 0 26.667 4.33301 32 13l105 196h2v-228zM434 878.003c0 -41.333 -12.167 -72.5 -36.5 -93.5
s-53.833 -31.5 -88.5 -31.5c-34 0 -63.167 10.5 -87.5 31.5s-36.5 52.167 -36.5 93.5c0 13.333 1.33301 26.666 4 39.999h2c1.33301 -30.667 12.833 -54.5 34.5 -71.5s49.5 -25.5 83.5 -25.5s62 8.5 84 25.5s33.667 40.833 35 71.5h2c2.66699 -13.333 4 -26.666 4 -39.999z
" />
    <glyph glyph-name="ebreve" unicode="&#x115;" horiz-adv-x="486" 
d="M456 278l-299.997 0.000976562v-16c0 -64 13.5 -112.833 40.5 -146.5s61.5 -50.5 103.5 -50.5c72 0 123.667 36.333 155 109h2c-22.667 -121.333 -91.334 -182 -206.001 -182c-63.333 0 -116.5 21.167 -159.5 63.5s-64.5 104.166 -64.5 185.499c0 45.333 6.5 85 19.5 119
s30.667 60.833 53 80.5s46.666 34.167 72.999 43.5s54.166 14 83.499 14c56.667 0 104.5 -16 143.5 -48s58.5 -81 58.5 -147c0 -6 -0.666992 -14.333 -2 -25zM254.003 482.001c-60 0 -92.667 -61.999 -98 -185.999h179c0.666992 5.33301 1 11.666 1 18.999
c0 111.333 -27.333 167 -82 167zM378.003 666.002c0 -41.333 -12.167 -72.5 -36.5 -93.5s-53.833 -31.5 -88.5 -31.5c-34 0 -63.167 10.5 -87.5 31.5s-36.5 52.167 -36.5 93.5c0 13.333 1.33301 26.666 4 39.999h2c1.33301 -30.667 12.833 -54.5 34.5 -71.5
s49.5 -25.5 83.5 -25.5s62 8.5 84 25.5s33.667 40.833 35 71.5h2c2.66699 -13.333 4 -26.666 4 -39.999z" />
    <glyph glyph-name="Edotaccent" unicode="&#x116;" horiz-adv-x="599" 
d="M549 0l-532 0.00292969v2l77 54c7.33301 5.33301 11 12.666 11 21.999v547c0 9.33301 -3.66699 16.666 -11 21.999l-77 54v2h523v-228h-2l-105 192c-6 11.333 -15.333 17 -28 17h-145c-6.66699 0 -11 -1.33301 -13 -4s-3 -8.33398 -3 -17.001v-298h98
c10 0.666992 19 6.33398 27 17.001l76 96h2v-244h-2l-76 97c-8.66699 10.667 -18 16 -28 16h-97v-307c0 -8.66699 1 -14.334 3 -17.001s6.33301 -4 13 -4h150c16 0 26.667 4.33301 32 13l105 196h2v-228zM246 831.003c0 19.333 6.5 35.166 19.5 47.499
s28.833 18.5 47.5 18.5c19.333 0 35.333 -6.16699 48 -18.5s19 -28.166 19 -47.499c0 -18.667 -6.33301 -34.167 -19 -46.5s-28.667 -18.5 -48 -18.5c-18.667 0 -34.5 6.16699 -47.5 18.5s-19.5 27.833 -19.5 46.5z" />
    <glyph glyph-name="edotaccent" unicode="&#x117;" horiz-adv-x="486" 
d="M456 278l-299.997 0.000976562v-16c0 -64 13.5 -112.833 40.5 -146.5s61.5 -50.5 103.5 -50.5c72 0 123.667 36.333 155 109h2c-22.667 -121.333 -91.334 -182 -206.001 -182c-63.333 0 -116.5 21.167 -159.5 63.5s-64.5 104.166 -64.5 185.499c0 45.333 6.5 85 19.5 119
s30.667 60.833 53 80.5s46.666 34.167 72.999 43.5s54.166 14 83.499 14c56.667 0 104.5 -16 143.5 -48s58.5 -81 58.5 -147c0 -6 -0.666992 -14.333 -2 -25zM254.003 482.001c-60 0 -92.667 -61.999 -98 -185.999h179c0.666992 5.33301 1 11.666 1 18.999
c0 111.333 -27.333 167 -82 167zM190.003 619.002c0 19.333 6.5 35.166 19.5 47.499s28.833 18.5 47.5 18.5c19.333 0 35.333 -6.16699 48 -18.5s19 -28.166 19 -47.499c0 -18.667 -6.33301 -34.167 -19 -46.5s-28.667 -18.5 -48 -18.5c-18.667 0 -34.5 6.16699 -47.5 18.5
s-19.5 27.833 -19.5 46.5z" />
    <glyph glyph-name="Eogonek" unicode="&#x118;" horiz-adv-x="599" 
d="M405 -236c-27.333 0 -51.5 9.17188 -72.5 27.5049s-31.5 43.166 -31.5 74.499c0 29.333 12 56.166 36 80.499s56.667 42.166 98 53.499h-418v2l77 54c7.33301 5.33301 11 12.666 11 21.999v547c0 9.33301 -3.66699 16.666 -11 21.999l-77 54v2h523v-228h-2l-105 192
c-6 11.333 -15.333 17 -28 17h-145c-6.66699 0 -11 -1.33301 -13 -4s-3 -8.33398 -3 -17.001v-298h98c10 0.666992 19 6.33398 27 17.001l76 96h2v-244h-2l-76 97c-8.66699 10.667 -18 16 -28 16h-97v-307c0 -8.66699 1 -14.334 3 -17.001s6.33301 -4 13 -4h150
c16 0 26.667 4.33301 32 13l105 196h2v-228h-106c-48 -23.333 -72 -58.666 -72 -105.999c0 -24.667 7 -43.667 21 -57s31.667 -20 53 -20c32 0 57 13.333 75 40l2 -1c-23.333 -61.333 -62.333 -92 -117 -92z" />
    <glyph glyph-name="eogonek" unicode="&#x119;" horiz-adv-x="486" 
d="M263 -236c-27.333 0 -51.498 9.16992 -72.498 27.5029s-31.5 43.166 -31.5 74.499c0 28 11 53.667 33 77s52 40.333 90 51c-13.333 -1.33301 -23.666 -2 -30.999 -2c-63.333 0 -116.5 21.167 -159.5 63.5s-64.5 104.166 -64.5 185.499c0 45.333 6.5 85 19.5 119
s30.667 60.833 53 80.5s46.666 34.167 72.999 43.5s54.166 14 83.499 14c56.667 0 104.5 -16 143.5 -48s58.5 -81 58.5 -147c0 -7.33301 -0.333008 -15.666 -1 -24.999h-301v-16c0 -64 13.5 -112.833 40.5 -146.5s61.5 -50.5 103.5 -50.5c72 0 123.667 36.333 155 109h2
c-18.667 -101.333 -70 -160.333 -154 -177c-23.333 -8.66699 -41.5 -22.334 -54.5 -41.001s-19.5 -39.334 -19.5 -62.001c0 -24.667 6.83301 -43.667 20.5 -57s31.167 -20 52.5 -20c31.333 0 56.666 13.333 75.999 40l2 -1c-23.333 -61.333 -62.333 -92 -117 -92z
M254.002 482.003c-60 0 -92.667 -61.999 -98 -185.999h179c0.666992 5.33301 1 11.666 1 18.999c0 111.333 -27.333 167 -82 167z" />
    <glyph glyph-name="Ecaron" unicode="&#x11a;" horiz-adv-x="599" 
d="M313 845l151 72l1 -1l-151 -174h-2l-151 174l1 1zM549 0l-532 0.00292969v2l77 54c7.33301 5.33301 11 12.666 11 21.999v547c0 9.33301 -3.66699 16.666 -11 21.999l-77 54v2h523v-228h-2l-105 192c-6 11.333 -15.333 17 -28 17h-145c-6.66699 0 -11 -1.33301 -13 -4
s-3 -8.33398 -3 -17.001v-298h98c10 0.666992 19 6.33398 27 17.001l76 96h2v-244h-2l-76 97c-8.66699 10.667 -18 16 -28 16h-97v-307c0 -8.66699 1 -14.334 3 -17.001s6.33301 -4 13 -4h150c16 0 26.667 4.33301 32 13l105 196h2v-228z" />
    <glyph glyph-name="ecaron" unicode="&#x11b;" horiz-adv-x="486" 
d="M257 634l151 72l1 -1l-151 -174h-2l-151 174l1 1zM456 278l-299.997 0.000976562v-16c0 -64 13.5 -112.833 40.5 -146.5s61.5 -50.5 103.5 -50.5c72 0 123.667 36.333 155 109h2c-22.667 -121.333 -91.334 -182 -206.001 -182c-63.333 0 -116.5 21.167 -159.5 63.5
s-64.5 104.166 -64.5 185.499c0 45.333 6.5 85 19.5 119s30.667 60.833 53 80.5s46.666 34.167 72.999 43.5s54.166 14 83.499 14c56.667 0 104.5 -16 143.5 -48s58.5 -81 58.5 -147c0 -6 -0.666992 -14.333 -2 -25zM254.003 482.001c-60 0 -92.667 -61.999 -98 -185.999
h179c0.666992 5.33301 1 11.666 1 18.999c0 111.333 -27.333 167 -82 167z" />
    <glyph glyph-name="Gcircumflex" unicode="&#x11c;" horiz-adv-x="666" 
d="M509 750l-1 -2l-151 72l-151 -72l-1 2l151 173h2zM342 -10c-100.667 0 -177.669 32.1699 -231.002 96.5029s-80 152.166 -80 263.499c0 109.333 29.5 197.166 88.5 263.499s140.5 99.5 244.5 99.5c74.667 0 144.334 -7.33301 209.001 -22v-227h-2l-125 211
c-4.66699 8 -8.5 13.167 -11.5 15.5s-8.83301 3.83301 -17.5 4.5c-9.33301 0.666992 -21 1 -35 1c-127.333 0 -191 -113.333 -191 -340c0 -118.667 13.833 -206.167 41.5 -262.5s70.834 -84.5 129.501 -84.5c22 0 44 4 66 12c8 3.33301 12 9.66602 12 18.999v188
c0 10.667 -3.33301 19 -10 25l-68 56v2h296v-2l-68 -55c-7.33301 -6 -11 -14.667 -11 -26v-238l-121 23c-40 -15.333 -78.667 -23 -116 -23z" />
    <glyph glyph-name="gcircumflex" unicode="&#x11d;" horiz-adv-x="501" 
d="M396 538l-1 -2l-151 72l-151 -72l-1 2l151 173h2zM40 335c0 52 18.6709 92.168 56.0039 120.501s84.666 42.5 141.999 42.5c49.333 0 90.666 -10 123.999 -30c6.66699 -4 13 -2.66699 19 4l100 121h2v-151h-93c36 -28.667 54 -66 54 -112
c0 -50.667 -19.167 -89.5 -57.5 -116.5s-86.833 -40.5 -145.5 -40.5c-25.333 0 -47.666 2.33301 -66.999 7c-31.333 -8.66699 -47 -24 -47 -46c0 -14 8 -25.167 24 -33.5s39 -12.5 69 -12.5h86c57.333 0 101.5 -11.667 132.5 -35s46.5 -57.333 46.5 -102
c0 -57.333 -24.833 -102.833 -74.5 -136.5s-110.5 -50.5 -182.5 -50.5c-54.667 0 -102.334 9.66699 -143.001 29s-61 46.666 -61 81.999c0 24 9.83301 44.833 29.5 62.5s48.5 30.167 86.5 37.5c-30 6.66699 -53.167 18.667 -69.5 36s-24.5 38 -24.5 62
c0 26 10.167 48.833 30.5 68.5s48.166 33.834 83.499 42.501c-36.667 10.667 -65.834 28.667 -87.501 54s-32.5 57.666 -32.5 96.999zM176.004 -28.999l-25 2.00098c-34 -16.667 -51 -42.667 -51 -78s15.333 -62.833 46 -82.5s67 -29.5 109 -29.5
c40.667 0 75.5 9.16699 104.5 27.5s43.5 44.166 43.5 77.499c0 50 -37 76.333 -111 79zM165.004 336.002c0 -98 25.667 -147 77 -147s77 49 77 147s-25.667 147 -77 147s-77 -49 -77 -147z" />
    <glyph glyph-name="Gbreve" unicode="&#x11e;" horiz-adv-x="666" 
d="M342 -10c-100.667 0 -177.669 32.1699 -231.002 96.5029s-80 152.166 -80 263.499c0 109.333 29.5 197.166 88.5 263.499s140.5 99.5 244.5 99.5c74.667 0 144.334 -7.33301 209.001 -22v-227h-2l-125 211c-4.66699 8 -8.5 13.167 -11.5 15.5s-8.83301 3.83301 -17.5 4.5
c-9.33301 0.666992 -21 1 -35 1c-127.333 0 -191 -113.333 -191 -340c0 -118.667 13.833 -206.167 41.5 -262.5s70.834 -84.5 129.501 -84.5c22 0 44 4 66 12c8 3.33301 12 9.66602 12 18.999v188c0 10.667 -3.33301 19 -10 25l-68 56v2h296v-2l-68 -55
c-7.33301 -6 -11 -14.667 -11 -26v-238l-121 23c-40 -15.333 -78.667 -23 -116 -23zM477.998 878.003c0 -41.333 -12.167 -72.5 -36.5 -93.5s-53.833 -31.5 -88.5 -31.5c-34 0 -63.167 10.5 -87.5 31.5s-36.5 52.167 -36.5 93.5c0 13.333 1.33301 26.666 4 39.999h2
c1.33301 -30.667 12.833 -54.5 34.5 -71.5s49.5 -25.5 83.5 -25.5s62 8.5 84 25.5s33.667 40.833 35 71.5h2c2.66699 -13.333 4 -26.666 4 -39.999z" />
    <glyph glyph-name="gbreve" unicode="&#x11f;" horiz-adv-x="501" 
d="M40 335c0 52 18.6709 92.168 56.0039 120.501s84.666 42.5 141.999 42.5c49.333 0 90.666 -10 123.999 -30c6.66699 -4 13 -2.66699 19 4l100 121h2v-151h-93c36 -28.667 54 -66 54 -112c0 -50.667 -19.167 -89.5 -57.5 -116.5s-86.833 -40.5 -145.5 -40.5
c-25.333 0 -47.666 2.33301 -66.999 7c-31.333 -8.66699 -47 -24 -47 -46c0 -14 8 -25.167 24 -33.5s39 -12.5 69 -12.5h86c57.333 0 101.5 -11.667 132.5 -35s46.5 -57.333 46.5 -102c0 -57.333 -24.833 -102.833 -74.5 -136.5s-110.5 -50.5 -182.5 -50.5
c-54.667 0 -102.334 9.66699 -143.001 29s-61 46.666 -61 81.999c0 24 9.83301 44.833 29.5 62.5s48.5 30.167 86.5 37.5c-30 6.66699 -53.167 18.667 -69.5 36s-24.5 38 -24.5 62c0 26 10.167 48.833 30.5 68.5s48.166 33.834 83.499 42.501
c-36.667 10.667 -65.834 28.667 -87.501 54s-32.5 57.666 -32.5 96.999zM176.004 -28.999l-25 2.00098c-34 -16.667 -51 -42.667 -51 -78s15.333 -62.833 46 -82.5s67 -29.5 109 -29.5c40.667 0 75.5 9.16699 104.5 27.5s43.5 44.166 43.5 77.499c0 50 -37 76.333 -111 79z
M165.004 336.002c0 -98 25.667 -147 77 -147s77 49 77 147s-25.667 147 -77 147s-77 -49 -77 -147zM365.004 666.002c0 -41.333 -12.167 -72.5 -36.5 -93.5s-53.833 -31.5 -88.5 -31.5c-34 0 -63.167 10.5 -87.5 31.5s-36.5 52.167 -36.5 93.5
c0 13.333 1.33301 26.666 4 39.999h2c1.33301 -30.667 12.833 -54.5 34.5 -71.5s49.5 -25.5 83.5 -25.5s62 8.5 84 25.5s33.667 40.833 35 71.5h2c2.66699 -13.333 4 -26.666 4 -39.999z" />
    <glyph glyph-name="Gdotaccent" unicode="&#x120;" horiz-adv-x="666" 
d="M342 -10c-100.667 0 -177.669 32.1699 -231.002 96.5029s-80 152.166 -80 263.499c0 109.333 29.5 197.166 88.5 263.499s140.5 99.5 244.5 99.5c74.667 0 144.334 -7.33301 209.001 -22v-227h-2l-125 211c-4.66699 8 -8.5 13.167 -11.5 15.5s-8.83301 3.83301 -17.5 4.5
c-9.33301 0.666992 -21 1 -35 1c-127.333 0 -191 -113.333 -191 -340c0 -118.667 13.833 -206.167 41.5 -262.5s70.834 -84.5 129.501 -84.5c22 0 44 4 66 12c8 3.33301 12 9.66602 12 18.999v188c0 10.667 -3.33301 19 -10 25l-68 56v2h296v-2l-68 -55
c-7.33301 -6 -11 -14.667 -11 -26v-238l-121 23c-40 -15.333 -78.667 -23 -116 -23zM289.998 831.003c0 19.333 6.5 35.166 19.5 47.499s28.833 18.5 47.5 18.5c19.333 0 35.333 -6.16699 48 -18.5s19 -28.166 19 -47.499c0 -18.667 -6.33301 -34.167 -19 -46.5
s-28.667 -18.5 -48 -18.5c-18.667 0 -34.5 6.16699 -47.5 18.5s-19.5 27.833 -19.5 46.5z" />
    <glyph glyph-name="gdotaccent" unicode="&#x121;" horiz-adv-x="501" 
d="M40 335c0 52 18.6709 92.168 56.0039 120.501s84.666 42.5 141.999 42.5c49.333 0 90.666 -10 123.999 -30c6.66699 -4 13 -2.66699 19 4l100 121h2v-151h-93c36 -28.667 54 -66 54 -112c0 -50.667 -19.167 -89.5 -57.5 -116.5s-86.833 -40.5 -145.5 -40.5
c-25.333 0 -47.666 2.33301 -66.999 7c-31.333 -8.66699 -47 -24 -47 -46c0 -14 8 -25.167 24 -33.5s39 -12.5 69 -12.5h86c57.333 0 101.5 -11.667 132.5 -35s46.5 -57.333 46.5 -102c0 -57.333 -24.833 -102.833 -74.5 -136.5s-110.5 -50.5 -182.5 -50.5
c-54.667 0 -102.334 9.66699 -143.001 29s-61 46.666 -61 81.999c0 24 9.83301 44.833 29.5 62.5s48.5 30.167 86.5 37.5c-30 6.66699 -53.167 18.667 -69.5 36s-24.5 38 -24.5 62c0 26 10.167 48.833 30.5 68.5s48.166 33.834 83.499 42.501
c-36.667 10.667 -65.834 28.667 -87.501 54s-32.5 57.666 -32.5 96.999zM176.004 -28.999l-25 2.00098c-34 -16.667 -51 -42.667 -51 -78s15.333 -62.833 46 -82.5s67 -29.5 109 -29.5c40.667 0 75.5 9.16699 104.5 27.5s43.5 44.166 43.5 77.499c0 50 -37 76.333 -111 79z
M165.004 336.002c0 -98 25.667 -147 77 -147s77 49 77 147s-25.667 147 -77 147s-77 -49 -77 -147zM177.004 619.002c0 19.333 6.5 35.166 19.5 47.499s28.833 18.5 47.5 18.5c19.333 0 35.333 -6.16699 48 -18.5s19 -28.166 19 -47.499
c0 -18.667 -6.33301 -34.167 -19 -46.5s-28.667 -18.5 -48 -18.5c-18.667 0 -34.5 6.16699 -47.5 18.5s-19.5 27.833 -19.5 46.5z" />
    <glyph glyph-name="Gcommaaccent" unicode="&#x122;" horiz-adv-x="666" 
d="M299 -245l-1 2.00098c34.667 22 53 49.667 55 83c0 6.66699 -3 10 -9 10c-14 0 -25.5 5.5 -34.5 16.5s-13.5 24.5 -13.5 40.5s5.5 29.667 16.5 41s24.833 17 41.5 17c18 0 32.667 -6.33301 44 -19s17 -29.667 17 -51c0 -31.333 -11.167 -60.333 -33.5 -87
s-49.833 -44.334 -82.5 -53.001zM342 -9.99902c-100.667 0 -177.669 32.1699 -231.002 96.5029s-80 152.166 -80 263.499c0 109.333 29.5 197.166 88.5 263.499s140.5 99.5 244.5 99.5c74.667 0 144.334 -7.33301 209.001 -22v-227h-2l-125 211
c-4.66699 8 -8.5 13.167 -11.5 15.5s-8.83301 3.83301 -17.5 4.5c-9.33301 0.666992 -21 1 -35 1c-127.333 0 -191 -113.333 -191 -340c0 -118.667 13.833 -206.167 41.5 -262.5s70.834 -84.5 129.501 -84.5c22 0 44 4 66 12c8 3.33301 12 9.66602 12 18.999v188
c0 10.667 -3.33301 19 -10 25l-68 56v2h296v-2l-68 -55c-7.33301 -6 -11 -14.667 -11 -26v-238l-121 23c-40 -15.333 -78.667 -23 -116 -23z" />
    <glyph glyph-name="gcommaaccent" unicode="&#x123;" horiz-adv-x="501" 
d="M40 335c0 52 18.6709 92.168 56.0039 120.501s84.666 42.5 141.999 42.5c49.333 0 90.666 -10 123.999 -30c6.66699 -4 13 -2.66699 19 4l100 121h2v-151h-93c36 -28.667 54 -66 54 -112c0 -50.667 -19.167 -89.5 -57.5 -116.5s-86.833 -40.5 -145.5 -40.5
c-25.333 0 -47.666 2.33301 -66.999 7c-31.333 -8.66699 -47 -24 -47 -46c0 -14 8 -25.167 24 -33.5s39 -12.5 69 -12.5h86c57.333 0 101.5 -11.667 132.5 -35s46.5 -57.333 46.5 -102c0 -57.333 -24.833 -102.833 -74.5 -136.5s-110.5 -50.5 -182.5 -50.5
c-54.667 0 -102.334 9.66699 -143.001 29s-61 46.666 -61 81.999c0 24 9.83301 44.833 29.5 62.5s48.5 30.167 86.5 37.5c-30 6.66699 -53.167 18.667 -69.5 36s-24.5 38 -24.5 62c0 26 10.167 48.833 30.5 68.5s48.166 33.834 83.499 42.501
c-36.667 10.667 -65.834 28.667 -87.501 54s-32.5 57.666 -32.5 96.999zM176.004 -28.999l-25 2.00098c-34 -16.667 -51 -42.667 -51 -78s15.333 -62.833 46 -82.5s67 -29.5 109 -29.5c40.667 0 75.5 9.16699 104.5 27.5s43.5 44.166 43.5 77.499c0 50 -37 76.333 -111 79z
M165.004 336.002c0 -98 25.667 -147 77 -147s77 49 77 147s-25.667 147 -77 147s-77 -49 -77 -147zM305.004 752.002l0.999023 -2.00098c-32 -20.667 -50 -48.334 -54 -83.001c-0.666992 -5.33301 2.33301 -8.66602 9 -9.99902c14.667 -2 26.334 -8 35.001 -18
s13 -22.667 13 -38c0 -16.667 -5.5 -30.667 -16.5 -42s-24.833 -17 -41.5 -17c-18 0 -32.833 6.33301 -44.5 19s-17.5 29.667 -17.5 51c0 31.333 11.167 60.333 33.5 87s49.833 44.334 82.5 53.001z" />
    <glyph glyph-name="Hcircumflex" unicode="&#x124;" horiz-adv-x="757" 
d="M530 750l-1 -2l-151 72l-151 -72l-1 2l151 173h2zM652 625v-546.999c0 -9.33301 4 -16.666 12 -21.999l77 -54v-2h-316v2l77 54c7.33301 6 11 13.333 11 22v273h-269v-273c0 -9.33301 4 -16.666 12 -21.999l77 -54v-2h-316v2l77 54c7.33301 5.33301 11 12.666 11 21.999
v547c0 9.33301 -3.66699 16.666 -11 21.999l-77 54v2h316v-2l-77 -54c-8 -6 -12 -13.333 -12 -22v-255h269v255c0 9.33301 -3.66699 16.666 -11 21.999l-77 54v2h316v-2l-77 -54c-8 -6 -12 -13.333 -12 -22z" />
    <glyph glyph-name="hcircumflex" unicode="&#x125;" horiz-adv-x="572" 
d="M292 750l-1 -2l-151 72l-151 -72l-1 2l151 173h2zM500 67c0 -8.66699 3.66699 -15.999 11 -21.999l60 -43v-2h-266v2l57 43c7.33301 6 11 13 11 21c0 0.666992 0.5 29.834 1.5 87.501s1.5 95.167 1.5 112.5c0 56 -6.16699 97.167 -18.5 123.5s-33.5 39.5 -63.5 39.5
c-36.667 0 -67 -20.333 -91 -61v-301c0 -8.66699 3.66699 -16 11 -22l59 -43v-2h-265v2l59 43c6.66699 5.33301 10 12.666 10 21.999v568c0 10 -3.33301 17.667 -10 23l-59 43v2l195 23v-350c24.667 81.333 75.667 122 153 122c97.333 0 146 -68 146 -204
c0 -44.667 -0.666992 -120.334 -2 -227.001z" />
    <glyph glyph-name="Hbar" unicode="&#x126;" horiz-adv-x="757" 
d="M105 476l-83 -0.000976562v18h83v131c0 10.667 -3.66699 18.334 -11 23.001l-79 53v2h320v-2l-79 -53c-8 -5.33301 -12 -13 -12 -23v-131h269v131c0 10 -3.66699 17.667 -11 23l-80 53v2h321v-2l-79 -53c-8 -5.33301 -12 -13 -12 -23v-131h83v-18h-83v-398
c0 -10 4 -17.667 12 -23l79 -53v-2h-321v2l80 53c7.33301 5.33301 11 13 11 23v223h-269v-223c0 -10 4 -17.667 12 -23l79 -53v-2h-320v2l79 53c7.33301 5.33301 11 13 11 23v398zM244 475.999v-155h269v155h-269z" />
    <glyph glyph-name="hbar" unicode="&#x127;" horiz-adv-x="572" 
d="M500 67c0 -8.66699 3.66699 -15.999 11 -21.999l60 -43v-2h-266v2l57 43c7.33301 6 11 13 11 21c0 0.666992 0.5 29.834 1.5 87.501s1.5 95.167 1.5 112.5c0 56 -6.16699 97.167 -18.5 123.5s-33.5 39.5 -63.5 39.5c-36.667 0 -67 -20.333 -91 -61v-301
c0 -8.66699 3.66699 -16 11 -22l59 -43v-2h-265v2l59 43c6.66699 5.33301 10 12.666 10 21.999v497h-71v17h71v54c0 10 -3.33301 17.667 -10 23l-59 43v2l195 23v-145h135v-17h-135v-188c24.667 81.333 75.667 122 153 122c97.333 0 146 -68 146 -204
c0 -44.667 -0.666992 -120.334 -2 -227.001z" />
    <glyph glyph-name="Itilde" unicode="&#x128;" horiz-adv-x="350" 
d="M244 625v-546.999c0 -9.33301 4 -16.666 12 -21.999l77 -54v-2h-316v2l77 54c7.33301 5.33301 11 12.666 11 21.999v547c0 9.33301 -3.66699 16.666 -11 21.999l-77 54v2h316v-2l-77 -54c-8 -6 -12 -13.333 -12 -22zM237 774.001c-16 0 -39.166 7.83301 -69.499 23.5
s-52.5 23.5 -66.5 23.5c-28.667 0 -49.334 -16 -62.001 -48h-2c0 6.66699 0.666992 16.667 2 30c3.33301 27.333 11.666 48.833 24.999 64.5s30.666 23.5 51.999 23.5c16 0 39 -8 69 -24s52 -24 66 -24c30 0 51 16 63 48h2c0 -8 -0.666992 -18.667 -2 -32
c-3.33301 -26 -11.666 -46.667 -24.999 -62s-30.666 -23 -51.999 -23z" />
    <glyph glyph-name="itilde" unicode="&#x129;" horiz-adv-x="297" 
d="M218 490v-423.001c0 -9.33301 3.66699 -16.666 11 -21.999l59 -43v-2h-265v2l59 43c6.66699 4.66699 10 12 10 22v348c0 10 -3.33301 17.667 -10 23l-59 50v2h195zM202 561.999c-16 0 -39.166 7.83301 -69.499 23.5s-52.5 23.5 -66.5 23.5
c-28.667 0 -49.334 -16 -62.001 -48h-2c0 6.66699 0.666992 16.667 2 30c3.33301 27.333 11.666 48.833 24.999 64.5s30.666 23.5 51.999 23.5c16 0 39 -8 69 -24s52 -24 66 -24c30 0 51 16 63 48h2c0 -8 -0.666992 -18.667 -2 -32
c-3.33301 -26 -11.666 -46.667 -24.999 -62s-30.666 -23 -51.999 -23z" />
    <glyph glyph-name="Imacron" unicode="&#x12a;" horiz-adv-x="350" 
d="M244 625v-546.999c0 -9.33301 4 -16.666 12 -21.999l77 -54v-2h-316v2l77 54c7.33301 5.33301 11 12.666 11 21.999v547c0 9.33301 -3.66699 16.666 -11 21.999l-77 54v2h316v-2l-77 -54c-8 -6 -12 -13.333 -12 -22zM304 804.001h-262v18h262v-18z" />
    <glyph glyph-name="imacron" unicode="&#x12b;" horiz-adv-x="297" 
d="M218 490v-423.001c0 -9.33301 3.66699 -16.666 11 -21.999l59 -43v-2h-265v2l59 43c6.66699 4.66699 10 12 10 22v348c0 10 -3.33301 17.667 -10 23l-59 50v2h195zM268 591.999h-262v18h262v-18z" />
    <glyph glyph-name="Ibreve" unicode="&#x12c;" horiz-adv-x="350" 
d="M244 625v-546.999c0 -9.33301 4 -16.666 12 -21.999l77 -54v-2h-316v2l77 54c7.33301 5.33301 11 12.666 11 21.999v547c0 9.33301 -3.66699 16.666 -11 21.999l-77 54v2h316v-2l-77 -54c-8 -6 -12 -13.333 -12 -22zM296 878.001c0 -41.333 -12.167 -72.5 -36.5 -93.5
s-53.833 -31.5 -88.5 -31.5c-34 0 -63.167 10.5 -87.5 31.5s-36.5 52.167 -36.5 93.5c0 13.333 1.33301 26.666 4 39.999h2c1.33301 -30.667 12.833 -54.5 34.5 -71.5s49.5 -25.5 83.5 -25.5s62 8.5 84 25.5s33.667 40.833 35 71.5h2c2.66699 -13.333 4 -26.666 4 -39.999z
" />
    <glyph glyph-name="ibreve" unicode="&#x12d;" horiz-adv-x="297" 
d="M218 490v-423.001c0 -9.33301 3.66699 -16.666 11 -21.999l59 -43v-2h-265v2l59 43c6.66699 4.66699 10 12 10 22v348c0 10 -3.33301 17.667 -10 23l-59 50v2h195zM261 665.999c0 -41.333 -12.167 -72.5 -36.5 -93.5s-53.833 -31.5 -88.5 -31.5
c-34 0 -63.167 10.5 -87.5 31.5s-36.5 52.167 -36.5 93.5c0 13.333 1.33301 26.666 4 39.999h2c1.33301 -30.667 12.833 -54.5 34.5 -71.5s49.5 -25.5 83.5 -25.5s62 8.5 84 25.5s33.667 40.833 35 71.5h2c2.66699 -13.333 4 -26.666 4 -39.999z" />
    <glyph glyph-name="Iogonek" unicode="&#x12e;" horiz-adv-x="350" 
d="M174 -236c-27.333 0 -51.499 9.16895 -72.499 27.502s-31.5 43.166 -31.5 74.499c0 30 11.833 57.333 35.5 82s55.5 42 95.5 52h-184v2l77 54c7.33301 5.33301 11 12.666 11 21.999v547c0 9.33301 -3.66699 16.666 -11 21.999l-77 54v2h316v-2l-77 -54
c-8 -6 -12 -13.333 -12 -22v-547c0 -9.33301 4 -16.666 12 -21.999l77 -54v-2h-122c-47.333 -20.667 -71 -56 -71 -106c0 -24.667 6.83301 -43.667 20.5 -57s31.167 -20 52.5 -20c31.333 0 56.666 13.333 75.999 40l2 -1c-23.333 -61.333 -62.333 -92 -117 -92z" />
    <glyph glyph-name="iogonek" unicode="&#x12f;" horiz-adv-x="297" 
d="M156 -236c-27.333 0 -51.499 9.16895 -72.499 27.502s-31.5 43.166 -31.5 74.499c0 30 11.833 57.333 35.5 82s55.5 42 95.5 52h-161v2l59 43c6.66699 5.33301 10 12.666 10 21.999v348c0 10 -3.33301 17.667 -10 23l-59 50v2h195v-423c0 -8.66699 3.66699 -16 11 -22
l59 -43v-2h-94c-47.333 -20.667 -71 -56 -71 -106c0 -24.667 6.83301 -43.667 20.5 -57s31.167 -20 52.5 -20c31.333 0 56.666 13.333 75.999 40l2 -1c-23.333 -61.333 -62.333 -92 -117 -92zM149.001 556.002c-19.333 0 -35.666 6.33301 -48.999 19s-20 28.334 -20 47.001
c0 20 6.66699 36.5 20 49.5s29.666 19.5 48.999 19.5c20 0 36.667 -6.5 50 -19.5s20 -29.5 20 -49.5c0 -18.667 -6.83301 -34.334 -20.5 -47.001s-30.167 -19 -49.5 -19z" />
    <glyph glyph-name="Idotaccent" unicode="&#x130;" horiz-adv-x="350" 
d="M244 625v-546.999c0 -9.33301 4 -16.666 12 -21.999l77 -54v-2h-316v2l77 54c7.33301 5.33301 11 12.666 11 21.999v547c0 9.33301 -3.66699 16.666 -11 21.999l-77 54v2h316v-2l-77 -54c-8 -6 -12 -13.333 -12 -22zM106 831.001c0 19.333 6.5 35.166 19.5 47.499
s28.833 18.5 47.5 18.5c19.333 0 35.333 -6.16699 48 -18.5s19 -28.166 19 -47.499c0 -18.667 -6.33301 -34.167 -19 -46.5s-28.667 -18.5 -48 -18.5c-18.667 0 -34.5 6.16699 -47.5 18.5s-19.5 27.833 -19.5 46.5z" />
    <glyph glyph-name="dotlessi" unicode="&#x131;" horiz-adv-x="297" 
d="M218 490v-423.001c0 -9.33301 3.66699 -16.666 11 -21.999l59 -43v-2h-265v2l59 43c6.66699 4.66699 10 12 10 22v348c0 10 -3.33301 17.667 -10 23l-59 50v2h195z" />
    <glyph glyph-name="IJ" unicode="&#x132;" horiz-adv-x="670" 
d="M244 625v-546.999c0 -9.33301 4 -16.666 12 -21.999l77 -54v-2h-316v2l77 54c7.33301 5.33301 11 12.666 11 21.999v547c0 9.33301 -3.66699 16.666 -11 21.999l-77 54v2h316v-2l-77 -54c-8 -6 -12 -13.333 -12 -22zM440 40.001v585.001c0 9.33301 -4 16.666 -12 21.999
l-77 54v2h316v-2l-77 -54c-8 -6 -12 -13.333 -12 -22v-557c0 -82.667 -23.333 -148 -70 -196s-111 -75.667 -193 -83l-1 2c84 42 126 125 126 249z" />
    <glyph glyph-name="ij" unicode="&#x133;" horiz-adv-x="570" 
d="M149 556c-19.333 0 -35.666 6.33301 -48.999 19s-20 28.334 -20 47.001c0 20 6.66699 36.5 20 49.5s29.666 19.5 48.999 19.5c20 0 36.667 -6.5 50 -19.5s20 -29.5 20 -49.5c0 -18.667 -6.83301 -34.334 -20.5 -47.001s-30.167 -19 -49.5 -19zM22 490l195 0.000976562
v-423c0 -8.66699 3.66699 -16 11 -22l59 -43v-2h-265v2l59 43c6.66699 5.33301 10 12.666 10 21.999v348c0 10 -3.33301 17.667 -10 23l-59 50v2zM312 490.001l195 0.000976562v-462c0 -74.667 -18.5 -134.5 -55.5 -179.5s-90.833 -67.5 -161.5 -67.5
c-6 0 -15 0.666992 -27 2v2c39.333 5.33301 68.833 24.166 88.5 56.499s29.5 81.5 29.5 147.5v426c0 10 -3.33301 17.667 -10 23l-59 50v2zM370 622.002c0 20 6.66602 36.5 19.999 49.5s29.666 19.5 48.999 19.5c20 0 36.5 -6.5 49.5 -19.5s19.5 -29.5 19.5 -49.5
c0 -18.667 -6.66699 -34.334 -20 -47.001s-29.666 -19 -48.999 -19s-35.666 6.33301 -48.999 19s-20 28.334 -20 47.001z" />
    <glyph glyph-name="Jcircumflex" unicode="&#x134;" horiz-adv-x="320" 
d="M313 750l-1 -2l-151 72l-151 -72l-1 2l151 173h2zM91 40v585.001c0 9.33301 -4 16.666 -12 21.999l-77 54v2h316v-2l-77 -54c-8 -6 -12 -13.333 -12 -22v-557c0 -82.667 -23.333 -148 -70 -196s-111 -75.667 -193 -83l-1 2c84 42 126 125 126 249z" />
    <glyph glyph-name="jcircumflex" unicode="&#x135;" horiz-adv-x="273" 
d="M-5 -219c-12.667 0 -22.333 0.667969 -29 2.00098v2c39.333 5.33301 68.833 24.166 88.5 56.499s29.5 81.5 29.5 147.5v426c0 9.33301 -3.33301 17 -10 23l-59 50v2h195v-462c0 -74.667 -18.333 -134.5 -55 -179.5s-90 -67.5 -160 -67.5zM289.001 538.001l-1 -2l-151 72
l-151 -72l-1 2l151 173h2z" />
    <glyph glyph-name="Kcommaaccent" unicode="&#x136;" horiz-adv-x="675" 
d="M320 -245l-1 2.00098c34.667 22 53 49.667 55 83c0 6.66699 -3 10 -9 10c-14 0 -25.5 5.5 -34.5 16.5s-13.5 24.5 -13.5 40.5s5.5 29.667 16.5 41s24.833 17 41.5 17c18 0 32.667 -6.33301 44 -19s17 -29.667 17 -51c0 -31.333 -11.167 -60.333 -33.5 -87
s-49.833 -44.334 -82.5 -53.001zM244 625.001v-546.999c0 -9.33301 4 -16.666 12 -21.999l77 -54v-2h-316v2l77 54c7.33301 5.33301 11 12.666 11 21.999v547c0 9.33301 -3.66699 16.666 -11 21.999l-77 54v2h316v-2l-77 -54c-8 -6 -12 -13.333 -12 -22zM507 587.002
l-147 -153.002l233 -342c10 -14.667 20 -26 30 -34l65 -56v-2h-198l-237 348l236 248c5.33301 6.66699 7.66602 11.334 6.99902 14.001s-4 7 -10 13l-81 78v2h283v-2l-135 -80c-19.333 -11.333 -34.666 -22.666 -45.999 -33.999z" />
    <glyph glyph-name="kcommaaccent" unicode="&#x137;" horiz-adv-x="535" 
d="M238 -245l-1 2.00098c34.667 22 53 49.667 55 83c0 6.66699 -3 10 -9 10c-14 0 -25.5 5.5 -34.5 16.5s-13.5 24.5 -13.5 40.5s5.5 29.667 16.5 41s24.833 17 41.5 17c18 0 32.667 -6.33301 44 -19s17 -29.667 17 -51c0 -31.333 -11.167 -60.333 -33.5 -87
s-49.833 -44.334 -82.5 -53.001zM473 70.001c6 -12 13.668 -21.667 23.001 -29l50 -39v-2h-181l-121 242c-5.33301 10 -12.333 15 -21 15c-6.66699 0 -13.334 -2.33301 -20.001 -7v-183c0 -8.66699 3.66699 -16 11 -22l59 -43v-2h-265v2l59 43
c6.66699 5.33301 10 12.666 10 21.999v568c0 10 -3.33301 17.667 -10 23l-59 43v2l195 23v-467l180 136c6.66699 4.66699 7 10.334 1 17.001l-72 76v2h221v-2l-190 -143c-7.33301 -5.33301 -9.33301 -11 -6 -17z" />
    <glyph glyph-name="kgreenlandic" unicode="&#x138;" horiz-adv-x="549" 
d="M560 0h-181l-121 242c-5.33301 10 -12 15 -20 15c-6.66699 0 -13.667 -2.33301 -21 -7v-183c0 -8.66699 3.66699 -16 11 -22l59 -43v-2h-265v2l59 43c6.66699 5.33301 10 12.666 10 21.999v348c0 10 -3.33301 17.667 -10 23l-59 50v2h195v-231l180 136
c6.66699 4.66699 7 10.334 1 17.001l-72 76v2h221v-2l-190 -143c-7.33301 -5.33301 -9.33301 -11 -6 -17l136 -258c6 -12 13.667 -21.667 23 -29l50 -39v-2z" />
    <glyph glyph-name="Lacute" unicode="&#x139;" horiz-adv-x="567" 
d="M196 915h138v-2l-221 -163l-2 2zM537 0l-520.001 0.00292969v2l77 54c7.33301 5.33301 11 12.666 11 21.999v547c0 9.33301 -3.66699 16.666 -11 21.999l-77 54v2h316v-2l-77 -54c-8 -6 -12 -13.333 -12 -22v-585c0 -8.66699 1 -14.334 3 -17.001s6.33301 -4 13 -4h129
c16.667 0 27.334 4.33301 32.001 13l114 208h2v-240z" />
    <glyph glyph-name="lacute" unicode="&#x13a;" horiz-adv-x="281" 
d="M162 915h138v-2l-221 -163l-2 2zM203 726v-658.999c0 -8.66699 3.66699 -16 11 -22l59 -43v-2h-265v2l59 43c6.66699 5.33301 10 12.666 10 21.999v568c0 10 -3.33301 17.667 -10 23l-59 43v2z" />
    <glyph glyph-name="Lcommaaccent" unicode="&#x13b;" horiz-adv-x="567" 
d="M252 -245l-1 2.00098c34.667 22 53 49.667 55 83c0 6.66699 -3 10 -9 10c-14 0 -25.5 5.5 -34.5 16.5s-13.5 24.5 -13.5 40.5s5.5 29.667 16.5 41s24.833 17 41.5 17c18 0 32.667 -6.33301 44 -19s17 -29.667 17 -51c0 -31.333 -11.167 -60.333 -33.5 -87
s-49.833 -44.334 -82.5 -53.001zM537 0.000976562l-520.001 0.00292969v2l77 54c7.33301 5.33301 11 12.666 11 21.999v547c0 9.33301 -3.66699 16.666 -11 21.999l-77 54v2h316v-2l-77 -54c-8 -6 -12 -13.333 -12 -22v-585c0 -8.66699 1 -14.334 3 -17.001
s6.33301 -4 13 -4h129c16.667 0 27.334 4.33301 32.001 13l114 208h2v-240z" />
    <glyph glyph-name="lcommaaccent" unicode="&#x13c;" horiz-adv-x="281" 
d="M86 -245l-1 2.00098c34.667 22 53 49.667 55 83c0 6.66699 -3 10 -9 10c-14 0 -25.5 5.5 -34.5 16.5s-13.5 24.5 -13.5 40.5s5.5 29.667 16.5 41s24.833 17 41.5 17c18 0 32.667 -6.33301 44 -19s17 -29.667 17 -51c0 -31.333 -11.167 -60.333 -33.5 -87
s-49.833 -44.334 -82.5 -53.001zM203 726.001v-658.999c0 -8.66699 3.66699 -16 11 -22l59 -43v-2h-265v2l59 43c6.66699 5.33301 10 12.666 10 21.999v568c0 10 -3.33301 17.667 -10 23l-59 43v2z" />
    <glyph glyph-name="Lcaron" unicode="&#x13d;" horiz-adv-x="565" 
d="M390 510l9 193h102l-109 -193h-2zM537 0l-520.001 0.00292969v2l77 54c7.33301 5.33301 11 12.666 11 21.999v547c0 9.33301 -3.66699 16.666 -11 21.999l-77 54v2h316v-2l-77 -54c-8 -6 -12 -13.333 -12 -22v-585c0 -8.66699 1 -14.334 3 -17.001s6.33301 -4 13 -4h129
c16.667 0 27.334 4.33301 32.001 13l114 208h2v-240z" />
    <glyph glyph-name="lcaron" unicode="&#x13e;" horiz-adv-x="301" 
d="M256 510l9 193h102l-109 -193h-2zM203 726v-658.999c0 -8.66699 3.66699 -16 11 -22l59 -43v-2h-265v2l59 43c6.66699 5.33301 10 12.666 10 21.999v568c0 10 -3.33301 17.667 -10 23l-59 43v2z" />
    <glyph glyph-name="Ldot" unicode="&#x13f;" horiz-adv-x="572" 
d="M538 0l-520.001 0.00292969v2l77 54c7.33301 5.33301 11 12.666 11 21.999v547c0 9.33301 -3.66699 16.666 -11 21.999l-77 54v2h316v-2l-77 -54c-8 -6 -12 -13.333 -12 -22v-585c0 -8.66699 1 -14.334 3 -17.001s6.33301 -4 13 -4h129
c16.667 0 27.334 4.33301 32.001 13l114 208h2v-240zM360.999 386.003c0 19.333 6.5 35.166 19.5 47.499s28.833 18.5 47.5 18.5c19.333 0 35.333 -6.16699 48 -18.5s19 -28.166 19 -47.499c0 -18.667 -6.33301 -34.167 -19 -46.5s-28.667 -18.5 -48 -18.5
c-18.667 0 -34.5 6.16699 -47.5 18.5s-19.5 27.833 -19.5 46.5z" />
    <glyph glyph-name="ldot" unicode="&#x140;" horiz-adv-x="383" 
d="M203 726v-658.999c0 -8.66699 3.66699 -16 11 -22l59 -43v-2h-265v2l59 43c6.66699 5.33301 10 12.666 10 21.999v568c0 10 -3.33301 17.667 -10 23l-59 43v2zM250 355.001c0 19.333 6.5 35.166 19.5 47.499s28.833 18.5 47.5 18.5c19.333 0 35.333 -6.16699 48 -18.5
s19 -28.166 19 -47.499c0 -18.667 -6.33301 -34.167 -19 -46.5s-28.667 -18.5 -48 -18.5c-18.667 0 -34.5 6.16699 -47.5 18.5s-19.5 27.833 -19.5 46.5z" />
    <glyph glyph-name="Lslash" unicode="&#x141;" horiz-adv-x="573" 
d="M250 38c0 -8.66699 1.16699 -13.998 3.5 -15.998s7.16602 -3 14.499 -3h127c16.667 0 27.334 4.33301 32.001 13l114 208h2v-240h-520v2l77 54c7.33301 5.33301 11 12.666 11 21.999v217l-80 -33l-7 16l87 36v311c0 9.33301 -3.66699 16.666 -11 21.999l-77 54v2h316v-2
l-77 -54c-8 -6 -12 -13.333 -12 -22v-253l126 53l7 -17l-133 -56v-314z" />
    <glyph glyph-name="lslash" unicode="&#x142;" horiz-adv-x="310" 
d="M216 67c0 -8.66699 3.66699 -15.999 11 -21.999l59 -43v-2h-265v2l59 43c6.66699 5.33301 10 12.666 10 21.999v234l-94 -39l-7 16l101 42v315c0 10 -3.33301 17.667 -10 23l-59 43v2l195 23v-353l108 45l7 -16l-115 -48v-287z" />
    <glyph glyph-name="Nacute" unicode="&#x143;" horiz-adv-x="693" 
d="M372 915h138v-2l-221 -163l-2 2zM18 703l202 0.000976562l350 -560v429c0 11.333 -4.66699 21.666 -14 30.999l-98 98v2h244v-2l-97 -98c-10 -10.667 -15 -21 -15 -31v-572h-93l-357 570v-439c0 -11.333 5 -21.666 15 -30.999l98 -98v-2h-245v2l98 98
c9.33301 9.33301 14 19.666 14 30.999v449c0 14 -3.66699 25 -11 33l-91 88v2z" />
    <glyph glyph-name="nacute" unicode="&#x144;" horiz-adv-x="587" 
d="M319 703h138v-2l-221 -163l-2 2zM390 266c0 56 -6.16699 97.168 -18.5 123.501s-33.5 39.5 -63.5 39.5c-36.667 0 -67 -20.333 -91 -61v-301c0 -8.66699 3.66699 -16 11 -22l59 -43v-2h-265v2l59 43c6.66699 5.33301 10 12.666 10 21.999v348
c0 10 -3.33301 17.667 -10 23l-59 50v2h195v-114c24.667 81.333 75.667 122 153 122c97.333 0 146 -68 146 -204c0 -44.667 -0.666992 -120.334 -2 -227.001c0 -8.66699 3.66699 -16 11 -22l59 -43v-2h-265v2l56 43c8 5.33301 12 12.333 12 21
c0 0.666992 0.5 29.834 1.5 87.501s1.5 95.167 1.5 112.5z" />
    <glyph glyph-name="Ncommaaccent" unicode="&#x145;" horiz-adv-x="693" 
d="M297 -245l-1 2.00098c34.667 22 53 49.667 55 83c0 6.66699 -3 10 -9 10c-14 0 -25.5 5.5 -34.5 16.5s-13.5 24.5 -13.5 40.5s5.5 29.667 16.5 41s24.833 17 41.5 17c18 0 32.667 -6.33301 44 -19s17 -29.667 17 -51c0 -31.333 -11.167 -60.333 -33.5 -87
s-49.833 -44.334 -82.5 -53.001zM18 703.001l202 0.000976562l350 -560v429c0 11.333 -4.66699 21.666 -14 30.999l-98 98v2h244v-2l-97 -98c-10 -10.667 -15 -21 -15 -31v-572h-93l-357 570v-439c0 -11.333 5 -21.666 15 -30.999l98 -98v-2h-245v2l98 98
c9.33301 9.33301 14 19.666 14 30.999v449c0 14 -3.66699 25 -11 33l-91 88v2z" />
    <glyph glyph-name="ncommaaccent" unicode="&#x146;" horiz-adv-x="587" 
d="M249 -245l-1 2.00098c34.667 22 53 49.667 55 83c0 6.66699 -3 10 -9 10c-14 0 -25.5 5.5 -34.5 16.5s-13.5 24.5 -13.5 40.5s5.5 29.667 16.5 41s24.833 17 41.5 17c18 0 32.667 -6.33301 44 -19s17 -29.667 17 -51c0 -31.333 -11.167 -60.333 -33.5 -87
s-49.833 -44.334 -82.5 -53.001zM390 266.001c0 56 -6.16699 97.168 -18.5 123.501s-33.5 39.5 -63.5 39.5c-36.667 0 -67 -20.333 -91 -61v-301c0 -8.66699 3.66699 -16 11 -22l59 -43v-2h-265v2l59 43c6.66699 5.33301 10 12.666 10 21.999v348
c0 10 -3.33301 17.667 -10 23l-59 50v2h195v-114c24.667 81.333 75.667 122 153 122c97.333 0 146 -68 146 -204c0 -44.667 -0.666992 -120.334 -2 -227.001c0 -8.66699 3.66699 -16 11 -22l59 -43v-2h-265v2l56 43c8 5.33301 12 12.333 12 21
c0 0.666992 0.5 29.834 1.5 87.501s1.5 95.167 1.5 112.5z" />
    <glyph glyph-name="Ncaron" unicode="&#x147;" horiz-adv-x="693" 
d="M350 845l151 72l1 -1l-151 -174h-2l-151 174l1 1zM18 703l202 0.000976562l350 -560v429c0 11.333 -4.66699 21.666 -14 30.999l-98 98v2h244v-2l-97 -98c-10 -10.667 -15 -21 -15 -31v-572h-93l-357 570v-439c0 -11.333 5 -21.666 15 -30.999l98 -98v-2h-245v2l98 98
c9.33301 9.33301 14 19.666 14 30.999v449c0 14 -3.66699 25 -11 33l-91 88v2z" />
    <glyph glyph-name="ncaron" unicode="&#x148;" horiz-adv-x="587" 
d="M297 634l151 72l1 -1l-151 -174h-2l-151 174l1 1zM390 266c0 56 -6.16699 97.168 -18.5 123.501s-33.5 39.5 -63.5 39.5c-36.667 0 -67 -20.333 -91 -61v-301c0 -8.66699 3.66699 -16 11 -22l59 -43v-2h-265v2l59 43c6.66699 5.33301 10 12.666 10 21.999v348
c0 10 -3.33301 17.667 -10 23l-59 50v2h195v-114c24.667 81.333 75.667 122 153 122c97.333 0 146 -68 146 -204c0 -44.667 -0.666992 -120.334 -2 -227.001c0 -8.66699 3.66699 -16 11 -22l59 -43v-2h-265v2l56 43c8 5.33301 12 12.333 12 21
c0 0.666992 0.5 29.834 1.5 87.501s1.5 95.167 1.5 112.5z" />
    <glyph glyph-name="napostrophe" unicode="&#x149;" horiz-adv-x="630" 
d="M-27 480l-1 2.00098c34.667 22 53 49.667 55 83c0 6.66699 -3 10 -9 10c-14 0 -25.5 5.5 -34.5 16.5s-13.5 24.5 -13.5 40.5s5.5 29.667 16.5 41s24.833 17 41.5 17c18 0 32.667 -6.33301 44 -19s17 -29.667 17 -51c0 -31.333 -11.167 -60.333 -33.5 -87
s-49.833 -44.334 -82.5 -53.001zM433 266.001c0 56 -6.16699 97.168 -18.5 123.501s-33.5 39.5 -63.5 39.5c-36.667 0 -67 -20.333 -91 -61v-301c0 -8.66699 3.66699 -16 11 -22l59 -43v-2h-265v2l59 43c6.66699 5.33301 10 12.666 10 21.999v348
c0 10 -3.33301 17.667 -10 23l-59 50v2h195v-114c24.667 81.333 75.667 122 153 122c97.333 0 146 -68 146 -204c0 -44.667 -0.666992 -120.334 -2 -227.001c0 -8.66699 3.66699 -16 11 -22l59 -43v-2h-265v2l56 43c8 5.33301 12 12.333 12 21
c0 0.666992 0.5 29.834 1.5 87.501s1.5 95.167 1.5 112.5z" />
    <glyph glyph-name="Eng" unicode="&#x14a;" horiz-adv-x="661" 
d="M611 507l0.000976562 -451c0 -82 -22.167 -146.167 -66.5 -192.5s-104.5 -69.5 -180.5 -69.5v2c76.667 17.333 115 83 115 197v493c0 104.667 -40.333 157 -121 157c-20.667 0 -42.334 -6 -65.001 -18s-39 -26.667 -49 -44v-503c0 -9.33301 4 -16.666 12 -21.999l77 -54
v-2h-316v2l77 54c7.33301 5.33301 11 12.666 11 21.999v547c0 9.33301 -3.66699 16.666 -11 21.999l-77 54v2h227v-114c12 38.667 34.167 68.834 66.5 90.501s68.833 32.5 109.5 32.5c56 0 101.833 -17.667 137.5 -53s53.5 -86 53.5 -152z" />
    <glyph glyph-name="eng" unicode="&#x14b;" horiz-adv-x="572" 
d="M390 -18v284.001c0 56 -6.16699 97.167 -18.5 123.5s-33.5 39.5 -63.5 39.5c-36.667 0 -67 -20.333 -91 -61v-301c0 -8.66699 3.66699 -16 11 -22l59 -43v-2h-265v2l59 43c6.66699 5.33301 10 12.666 10 21.999v348c0 10 -3.33301 17.667 -10 23l-59 50v2h195v-114
c24.667 81.333 75.667 122 153 122c97.333 0 146 -68 146 -204v-249c0 -82.667 -21.667 -147 -65 -193s-103 -69 -179 -69v2c78.667 18 118 83.667 118 197z" />
    <glyph glyph-name="Omacron" unicode="&#x14c;" horiz-adv-x="708" 
d="M482 804h-262v18h262v-18zM355 7c108.667 0 163 115 163 345c0 229.333 -54.333 344 -163 344c-109.333 0 -164 -114.667 -164 -344c0 -228.667 54.667 -343.667 164 -345zM355 713c102 0 181 -31.5 237 -94.5s84 -151.833 84 -266.5c0 -115.333 -28 -204.5 -84 -267.5
s-135 -94.5 -237 -94.5s-181.333 31.5 -238 94.5s-85 152.167 -85 267.5c0 114.667 28.333 203.5 85 266.5s136 94.5 238 94.5z" />
    <glyph glyph-name="omacron" unicode="&#x14d;" horiz-adv-x="536" 
d="M396 592h-262v18h262v-18zM268 482c-32 0 -56.333 -17.6689 -73 -53.002s-25 -96.333 -25 -183c0 -87.333 8.33301 -148.833 25 -184.5s41 -53.5 73 -53.5s56.5 17.833 73.5 53.5s25.5 96.834 25.5 183.501s-8.5 147.834 -25.5 183.501s-41.5 53.5 -73.5 53.5z
M268 -8.00195c-74 0 -132.667 21.999 -176 65.999s-65 106.667 -65 188c0 80.667 21.667 142.834 65 186.501s102 65.5 176 65.5c74.667 0 133.5 -21.833 176.5 -65.5s64.5 -106.167 64.5 -187.5c0 -80.667 -21.667 -143 -65 -187s-102 -66 -176 -66z" />
    <glyph glyph-name="Obreve" unicode="&#x14e;" horiz-adv-x="708" 
d="M355 7c108.667 0 163 115 163 345c0 229.333 -54.333 344 -163 344c-109.333 0 -164 -114.667 -164 -344c0 -228.667 54.667 -343.667 164 -345zM355 713c102 0 181 -31.5 237 -94.5s84 -151.833 84 -266.5c0 -115.333 -28 -204.5 -84 -267.5s-135 -94.5 -237 -94.5
s-181.333 31.5 -238 94.5s-85 152.167 -85 267.5c0 114.667 28.333 203.5 85 266.5s136 94.5 238 94.5zM474 878c0 -41.333 -12.167 -72.5 -36.5 -93.5s-53.833 -31.5 -88.5 -31.5c-34 0 -63.167 10.5 -87.5 31.5s-36.5 52.167 -36.5 93.5c0 13.333 1.33301 26.666 4 39.999
h2c1.33301 -30.667 12.833 -54.5 34.5 -71.5s49.5 -25.5 83.5 -25.5s62 8.5 84 25.5s33.667 40.833 35 71.5h2c2.66699 -13.333 4 -26.666 4 -39.999z" />
    <glyph glyph-name="obreve" unicode="&#x14f;" horiz-adv-x="536" 
d="M268 482c-32 0 -56.333 -17.6689 -73 -53.002s-25 -96.333 -25 -183c0 -87.333 8.33301 -148.833 25 -184.5s41 -53.5 73 -53.5s56.5 17.833 73.5 53.5s25.5 96.834 25.5 183.501s-8.5 147.834 -25.5 183.501s-41.5 53.5 -73.5 53.5zM268 -8.00195
c-74 0 -132.667 21.999 -176 65.999s-65 106.667 -65 188c0 80.667 21.667 142.834 65 186.501s102 65.5 176 65.5c74.667 0 133.5 -21.833 176.5 -65.5s64.5 -106.167 64.5 -187.5c0 -80.667 -21.667 -143 -65 -187s-102 -66 -176 -66zM388 665.997
c0 -41.333 -12.167 -72.5 -36.5 -93.5s-53.833 -31.5 -88.5 -31.5c-34 0 -63.167 10.5 -87.5 31.5s-36.5 52.167 -36.5 93.5c0 13.333 1.33301 26.666 4 39.999h2c1.33301 -30.667 12.833 -54.5 34.5 -71.5s49.5 -25.5 83.5 -25.5s62 8.5 84 25.5s33.667 40.833 35 71.5h2
c2.66699 -13.333 4 -26.666 4 -39.999z" />
    <glyph glyph-name="Ohungarumlaut" unicode="&#x150;" horiz-adv-x="708" 
d="M308 915h115v-2l-174 -170h-2zM459 915h114v-2l-173 -170h-2zM355 7c108.667 0 163 115 163 345c0 229.333 -54.333 344 -163 344c-109.333 0 -164 -114.667 -164 -344c0 -228.667 54.667 -343.667 164 -345zM355 713c102 0 181 -31.5 237 -94.5s84 -151.833 84 -266.5
c0 -115.333 -28 -204.5 -84 -267.5s-135 -94.5 -237 -94.5s-181.333 31.5 -238 94.5s-85 152.167 -85 267.5c0 114.667 28.333 203.5 85 266.5s136 94.5 238 94.5z" />
    <glyph glyph-name="ohungarumlaut" unicode="&#x151;" horiz-adv-x="536" 
d="M222 703h115v-2l-174 -170h-2zM373 703h114v-2l-173 -170h-2zM268 482c-32 0 -56.333 -17.6689 -73 -53.002s-25 -96.333 -25 -183c0 -87.333 8.33301 -148.833 25 -184.5s41 -53.5 73 -53.5s56.5 17.833 73.5 53.5s25.5 96.834 25.5 183.501s-8.5 147.834 -25.5 183.501
s-41.5 53.5 -73.5 53.5zM268 -8.00195c-74 0 -132.667 21.999 -176 65.999s-65 106.667 -65 188c0 80.667 21.667 142.834 65 186.501s102 65.5 176 65.5c74.667 0 133.5 -21.833 176.5 -65.5s64.5 -106.167 64.5 -187.5c0 -80.667 -21.667 -143 -65 -187s-102 -66 -176 -66
z" />
    <glyph glyph-name="OE" unicode="&#x152;" horiz-adv-x="975" 
d="M820 233l-69.002 96c-7.33301 10.667 -16.666 16 -27.999 16h-104v-304c0 -10 1.33301 -16.167 4 -18.5s10.334 -3.5 23.001 -3.5h139c16.667 0 27.334 4.33301 32.001 13l105 189h3v-221h-422c-40.667 -6.66699 -82.667 -10 -126 -10c-114 0 -200 32 -258 96
s-87 152.667 -87 266c0 110.667 29.667 198.5 89 263.5s141.666 97.5 246.999 97.5c50.667 0 94.334 -3.33301 131.001 -10h411v-221h-2l-106 185c-6.66699 11.333 -16.334 17 -29.001 17h-138c-6.66699 0 -11 -1.33301 -13 -4s-3 -8.33398 -3 -17.001v-300h105
c10.667 0.666992 19.667 6.33398 27 17.001l69 96h2v-243h-2zM479.998 72l-0.000976562 555.001c0 18 -5.33301 31 -16 39c-28 20 -60 30 -96 30c-118 0 -177 -114.333 -177 -343c0 -115.333 14.833 -201.833 44.5 -259.5s76.834 -86.5 141.501 -86.5
c34 0 63.333 10.333 88 31c10 9.33301 15 20.666 15 33.999z" />
    <glyph glyph-name="oe" unicode="&#x153;" horiz-adv-x="835" 
d="M268 -8c-74 0 -132.666 21.998 -175.999 65.998s-65 106.667 -65 188c0 80.667 21.667 142.834 65 186.501s102 65.5 176 65.5c78 0 136.333 -25 175 -75c38.667 50 93 75 163 75c56 0 103.5 -16 142.5 -48s58.5 -81 58.5 -147c0 -9.33301 -0.333008 -17.666 -1 -24.999
h-301v-27c0 -60 13.667 -106 41 -138s61.666 -48 102.999 -48c72 0 124 36.333 156 109h2c-22.667 -121.333 -91.667 -182 -207 -182c-69.333 0 -122.333 24.667 -159 74c-39.333 -49.333 -97 -74 -173 -74zM268.001 481.998c-32 0 -56.333 -17.667 -73 -53
s-25 -96.333 -25 -183s8.33301 -147.834 25 -183.501s41 -53.5 73 -53.5s56.5 17.667 73.5 53s25.5 96.333 25.5 183s-8.5 147.834 -25.5 183.501s-41.5 53.5 -73.5 53.5zM506.001 295.998l179.001 -0.000976562v3c0 64.667 -6.5 111.334 -19.5 140.001s-33.5 43 -61.5 43
c-60.667 0 -93.334 -62 -98.001 -186z" />
    <glyph glyph-name="Racute" unicode="&#x154;" horiz-adv-x="664" 
d="M336 915h138v-2l-221 -163l-2 2zM287 323h-43v-246c0 -9.33301 4 -16.666 12 -21.999l79 -53v-2h-318v2l77 54c7.33301 5.33301 11 12.666 11 21.999v547c0 9.33301 -3.66699 16.666 -11 21.999l-77 54v2h340c68 0 123.667 -15.5 167 -46.5s65 -77.5 65 -139.5
c0 -47.333 -16.833 -87.333 -50.5 -120s-79.5 -53.667 -137.5 -63v-2l74 -39l123 -212c7.33301 -13.333 17.333 -25.666 30 -36.999l48 -42v-2h-192l-171 308c-6 10 -14.667 15 -26 15zM244 664v-322h50c96 0 144 55.667 144 167c0 62.667 -11.667 107.5 -35 134.5
s-57 40.5 -101 40.5h-39c-7.33301 0 -12.333 -1.33301 -15 -4s-4 -8 -4 -16z" />
    <glyph glyph-name="racute" unicode="&#x155;" horiz-adv-x="412" 
d="M245 703h138v-2l-221 -163l-2 2zM217 338l-0.000976562 -262.999c0 -10 4.66699 -17.667 14 -23l103 -50v-2h-312v2l59 43c6.66699 5.33301 10 12.666 10 21.999v348c0 10 -3.33301 17.667 -10 23l-59 50v2h195v-141c8.66699 40 25.5 74.833 50.5 104.5
s56.5 44.5 94.5 44.5c22.667 0 42 -7 58 -21l-53 -152h-2l-63 103c-3.33301 4 -7.66602 5 -12.999 3c-11.333 -4.66699 -22 -13 -32 -25s-16.667 -21.333 -20 -28z" />
    <glyph glyph-name="Rcommaaccent" unicode="&#x156;" horiz-adv-x="664" 
d="M311 -245l-1 2.00098c34.667 22 53 49.667 55 83c0 6.66699 -3 10 -9 10c-14 0 -25.5 5.5 -34.5 16.5s-13.5 24.5 -13.5 40.5s5.5 29.667 16.5 41s24.833 17 41.5 17c18 0 32.667 -6.33301 44 -19s17 -29.667 17 -51c0 -31.333 -11.167 -60.333 -33.5 -87
s-49.833 -44.334 -82.5 -53.001zM287 323.001h-43v-246c0 -9.33301 4 -16.666 12 -21.999l79 -53v-2h-318v2l77 54c7.33301 5.33301 11 12.666 11 21.999v547c0 9.33301 -3.66699 16.666 -11 21.999l-77 54v2h340c68 0 123.667 -15.5 167 -46.5s65 -77.5 65 -139.5
c0 -47.333 -16.833 -87.333 -50.5 -120s-79.5 -53.667 -137.5 -63v-2l74 -39l123 -212c7.33301 -13.333 17.333 -25.666 30 -36.999l48 -42v-2h-192l-171 308c-6 10 -14.667 15 -26 15zM244 664.001v-322h50c96 0 144 55.667 144 167c0 62.667 -11.667 107.5 -35 134.5
s-57 40.5 -101 40.5h-39c-7.33301 0 -12.333 -1.33301 -15 -4s-4 -8 -4 -16z" />
    <glyph glyph-name="rcommaaccent" unicode="&#x157;" horiz-adv-x="412" 
d="M99 -245l-1 2.00098c34.667 22 53 49.667 55 83c0 6.66699 -3 10 -9 10c-14 0 -25.5 5.5 -34.5 16.5s-13.5 24.5 -13.5 40.5s5.5 29.667 16.5 41s24.833 17 41.5 17c18 0 32.667 -6.33301 44 -19s17 -29.667 17 -51c0 -31.333 -11.167 -60.333 -33.5 -87
s-49.833 -44.334 -82.5 -53.001zM217 338.001l-0.000976562 -262.999c0 -10 4.66699 -17.667 14 -23l103 -50v-2h-312v2l59 43c6.66699 5.33301 10 12.666 10 21.999v348c0 10 -3.33301 17.667 -10 23l-59 50v2h195v-141c8.66699 40 25.5 74.833 50.5 104.5
s56.5 44.5 94.5 44.5c22.667 0 42 -7 58 -21l-53 -152h-2l-63 103c-3.33301 4 -7.66602 5 -12.999 3c-11.333 -4.66699 -22 -13 -32 -25s-16.667 -21.333 -20 -28z" />
    <glyph glyph-name="Rcaron" unicode="&#x158;" horiz-adv-x="664" 
d="M315 845l151 72l1 -1l-151 -174h-2l-151 174l1 1zM287 323h-43v-246c0 -9.33301 4 -16.666 12 -21.999l79 -53v-2h-318v2l77 54c7.33301 5.33301 11 12.666 11 21.999v547c0 9.33301 -3.66699 16.666 -11 21.999l-77 54v2h340c68 0 123.667 -15.5 167 -46.5
s65 -77.5 65 -139.5c0 -47.333 -16.833 -87.333 -50.5 -120s-79.5 -53.667 -137.5 -63v-2l74 -39l123 -212c7.33301 -13.333 17.333 -25.666 30 -36.999l48 -42v-2h-192l-171 308c-6 10 -14.667 15 -26 15zM244 664v-322h50c96 0 144 55.667 144 167
c0 62.667 -11.667 107.5 -35 134.5s-57 40.5 -101 40.5h-39c-7.33301 0 -12.333 -1.33301 -15 -4s-4 -8 -4 -16z" />
    <glyph glyph-name="rcaron" unicode="&#x159;" horiz-adv-x="412" 
d="M223 634l151 72l1 -1l-151 -174h-2l-151 174l1 1zM217 338l-0.000976562 -262.999c0 -10 4.66699 -17.667 14 -23l103 -50v-2h-312v2l59 43c6.66699 5.33301 10 12.666 10 21.999v348c0 10 -3.33301 17.667 -10 23l-59 50v2h195v-141c8.66699 40 25.5 74.833 50.5 104.5
s56.5 44.5 94.5 44.5c22.667 0 42 -7 58 -21l-53 -152h-2l-63 103c-3.33301 4 -7.66602 5 -12.999 3c-11.333 -4.66699 -22 -13 -32 -25s-16.667 -21.333 -20 -28z" />
    <glyph glyph-name="Sacute" unicode="&#x15a;" horiz-adv-x="538" 
d="M291 915h138v-2l-221 -163l-2 2zM254 -10c-68 0 -132.665 9.00391 -193.998 27.0039v223h2l109 -211c6 -10.667 13.333 -16.667 22 -18c22.667 -2.66699 39.667 -4 51 -4c44.667 0 81 10.833 109 32.5s42 53.167 42 94.5c0 32 -10.333 58.167 -31 78.5
s-54.334 41.833 -101.001 64.5l-61 29c-106 49.333 -159 118.666 -159 207.999c0 59.333 21.667 107.333 65 144s100.333 55 171 55c58.667 0 119 -7.66699 181 -23v-215h-2l-113 202c-6 11.333 -13.333 17.333 -22 18c-8 0.666992 -19.667 1 -35 1
c-40.667 0 -73.334 -11.333 -98.001 -34s-37 -53.334 -37 -92.001c0 -30.667 9.5 -55.834 28.5 -75.501s46.833 -38.167 83.5 -55.5l74 -35c57.333 -27.333 100.333 -55.333 129 -84s43 -66.667 43 -114c0 -62.667 -23.5 -114.334 -70.5 -155.001s-109.167 -61 -186.5 -61z
" />
    <glyph glyph-name="sacute" unicode="&#x15b;" horiz-adv-x="434" 
d="M244 703h138v-2l-221 -163l-2 2zM405 150c0 -50 -19.168 -88.833 -57.501 -116.5s-87.166 -41.5 -146.499 -41.5s-116 10.333 -170 31l48 146h2l67 -146c3.33301 -6.66699 9.33301 -10.667 18 -12c11.333 -2 22.666 -3 33.999 -3c30.667 0 54.667 8 72 24s26 36 26 60
c0 22 -7.16699 39.167 -21.5 51.5s-38.5 26.166 -72.5 41.499l-64 29c-64 29.333 -96 75 -96 137c0 44.667 17.5 80.334 52.5 107.001s78.833 40 131.5 40c56 0 110 -8.33301 162 -25l-46 -136h-2l-70 130c-5.33301 10 -15.666 15 -30.999 15h-12
c-24.667 0 -45.167 -7 -61.5 -21s-24.5 -33.667 -24.5 -59c0 -21.333 7 -38.5 21 -51.5s35 -25.5 63 -37.5l66 -28c36 -15.333 63.667 -33 83 -53s29 -47.333 29 -82z" />
    <glyph glyph-name="Scircumflex" unicode="&#x15c;" horiz-adv-x="538" 
d="M421 750l-1 -2l-151 72l-151 -72l-1 2l151 173h2zM254 -10c-68 0 -132.665 9.00391 -193.998 27.0039v223h2l109 -211c6 -10.667 13.333 -16.667 22 -18c22.667 -2.66699 39.667 -4 51 -4c44.667 0 81 10.833 109 32.5s42 53.167 42 94.5c0 32 -10.333 58.167 -31 78.5
s-54.334 41.833 -101.001 64.5l-61 29c-106 49.333 -159 118.666 -159 207.999c0 59.333 21.667 107.333 65 144s100.333 55 171 55c58.667 0 119 -7.66699 181 -23v-215h-2l-113 202c-6 11.333 -13.333 17.333 -22 18c-8 0.666992 -19.667 1 -35 1
c-40.667 0 -73.334 -11.333 -98.001 -34s-37 -53.334 -37 -92.001c0 -30.667 9.5 -55.834 28.5 -75.501s46.833 -38.167 83.5 -55.5l74 -35c57.333 -27.333 100.333 -55.333 129 -84s43 -66.667 43 -114c0 -62.667 -23.5 -114.334 -70.5 -155.001s-109.167 -61 -186.5 -61z
" />
    <glyph glyph-name="scircumflex" unicode="&#x15d;" horiz-adv-x="434" 
d="M375 538l-1 -2l-151 72l-151 -72l-1 2l151 173h2zM405 150c0 -50 -19.168 -88.833 -57.501 -116.5s-87.166 -41.5 -146.499 -41.5s-116 10.333 -170 31l48 146h2l67 -146c3.33301 -6.66699 9.33301 -10.667 18 -12c11.333 -2 22.666 -3 33.999 -3
c30.667 0 54.667 8 72 24s26 36 26 60c0 22 -7.16699 39.167 -21.5 51.5s-38.5 26.166 -72.5 41.499l-64 29c-64 29.333 -96 75 -96 137c0 44.667 17.5 80.334 52.5 107.001s78.833 40 131.5 40c56 0 110 -8.33301 162 -25l-46 -136h-2l-70 130
c-5.33301 10 -15.666 15 -30.999 15h-12c-24.667 0 -45.167 -7 -61.5 -21s-24.5 -33.667 -24.5 -59c0 -21.333 7 -38.5 21 -51.5s35 -25.5 63 -37.5l66 -28c36 -15.333 63.667 -33 83 -53s29 -47.333 29 -82z" />
    <glyph glyph-name="Scedilla" unicode="&#x15e;" horiz-adv-x="538" 
d="M268 -236c-31.333 0 -57.9961 8.50098 -79.9961 25.501s-34.333 38.167 -37 63.5l2 1c5.33301 -18 15.833 -31.833 31.5 -41.5s31.834 -14.5 48.501 -14.5c18.667 0 34.167 5.16699 46.5 15.5s18.5 24.166 18.5 41.499s-5.83301 31.333 -17.5 42
s-26.834 16.334 -45.501 17.001c-12.667 0 -25.667 -2.33301 -39 -7l-1 2l66 81h-7c-68 0 -132.667 9 -194 27v223h2l109 -211c6 -10.667 13.333 -16.667 22 -18c22.667 -2.66699 39.667 -4 51 -4c44.667 0 81 10.833 109 32.5s42 53.167 42 94.5
c0 32 -10.333 58.167 -31 78.5s-54.334 41.833 -101.001 64.5l-61 29c-106 49.333 -159 118.666 -159 207.999c0 59.333 21.667 107.333 65 144s100.333 55 171 55c58.667 0 119 -7.66699 181 -23v-215h-2l-113 202c-6 11.333 -14.333 17.333 -25 18
c-8 0.666992 -18.667 1 -32 1c-40.667 0 -73.334 -11.333 -98.001 -34s-37 -53.334 -37 -92.001c0 -30.667 9.5 -55.834 28.5 -75.501s46.833 -38.167 83.5 -55.5l74 -35c57.333 -27.333 100.333 -55.333 129 -84s43 -66.667 43 -114c0 -61.333 -22.333 -112 -67 -152
s-104.334 -61.333 -179.001 -64l-7 -52c33.333 6.66699 62.166 1.83398 86.499 -14.499s36.5 -38.166 36.5 -65.499s-10 -49.833 -30 -67.5s-47.667 -26.5 -83 -26.5z" />
    <glyph glyph-name="scedilla" unicode="&#x15f;" horiz-adv-x="434" 
d="M205 -236c-32 0 -59 8.5 -81 25.5s-34 38.167 -36 63.5l2 1c5.33301 -18 15.833 -31.833 31.5 -41.5s31.834 -14.5 48.501 -14.5c18 0 33.333 5.16699 46 15.5s19 24.166 19 41.499c0 18 -6.16699 32.167 -18.5 42.5s-28.166 15.5 -47.499 15.5c-14 0 -26.333 -2 -37 -6
l-1 2l64 83c-60.667 1.33301 -115.334 11.666 -164.001 30.999l48 146h2l67 -146c3.33301 -6.66699 9.33301 -10.667 18 -12c11.333 -2 22.666 -3 33.999 -3c30.667 0 54.667 8 72 24s26 36 26 60c0 22 -7.16699 39.167 -21.5 51.5s-38.5 26.166 -72.5 41.499l-64 29
c-64 29.333 -96 75 -96 137c0 44.667 17.5 80.334 52.5 107.001s78.833 40 131.5 40c56 0 110 -8.33301 162 -25l-46 -136h-2l-70 130c-5.33301 10 -15.666 15 -30.999 15h-12c-24.667 0 -45.167 -7 -61.5 -21s-24.5 -33.667 -24.5 -59c0 -21.333 7 -38.5 21 -51.5
s35 -25.5 63 -37.5l66 -28c36 -15.333 63.667 -33 83 -53s29 -47.333 29 -82c0 -50 -19.167 -88.667 -57.5 -116s-86.833 -41.333 -145.5 -42l-8 -54c33.333 6.66699 62.166 1.83398 86.499 -14.499s36.5 -38.166 36.5 -65.499s-10 -49.833 -30 -67.5
s-47.333 -26.5 -82 -26.5z" />
    <glyph glyph-name="Scaron" unicode="&#x160;" horiz-adv-x="538" 
d="M269 845l151 72l1 -1l-151 -174h-2l-151 174l1 1zM254 -10c-68 0 -132.665 9.00391 -193.998 27.0039v223h2l109 -211c6 -10.667 13.333 -16.667 22 -18c22.667 -2.66699 39.667 -4 51 -4c44.667 0 81 10.833 109 32.5s42 53.167 42 94.5c0 32 -10.333 58.167 -31 78.5
s-54.334 41.833 -101.001 64.5l-61 29c-106 49.333 -159 118.666 -159 207.999c0 59.333 21.667 107.333 65 144s100.333 55 171 55c58.667 0 119 -7.66699 181 -23v-215h-2l-113 202c-6 11.333 -13.333 17.333 -22 18c-8 0.666992 -19.667 1 -35 1
c-40.667 0 -73.334 -11.333 -98.001 -34s-37 -53.334 -37 -92.001c0 -30.667 9.5 -55.834 28.5 -75.501s46.833 -38.167 83.5 -55.5l74 -35c57.333 -27.333 100.333 -55.333 129 -84s43 -66.667 43 -114c0 -62.667 -23.5 -114.334 -70.5 -155.001s-109.167 -61 -186.5 -61z
" />
    <glyph glyph-name="scaron" unicode="&#x161;" horiz-adv-x="434" 
d="M223 634l151 72l1 -1l-151 -174h-2l-151 174l1 1zM405 150c0 -50 -19.168 -88.833 -57.501 -116.5s-87.166 -41.5 -146.499 -41.5s-116 10.333 -170 31l48 146h2l67 -146c3.33301 -6.66699 9.33301 -10.667 18 -12c11.333 -2 22.666 -3 33.999 -3
c30.667 0 54.667 8 72 24s26 36 26 60c0 22 -7.16699 39.167 -21.5 51.5s-38.5 26.166 -72.5 41.499l-64 29c-64 29.333 -96 75 -96 137c0 44.667 17.5 80.334 52.5 107.001s78.833 40 131.5 40c56 0 110 -8.33301 162 -25l-46 -136h-2l-70 130
c-5.33301 10 -15.666 15 -30.999 15h-12c-24.667 0 -45.167 -7 -61.5 -21s-24.5 -33.667 -24.5 -59c0 -21.333 7 -38.5 21 -51.5s35 -25.5 63 -37.5l66 -28c36 -15.333 63.667 -33 83 -53s29 -47.333 29 -82z" />
    <glyph glyph-name="Tcommaaccent" unicode="&#x162;" horiz-adv-x="617" 
d="M251 -252l-1 2.00098c34.667 22 53 49.667 55 83c0 6.66699 -3 10 -9 10c-14 0 -25.5 5.5 -34.5 16.5s-13.5 24.5 -13.5 40.5s5.5 29.667 16.5 41s24.833 17 41.5 17c18 0 32.667 -6.33301 44 -19s17 -29.667 17 -51c0 -31.333 -11.167 -60.333 -33.5 -87
s-49.833 -44.334 -82.5 -53.001zM378 81.001c0 -9.33301 3.66699 -16.666 11 -21.999l84 -57v-2h-329v2l83 57c8 5.33301 12 12.666 12 21.999v603h-88c-8 0 -13.5 -1 -16.5 -3s-6.16699 -7 -9.5 -15l-104 -210h-2v247h578v-247h-2l-103 210c-3.33301 8 -6.5 13 -9.5 15
s-8.5 3 -16.5 3h-88v-603z" />
    <glyph glyph-name="tcommaaccent" unicode="&#x163;" horiz-adv-x="322" 
d="M127 -245l-1 2.00098c34.667 22 53 49.667 55 83c0 6.66699 -3 10 -9 10c-14 0 -25.5 5.5 -34.5 16.5s-13.5 24.5 -13.5 40.5s5.5 29.667 16.5 41s24.833 17 41.5 17c18 0 32.667 -6.33301 44 -19s17 -29.667 17 -51c0 -31.333 -11.167 -60.333 -33.5 -87
s-49.833 -44.334 -82.5 -53.001zM194 472.001v-345c0 -22.667 4.83301 -40.167 14.5 -52.5s23.167 -18.5 40.5 -18.5c15.333 0 29.166 4.66699 41.499 14s21.5 21 27.5 35l2 -1c-5.33301 -32 -19.166 -58.667 -41.499 -80s-53.5 -32 -93.5 -32c-78 0 -117 41.333 -117 124
v356h-63v18h51c10.667 0 19.667 4.33301 27 13l109 152h2v-165h133v-18h-133z" />
    <glyph glyph-name="Tcaron" unicode="&#x164;" horiz-adv-x="617" 
d="M308 845l151 72l1 -1l-151 -174h-2l-151 174l1 1zM378 81c0 -9.33301 3.66699 -16.666 11 -21.999l84 -57v-2h-329v2l83 57c8 5.33301 12 12.666 12 21.999v603h-88c-8 0 -13.5 -1 -16.5 -3s-6.16699 -7 -9.5 -15l-104 -210h-2v247h578v-247h-2l-103 210
c-3.33301 8 -6.5 13 -9.5 15s-8.5 3 -16.5 3h-88v-603z" />
    <glyph glyph-name="tcaron" unicode="&#x165;" horiz-adv-x="322" 
d="M238 510l9 193h102l-109 -193h-2zM194 472v-345c0 -22.667 4.83301 -40.167 14.5 -52.5s23.167 -18.5 40.5 -18.5c15.333 0 29.166 4.66699 41.499 14s21.5 21 27.5 35l2 -1c-5.33301 -32 -19.166 -58.667 -41.499 -80s-53.5 -32 -93.5 -32c-78 0 -117 41.333 -117 124
v356h-63v18h51c10.667 0 19.667 4.33301 27 13l109 152h2v-165h133v-18h-133z" />
    <glyph glyph-name="Tbar" unicode="&#x166;" horiz-adv-x="621" 
d="M516 334h-136v-253c0 -9.33301 3.66699 -16.666 11 -21.999l84 -57v-2h-329v2l83 57c8 5.33301 12 12.666 12 21.999v253h-136v18h136v332h-88c-8 0 -13.5 -1 -16.5 -3s-6.16699 -7 -9.5 -15l-104 -210h-2v247h578v-247h-2l-103 210c-3.33301 8 -6.5 13 -9.5 15
s-8.5 3 -16.5 3h-88v-332h136v-18z" />
    <glyph glyph-name="tbar" unicode="&#x167;" horiz-adv-x="333" 
d="M10 333v18h63v121h-63v18h51c10.667 0 19.667 4.33301 27 13l109 152h2v-165h133v-18h-133v-121h133v-18h-133v-206c0 -22.667 4.83301 -40.167 14.5 -52.5s23.167 -18.5 40.5 -18.5c15.333 0 29.166 4.66699 41.499 14s21.5 21 27.5 35l2 -1
c-5.33301 -32 -19.166 -58.667 -41.499 -80s-53.5 -32 -93.5 -32c-78 0 -117 41.333 -117 124v217h-63z" />
    <glyph glyph-name="Utilde" unicode="&#x168;" horiz-adv-x="662" 
d="M342 -10c-90 0 -154.833 19.166 -194.5 57.499s-59.5 95.833 -59.5 172.5v403c0 8.66699 -4 16 -12 22l-70 56v2h307v-2l-75 -56c-7.33301 -5.33301 -11 -12.666 -11 -21.999v-386c0 -143.333 53.667 -215 161 -215c50.667 0 90 19.5 118 58.5s42 95.5 42 169.5v322
c0 12 -5 22.333 -15 31l-97 98v2h243v-2l-97 -98c-9.33301 -8.66699 -14 -19 -14 -31v-321c0 -174 -75.333 -261 -226 -261zM430 773.999c-16 0 -39.166 7.83301 -69.499 23.5s-52.5 23.5 -66.5 23.5c-28.667 0 -49.334 -16 -62.001 -48h-2c0 6.66699 0.666992 16.667 2 30
c3.33301 27.333 11.666 48.833 24.999 64.5s30.666 23.5 51.999 23.5c16 0 39 -8 69 -24s52 -24 66 -24c30 0 51 16 63 48h2c0 -8 -0.666992 -18.667 -2 -32c-3.33301 -26 -11.666 -46.667 -24.999 -62s-30.666 -23 -51.999 -23z" />
    <glyph glyph-name="utilde" unicode="&#x169;" horiz-adv-x="565" 
d="M487 490v-414.999c0 -10 3.33301 -17.667 10 -23l59 -50v-2h-196v111c-28 -79.333 -77.333 -119 -148 -119c-95.333 0 -143 67.667 -143 203c0 40 0.666992 113.333 2 220c0 10 -3.33301 18 -10 24l-60 49v2h196c0 -0.666992 -0.166992 -21.334 -0.5 -62.001l-1 -126
c-0.333008 -43.333 -0.5 -69 -0.5 -77c0 -55.333 6 -96.5 18 -123.5s32.333 -40.5 61 -40.5c33.333 0 62 20.333 86 61v293c0 10 -3.33301 17.667 -10 23l-59 50v2h196zM329 562.001c-16 0 -39.166 7.83301 -69.499 23.5s-52.5 23.5 -66.5 23.5
c-28.667 0 -49.334 -16 -62.001 -48h-2c0 6.66699 0.666992 16.667 2 30c3.33301 27.333 11.666 48.833 24.999 64.5s30.666 23.5 51.999 23.5c16 0 39 -8 69 -24s52 -24 66 -24c30 0 51 16 63 48h2c0 -8 -0.666992 -18.667 -2 -32
c-3.33301 -26 -11.666 -46.667 -24.999 -62s-30.666 -23 -51.999 -23z" />
    <glyph glyph-name="Umacron" unicode="&#x16a;" horiz-adv-x="662" 
d="M342 -10c-90 0 -154.833 19.166 -194.5 57.499s-59.5 95.833 -59.5 172.5v403c0 8.66699 -4 16 -12 22l-70 56v2h307v-2l-75 -56c-7.33301 -5.33301 -11 -12.666 -11 -21.999v-386c0 -143.333 53.667 -215 161 -215c50.667 0 90 19.5 118 58.5s42 95.5 42 169.5v322
c0 12 -5 22.333 -15 31l-97 98v2h243v-2l-97 -98c-9.33301 -8.66699 -14 -19 -14 -31v-321c0 -174 -75.333 -261 -226 -261zM497 803.999h-262v18h262v-18z" />
    <glyph glyph-name="umacron" unicode="&#x16b;" horiz-adv-x="565" 
d="M487 490v-414.999c0 -10 3.33301 -17.667 10 -23l59 -50v-2h-196v111c-28 -79.333 -77.333 -119 -148 -119c-95.333 0 -143 67.667 -143 203c0 40 0.666992 113.333 2 220c0 10 -3.33301 18 -10 24l-60 49v2h196c0 -0.666992 -0.166992 -21.334 -0.5 -62.001l-1 -126
c-0.333008 -43.333 -0.5 -69 -0.5 -77c0 -55.333 6 -96.5 18 -123.5s32.333 -40.5 61 -40.5c33.333 0 62 20.333 86 61v293c0 10 -3.33301 17.667 -10 23l-59 50v2h196zM396 592.001h-262v18h262v-18z" />
    <glyph glyph-name="Ubreve" unicode="&#x16c;" horiz-adv-x="662" 
d="M342 -10c-90 0 -154.833 19.166 -194.5 57.499s-59.5 95.833 -59.5 172.5v403c0 8.66699 -4 16 -12 22l-70 56v2h307v-2l-75 -56c-7.33301 -5.33301 -11 -12.666 -11 -21.999v-386c0 -143.333 53.667 -215 161 -215c50.667 0 90 19.5 118 58.5s42 95.5 42 169.5v322
c0 12 -5 22.333 -15 31l-97 98v2h243v-2l-97 -98c-9.33301 -8.66699 -14 -19 -14 -31v-321c0 -174 -75.333 -261 -226 -261zM489 877.999c0 -41.333 -12.167 -72.5 -36.5 -93.5s-53.833 -31.5 -88.5 -31.5c-34 0 -63.167 10.5 -87.5 31.5s-36.5 52.167 -36.5 93.5
c0 13.333 1.33301 26.666 4 39.999h2c1.33301 -30.667 12.833 -54.5 34.5 -71.5s49.5 -25.5 83.5 -25.5s62 8.5 84 25.5s33.667 40.833 35 71.5h2c2.66699 -13.333 4 -26.666 4 -39.999z" />
    <glyph glyph-name="ubreve" unicode="&#x16d;" horiz-adv-x="565" 
d="M487 490v-414.999c0 -10 3.33301 -17.667 10 -23l59 -50v-2h-196v111c-28 -79.333 -77.333 -119 -148 -119c-95.333 0 -143 67.667 -143 203c0 40 0.666992 113.333 2 220c0 10 -3.33301 18 -10 24l-60 49v2h196c0 -0.666992 -0.166992 -21.334 -0.5 -62.001l-1 -126
c-0.333008 -43.333 -0.5 -69 -0.5 -77c0 -55.333 6 -96.5 18 -123.5s32.333 -40.5 61 -40.5c33.333 0 62 20.333 86 61v293c0 10 -3.33301 17.667 -10 23l-59 50v2h196zM388 666.001c0 -41.333 -12.167 -72.5 -36.5 -93.5s-53.833 -31.5 -88.5 -31.5
c-34 0 -63.167 10.5 -87.5 31.5s-36.5 52.167 -36.5 93.5c0 13.333 1.33301 26.666 4 39.999h2c1.33301 -30.667 12.833 -54.5 34.5 -71.5s49.5 -25.5 83.5 -25.5s62 8.5 84 25.5s33.667 40.833 35 71.5h2c2.66699 -13.333 4 -26.666 4 -39.999z" />
    <glyph glyph-name="Uring" unicode="&#x16e;" horiz-adv-x="662" 
d="M456 838c0 -24.667 -8.50098 -45.167 -25.501 -61.5s-37.833 -24.5 -62.5 -24.5c-24 0 -44.5 8.33301 -61.5 25s-25.5 37 -25.5 61c0 24.667 8.33301 45.334 25 62.001s37.334 25 62.001 25s45.5 -8.33301 62.5 -25s25.5 -37.334 25.5 -62.001zM435.999 838
c0 19.333 -6.5 35.5 -19.5 48.5s-29.167 19.5 -48.5 19.5s-35.333 -6.5 -48 -19.5s-19 -29.167 -19 -48.5c0 -18.667 6.5 -34.5 19.5 -47.5s28.833 -19.5 47.5 -19.5c19.333 0 35.5 6.33301 48.5 19s19.5 28.667 19.5 48zM341.999 -10c-90 0 -154.833 19.166 -194.5 57.499
s-59.5 95.833 -59.5 172.5v403c0 8.66699 -4 16 -12 22l-70 56v2h307v-2l-75 -56c-7.33301 -5.33301 -11 -12.666 -11 -21.999v-386c0 -143.333 53.667 -215 161 -215c50.667 0 90 19.5 118 58.5s42 95.5 42 169.5v322c0 12 -5 22.333 -15 31l-97 98v2h243v-2l-97 -98
c-9.33301 -8.66699 -14 -19 -14 -31v-321c0 -174 -75.333 -261 -226 -261z" />
    <glyph glyph-name="uring" unicode="&#x16f;" horiz-adv-x="565" 
d="M355 626c0 -24.667 -8.50098 -45.167 -25.501 -61.5s-37.833 -24.5 -62.5 -24.5c-24 0 -44.5 8.33301 -61.5 25s-25.5 37 -25.5 61c0 24.667 8.33301 45.334 25 62.001s37.334 25 62.001 25s45.5 -8.33301 62.5 -25s25.5 -37.334 25.5 -62.001zM334.999 626
c0 19.333 -6.5 35.5 -19.5 48.5s-29.167 19.5 -48.5 19.5s-35.333 -6.5 -48 -19.5s-19 -29.167 -19 -48.5c0 -18.667 6.5 -34.5 19.5 -47.5s28.833 -19.5 47.5 -19.5c19.333 0 35.5 6.33301 48.5 19s19.5 28.667 19.5 48zM486.999 490v-414.999
c0 -10 3.33301 -17.667 10 -23l59 -50v-2h-196v111c-28 -79.333 -77.333 -119 -148 -119c-95.333 0 -143 67.667 -143 203c0 40 0.666992 113.333 2 220c0 10 -3.33301 18 -10 24l-60 49v2h196c0 -0.666992 -0.166992 -21.334 -0.5 -62.001l-1 -126
c-0.333008 -43.333 -0.5 -69 -0.5 -77c0 -55.333 6 -96.5 18 -123.5s32.333 -40.5 61 -40.5c33.333 0 62 20.333 86 61v293c0 10 -3.33301 17.667 -10 23l-59 50v2h196z" />
    <glyph glyph-name="Uhungarumlaut" unicode="&#x170;" horiz-adv-x="662" 
d="M342 -10c-90 0 -154.833 19.166 -194.5 57.499s-59.5 95.833 -59.5 172.5v403c0 8.66699 -4 16 -12 22l-70 56v2h307v-2l-75 -56c-7.33301 -5.33301 -11 -12.666 -11 -21.999v-386c0 -143.333 53.667 -215 161 -215c50.667 0 90 19.5 118 58.5s42 95.5 42 169.5v322
c0 12 -5 22.333 -15 31l-97 98v2h243v-2l-97 -98c-9.33301 -8.66699 -14 -19 -14 -31v-321c0 -174 -75.333 -261 -226 -261zM323 914.999h115v-2l-174 -170h-2zM474 914.999h114v-2l-173 -170h-2z" />
    <glyph glyph-name="uhungarumlaut" unicode="&#x171;" horiz-adv-x="565" 
d="M487 490v-414.999c0 -10 3.33301 -17.667 10 -23l59 -50v-2h-196v111c-28 -79.333 -77.333 -119 -148 -119c-95.333 0 -143 67.667 -143 203c0 40 0.666992 113.333 2 220c0 10 -3.33301 18 -10 24l-60 49v2h196c0 -0.666992 -0.166992 -21.334 -0.5 -62.001l-1 -126
c-0.333008 -43.333 -0.5 -69 -0.5 -77c0 -55.333 6 -96.5 18 -123.5s32.333 -40.5 61 -40.5c33.333 0 62 20.333 86 61v293c0 10 -3.33301 17.667 -10 23l-59 50v2h196zM222 703.001h115v-2l-174 -170h-2zM373 703.001h114v-2l-173 -170h-2z" />
    <glyph glyph-name="Uogonek" unicode="&#x172;" horiz-adv-x="662" 
d="M325 -236c-27.333 0 -51.499 9.00098 -72.499 27.001s-31.5 42.667 -31.5 74c0 26.667 10 51.167 30 73.5s47.333 39.5 82 51.5c-86.667 1.33301 -149.167 21.166 -187.5 59.499s-57.5 95.166 -57.5 170.499v403c0 8.66699 -4 16 -12 22l-70 56v2h307v-2l-75 -56
c-7.33301 -5.33301 -11 -12.666 -11 -21.999v-386c0 -143.333 53.667 -215 161 -215c50.667 0 90 19.5 118 58.5s42 95.5 42 169.5v322c0 12 -5 22.333 -15 31l-97 98v2h243v-2l-97 -98c-9.33301 -8.66699 -14 -19 -14 -31v-321c0 -171.333 -73.333 -258.333 -220 -261
c-38 -22.667 -57 -54.667 -57 -96c0 -24.667 6.83301 -43.667 20.5 -57s31.167 -20 52.5 -20c31.333 0 56.666 13.333 75.999 40l2 -1c-23.333 -61.333 -62.333 -92 -117 -92z" />
    <glyph glyph-name="uogonek" unicode="&#x173;" horiz-adv-x="565" 
d="M195 225c0 -55.333 6.00195 -96.498 18.002 -123.498s32.333 -40.5 61 -40.5c33.333 0 62 20.333 86 61v293c0 10 -3.33301 17.667 -10 23l-59 50v2h196v-415c0 -10 3.33301 -17.667 10 -23l59 -50v-2h-183c-42 -18.667 -63 -54 -63 -106c0 -24.667 7 -43.667 21 -57
s31.667 -20 53 -20c31.333 0 56.666 13.333 75.999 40l2 -1c-23.333 -61.333 -62.333 -92 -117 -92c-28 0 -52.5 9.16699 -73.5 27.5s-31.5 43.166 -31.5 74.499c0 30 11.167 57.667 33.5 83s51.166 42.333 86.499 51v111c-28 -79.333 -77.333 -119 -148 -119
c-95.333 0 -143 67.667 -143 203c0 40 0.666992 113.333 2 220c0 10 -3.33301 18 -10 24l-60 49v2h196c0 -0.666992 -0.166992 -21.334 -0.5 -62.001l-1 -126c-0.333008 -43.333 -0.5 -69 -0.5 -77z" />
    <glyph glyph-name="Wcircumflex" unicode="&#x174;" horiz-adv-x="985" 
d="M661 750l-1 -2l-151 72l-151 -72l-1 2l151 173h2zM728 0l-96.001 0.000976562l-141 443l-142 -443h-96l-199 608c-5.33301 16 -12.666 29.333 -21.999 40l-42 53v2h270v-2l-60 -60c-6 -6 -7.33301 -14.333 -4 -25l166 -510l119 369l-42 133c-3.33301 12 -10 25 -20 39
l-38 54v2h265v-2l-60 -60c-6 -6 -7.33301 -14 -4 -24l159 -508l147 459c2 9.33301 2.33301 15.666 1 18.999s-5.33301 9 -12 17l-88 97v2h230v-2l-84 -93c-13.333 -14 -22 -27.667 -26 -41z" />
    <glyph glyph-name="wcircumflex" unicode="&#x175;" horiz-adv-x="734" 
d="M537 538l-1 -2l-151 72l-151 -72l-1 2l151 173h2zM752 488l-63 -90c-8 -12 -14.333 -24.333 -19 -37l-127 -361h-77l-104 291l-105 -291h-77l-143 401c-4.66699 14.667 -10.334 27.667 -17.001 39l-31 48v2h222v-2l-42 -50c-5.33301 -6 -6.33301 -14.333 -3 -25l108 -311
l78 216l-29 83c-5.33301 16.667 -11 29.667 -17 39l-31 48v2h221v-2l-41 -50c-6 -8 -7.33301 -16.333 -4 -25l109 -310l91 260c4.66699 12 3.33398 23.333 -3.99902 34l-58 91v2h163v-2z" />
    <glyph glyph-name="Ycircumflex" unicode="&#x176;" horiz-adv-x="616" 
d="M382 278l0.000976562 -196.999c0 -6.66699 0.666992 -11.167 2 -13.5s4.66602 -5.16602 9.99902 -8.49902l83 -57v-2h-329v2l84 57c7.33301 5.33301 11 12.666 11 21.999v183c0 10.667 -2.33301 20 -7 28l-171 317c-6 11.333 -15 23.666 -27 36.999l-51 55v2h294v-2
l-62 -59c-6.66699 -6.66699 -8 -13.667 -4 -21l157 -298l131 256c5.33301 10 4.33301 19 -3 27l-86 95v2h238v-2l-100 -93c-12.667 -11.333 -23 -24 -31 -38l-131 -255c-5.33301 -10 -8 -22.333 -8 -37zM491.001 750.001l-1 -2l-151 72l-151 -72l-1 2l151 173h2z" />
    <glyph glyph-name="ycircumflex" unicode="&#x177;" horiz-adv-x="454" 
d="M56 -236c-15.333 0 -30.333 3.33203 -45 9.99902l36 162h2l76 -99c4.66699 -6.66699 9 -10 13 -10c3.33301 0 7.33301 3.33301 12 10c18 24.667 39 64.334 63 119.001l-180 459c-3.33301 8.66699 -9.33301 20 -18 34l-25 39v2h225v-2l-44 -49
c-6 -6.66699 -7 -14.667 -3 -24l111 -296l95 242c4.66699 12 4 22.667 -2 32l-60 95v2h162v-2l-60 -88c-8 -12 -15.333 -26 -22 -42l-150 -385c-18.667 -47.333 -41 -91.333 -67 -132c-32 -51.333 -71.667 -77 -119 -77zM404 537.999l-1 -2l-151 72l-151 -72l-1 2l151 173h2
z" />
    <glyph glyph-name="Ydieresis" unicode="&#x178;" horiz-adv-x="616" 
d="M382 278l0.000976562 -196.999c0 -6.66699 0.666992 -11.167 2 -13.5s4.66602 -5.16602 9.99902 -8.49902l83 -57v-2h-329v2l84 57c7.33301 5.33301 11 12.666 11 21.999v183c0 10.667 -2.33301 20 -7 28l-171 317c-6 11.333 -15 23.666 -27 36.999l-51 55v2h294v-2
l-62 -59c-6.66699 -6.66699 -8 -13.667 -4 -21l157 -298l131 256c5.33301 10 4.33301 19 -3 27l-86 95v2h238v-2l-100 -93c-12.667 -11.333 -23 -24 -31 -38l-131 -255c-5.33301 -10 -8 -22.333 -8 -37zM189.001 834.001c0 16.667 5.83301 30.834 17.5 42.501
s25.834 17.5 42.501 17.5c16 0 29.833 -5.83301 41.5 -17.5s17.5 -25.834 17.5 -42.501c0 -16 -5.83301 -29.667 -17.5 -41s-25.5 -17 -41.5 -17c-16.667 0 -30.834 5.66699 -42.501 17s-17.5 25 -17.5 41zM369.001 834.001c0 16.667 5.66699 30.834 17 42.501
s25 17.5 41 17.5c17.333 0 31.833 -5.83301 43.5 -17.5s17.5 -25.834 17.5 -42.501c0 -16 -6 -29.667 -18 -41s-26.333 -17 -43 -17c-16 0 -29.667 5.66699 -41 17s-17 25 -17 41z" />
    <glyph glyph-name="Zacute" unicode="&#x179;" horiz-adv-x="599" 
d="M329 915h138v-2l-221 -163l-2 2zM551 246l-0.000976562 -246h-538v2l399 682h-204c-15.333 0 -25.666 -4.33301 -30.999 -13l-119 -217h-2v249h520v-2l-400 -682h220c16 0 26.333 4.33301 31 13l122 214h2z" />
    <glyph glyph-name="zacute" unicode="&#x17a;" horiz-adv-x="452" 
d="M258 703h138v-2l-221 -163l-2 2zM310 33l109.998 167h3l-15 -200h-394v2l278 471h-121c-8.66699 0 -14.167 -0.666992 -16.5 -2s-5.83301 -5.66602 -10.5 -12.999l-103 -158h-3v190h398v-2l-275 -470h121c8.66699 0 14.334 0.666992 17.001 2
s6.33398 5.66602 11.001 12.999z" />
    <glyph glyph-name="Zdotaccent" unicode="&#x17b;" horiz-adv-x="599" 
d="M551 246l-0.000976562 -246h-538v2l399 682h-204c-15.333 0 -25.666 -4.33301 -30.999 -13l-119 -217h-2v249h520v-2l-400 -682h220c16 0 26.333 4.33301 31 13l122 214h2zM239.999 831c0 19.333 6.5 35.166 19.5 47.499s28.833 18.5 47.5 18.5
c19.333 0 35.333 -6.16699 48 -18.5s19 -28.166 19 -47.499c0 -18.667 -6.33301 -34.167 -19 -46.5s-28.667 -18.5 -48 -18.5c-18.667 0 -34.5 6.16699 -47.5 18.5s-19.5 27.833 -19.5 46.5z" />
    <glyph glyph-name="zdotaccent" unicode="&#x17c;" horiz-adv-x="452" 
d="M310 33l109.998 167h3l-15 -200h-394v2l278 471h-121c-8.66699 0 -14.167 -0.666992 -16.5 -2s-5.83301 -5.66602 -10.5 -12.999l-103 -158h-3v190h398v-2l-275 -470h121c8.66699 0 14.334 0.666992 17.001 2s6.33398 5.66602 11.001 12.999zM168.998 619
c0 19.333 6.5 35.166 19.5 47.499s28.833 18.5 47.5 18.5c19.333 0 35.333 -6.16699 48 -18.5s19 -28.166 19 -47.499c0 -18.667 -6.33301 -34.167 -19 -46.5s-28.667 -18.5 -48 -18.5c-18.667 0 -34.5 6.16699 -47.5 18.5s-19.5 27.833 -19.5 46.5z" />
    <glyph glyph-name="Zcaron" unicode="&#x17d;" horiz-adv-x="599" 
d="M307 845l151 72l1 -1l-151 -174h-2l-151 174l1 1zM551 246l-0.000976562 -246h-538v2l399 682h-204c-15.333 0 -25.666 -4.33301 -30.999 -13l-119 -217h-2v249h520v-2l-400 -682h220c16 0 26.333 4.33301 31 13l122 214h2z" />
    <glyph glyph-name="zcaron" unicode="&#x17e;" horiz-adv-x="452" 
d="M236 634l151 72l1 -1l-151 -174h-2l-151 174l1 1zM310 33l109.998 167h3l-15 -200h-394v2l278 471h-121c-8.66699 0 -14.167 -0.666992 -16.5 -2s-5.83301 -5.66602 -10.5 -12.999l-103 -158h-3v190h398v-2l-275 -470h121c8.66699 0 14.334 0.666992 17.001 2
s6.33398 5.66602 11.001 12.999z" />
    <glyph glyph-name="florin" unicode="&#x192;" horiz-adv-x="440" 
d="M56 292v17.999h94v199c0 72 14.5 124 43.5 156s72.833 48 131.5 48c47.333 0 94.333 -8 141 -24l-56 -135h-2l-59 130c-2.66699 6 -5 9.66699 -7 11s-6.66699 2 -14 2c-18.667 0 -32 -8.33301 -40 -25s-12 -43 -12 -79v-283h108v-18h-108v-290
c0 -82.667 -14.333 -143 -43 -181s-71.667 -57 -129 -57c-46.667 0 -94.667 8 -144 24l56 135h2l58 -129c4 -10 11.333 -15 22 -15c12 0 21.667 2.33301 29 7s12.5 12.334 15.5 23.001s5 21 6 31s1.5 23.667 1.5 41v411h-94z" />
    <glyph glyph-name="uni01B5" unicode="&#x1b5;" horiz-adv-x="599" 
d="M516 346h-148.001l-192 -327h220c16 0 26.333 4.33301 31 13l122 214h2v-246h-538v2l201 344h-147v18h158l187 320h-204c-15.333 0 -25.666 -4.33301 -30.999 -13l-119 -217h-2v249h520v-2l-198 -337h138v-18z" />
    <glyph glyph-name="uni01B6" unicode="&#x1b6;" horiz-adv-x="455" 
d="M52 242l-0.00195312 18h115l126 213h-121c-8.66699 0 -14.167 -0.666992 -16.5 -2s-5.83301 -5.66602 -10.5 -12.999l-103 -158h-3v190h398v-2l-133 -228h103v-18h-114l-131 -224h121c8.66699 0 14.334 0.666992 17.001 2s6.33398 5.66602 11.001 12.999l110 167h3
l-15 -200h-394v2l141 240h-104z" />
    <glyph glyph-name="Aringacute" unicode="&#x1fa;" horiz-adv-x="637" 
d="M299 979h132.001v-2l-152 -97c-24.667 -16 -39.334 -27.667 -44.001 -35c18.667 17.333 41 26 67 26c24 0 44.667 -6 62 -18s26 -28.333 26 -49c0 -20 -8.5 -35.833 -25.5 -47.5s-37.5 -17.5 -61.5 -17.5c-23.333 0 -43.833 6 -61.5 18s-26.5 27.667 -26.5 47
c0 11.333 4 24 12 38zM370.001 805c0 15.333 -6.5 27.1699 -19.5 35.5029s-28.833 12.5 -47.5 12.5s-34.667 -4.33301 -48 -13s-20 -20.334 -20 -35.001s6.83301 -26.334 20.5 -35.001s29.5 -13 47.5 -13c18.667 0 34.5 4.16699 47.5 12.5s19.5 20.166 19.5 35.499z
M575.001 95.0039c5.33301 -16 12.666 -29.334 21.999 -40.001l42 -53v-2h-270v2l60 60c6 6 7.33301 14.667 4 26l-52 158h-229l-38 -115c-3.33301 -10.667 -0.666016 -20.667 8.00098 -30l91 -99v-2h-230v2l87 95c12.667 14 21 27 25 39l154 465
c3.33301 10 4.5 16.833 3.5 20.5s-4.5 8.83398 -10.5 15.501l-57 64v2h191zM268.001 594.003l-110 -329h217z" />
    <glyph glyph-name="aringacute" unicode="&#x1fb;" horiz-adv-x="487" 
d="M233 764l132 0.000976562v-2l-152 -97c-22.667 -13.333 -37.667 -25 -45 -35c18.667 17.333 41.334 26 68.001 26c24 0 44.667 -6 62 -18s26 -28 26 -48s-8.66699 -36 -26 -48s-38 -18 -62 -18c-22.667 0 -42.834 6.16699 -60.501 18.5s-26.5 28.166 -26.5 47.499
c0 10 3.66699 22.333 11 37zM304 590.001c0 15.333 -6.66699 27.1699 -20 35.5029s-29.333 12.5 -48 12.5s-34.5 -4.33301 -47.5 -13s-19.5 -20.334 -19.5 -35.001s6.66699 -26.334 20 -35.001s29 -13 47 -13c18.667 0 34.667 4.16699 48 12.5s20 20.166 20 35.499z
M297 246.005l1.99902 106.999v4c0 38 -7.66699 68.167 -23 90.5s-38.333 33.5 -69 33.5c-10.667 0 -17.5 -0.666992 -20.5 -2s-6.16699 -5 -9.5 -11l-70 -141h-2l-53 136c59.333 23.333 120.333 35 183 35c65.333 0 112 -13.667 140 -41
c31.333 -32.667 47 -86.334 47 -161.001v-18l-6 -159c-1.33301 -42 9.66699 -63 33 -63c14.667 0 24.667 8 30 24h2c0.666992 -10.667 -1.66602 -22 -6.99902 -34c-6.66699 -16 -17.5 -29 -32.5 -39s-32.833 -15 -53.5 -15c-26.667 0 -48.667 8.83301 -66 26.5
s-26.333 42.834 -27 75.501c-10 -31.333 -27 -56.166 -51 -74.499s-52 -27.5 -84 -27.5c-37.333 0 -68.833 12 -94.5 36s-38.5 57 -38.5 99c0 46.667 16.5 83.167 49.5 109.5s71.5 39.5 115.5 39.5c43.333 0 78.333 -10 105 -30zM247.999 247.004c-30 0 -53.667 -10 -71 -30
s-26 -45 -26 -75c0 -26.667 6.5 -47.667 19.5 -63s29.5 -23 49.5 -23c30.667 0 55.667 15.667 75 47l2 136c-14 5.33301 -30.333 8 -49 8z" />
    <glyph glyph-name="AEacute" unicode="&#x1fc;" horiz-adv-x="927" 
d="M604 917h138v-2l-221 -163l-2 2zM669 365c10 0.666992 18.999 6.33691 26.999 17.0039l77 96h2v-244h-2l-77 97c-8.66699 10.667 -17.667 16 -27 16h-98v-307c0 -8.66699 1 -14.334 3 -17.001s6.66699 -4 14 -4h149c16 0 26.667 4.33301 32 13l105 196h3v-228h-533v2
l77 54c8 5.33301 12 12.666 12 21.999v167h-235l-66 -109c-6.66699 -10.667 -10 -18.334 -10 -23.001s3.33301 -11 10 -19l77 -92v-2h-235v2l92 86c22 20.667 35.333 34.667 40 42l288 472c5.33301 10 7.83301 16.5 7.5 19.5s-3.16602 7.5 -8.49902 13.5l-65 66v2h539v-228
h-2l-105 192c-6 11.333 -15.333 17 -28 17h-144c-7.33301 0 -12 -1.33301 -14 -4s-3 -8.33398 -3 -17.001v-298h98zM432.999 264.003v365l-223 -365h223z" />
    <glyph glyph-name="aeacute" unicode="&#x1fd;" horiz-adv-x="756" 
d="M418 703h138v-2l-221 -163l-2 2zM188 276c43.333 0 79.6689 -10 109.002 -30c0 2 0.333008 20 1 54s1 52.333 1 55c0 38.667 -7.83301 69.167 -23.5 91.5s-38.834 33.5 -69.501 33.5c-10 0 -16.667 -0.833008 -20 -2.5s-6.33301 -5.16699 -9 -10.5l-70 -139h-2l-56 139
c60 20.667 122 31 186 31c56.667 0 99 -13.667 127 -41l15 -19c40 40 89.667 60 149 60c56.667 0 104.5 -16 143.5 -48s58.5 -81 58.5 -147c0 -10 -0.333008 -18.333 -1 -25h-302v-17c0 -63.333 13.667 -111.833 41 -145.5s62 -50.5 104 -50.5c72 0 123.667 36.333 155 109
h2c-22.667 -121.333 -91.334 -182 -206.001 -182c-40.667 0 -78 9.16699 -112 27.5s-61 45.5 -81 81.5c-9.33301 -30.667 -28 -56.5 -56 -77.5s-62.333 -31.5 -103 -31.5s-74.5 12.333 -101.5 37s-40.5 58.667 -40.5 102c0 45.333 16.5 80.833 49.5 106.5
s70.167 38.5 111.5 38.5zM524.003 482c-61.333 0 -94.333 -61.999 -99 -185.999h180c0.666992 65.333 -5.5 112.666 -18.5 141.999s-33.833 44 -62.5 44zM230.003 55.001c39.333 0 71 17.3311 95 51.998c-18.667 36 -28 80 -28 132c-17.333 5.33301 -33.333 8 -48 8
c-30.667 0 -54.667 -9.66699 -72 -29s-26 -43.666 -26 -72.999c0 -27.333 7.16699 -49.166 21.5 -65.499s33.5 -24.5 57.5 -24.5z" />
    <glyph glyph-name="Oslashacute" unicode="&#x1fe;" horiz-adv-x="708" 
d="M355 713c54 0 101.667 -9.00098 143 -27.001l42 94l17 -8l-42 -94c107.333 -56 161 -164.667 161 -326c0 -115.333 -28 -204.5 -84 -267.5s-135 -94.5 -237 -94.5c-48.667 0 -93 7.66699 -133 23l-42 -95l-17 8l41 94c-114.667 52.667 -172 163.334 -172 332.001
c0 114.667 28.333 203.5 85 266.5s136 94.5 238 94.5zM191 351.999c0 -118 14.667 -205.667 44 -263l235 533c-28 49.333 -66.333 74 -115 74c-109.333 0 -164 -114.667 -164 -344zM355 6.99902c108.667 0 163 114.999 163 344.999c0 106.667 -12.333 189.334 -37 248.001
l-235 -531c26.667 -41.333 63 -62 109 -62zM395 914.998h138v-2l-221 -163l-2 2z" />
    <glyph glyph-name="oslashacute" unicode="&#x1ff;" horiz-adv-x="536" 
d="M416 555l-35.001 -77.999c86 -36.667 129 -114 129 -232c0 -83.333 -21.5 -146.333 -64.5 -189s-102.167 -64 -177.5 -64c-33.333 0 -64.666 4.66699 -93.999 14l-39 -88l-18 9l38 86c-85.333 36 -128 113.667 -128 233c0 83.333 21.5 146.166 64.5 188.499
s101.833 63.5 176.5 63.5c34 0 65.667 -4.66699 95 -14l35 78zM267.999 482.001c-32.667 0 -57.167 -17.5 -73.5 -52.5s-24.5 -96.167 -24.5 -183.5c0 -73.333 5.33301 -127.333 16 -162l154 348c-16 33.333 -40 50 -72 50zM365.999 245.001c0 68 -5.33301 121.333 -16 160
l-154 -348c15.333 -32 39.333 -48 72 -48s57.167 17.5 73.5 52.5s24.5 96.167 24.5 183.5zM288.999 703.001h138v-2l-221 -163l-2 2z" />
    <glyph glyph-name="Scommaaccent" unicode="&#x218;" horiz-adv-x="538" 
d="M211 -245l-1 2.00098c34.667 22 53 49.667 55 83c0 6.66699 -3 10 -9 10c-14 0 -25.5 5.5 -34.5 16.5s-13.5 24.5 -13.5 40.5s5.5 29.667 16.5 41s24.833 17 41.5 17c18 0 32.667 -6.33301 44 -19s17 -29.667 17 -51c0 -31.333 -11.167 -60.333 -33.5 -87
s-49.833 -44.334 -82.5 -53.001zM254 -9.99902c-68 0 -132.665 9.00391 -193.998 27.0039v223h2l109 -211c6 -10.667 13.333 -16.667 22 -18c22.667 -2.66699 39.667 -4 51 -4c44.667 0 81 10.833 109 32.5s42 53.167 42 94.5c0 32 -10.333 58.167 -31 78.5
s-54.334 41.833 -101.001 64.5l-61 29c-106 49.333 -159 118.666 -159 207.999c0 59.333 21.667 107.333 65 144s100.333 55 171 55c58.667 0 119 -7.66699 181 -23v-215h-2l-113 202c-6 11.333 -13.333 17.333 -22 18c-8 0.666992 -19.667 1 -35 1
c-40.667 0 -73.334 -11.333 -98.001 -34s-37 -53.334 -37 -92.001c0 -30.667 9.5 -55.834 28.5 -75.501s46.833 -38.167 83.5 -55.5l74 -35c57.333 -27.333 100.333 -55.333 129 -84s43 -66.667 43 -114c0 -62.667 -23.5 -114.334 -70.5 -155.001s-109.167 -61 -186.5 -61z
" />
    <glyph glyph-name="scommaaccent" unicode="&#x219;" horiz-adv-x="434" 
d="M166 -252l-1 2.00098c34.667 22 53 49.667 55 83c0 6.66699 -3 10 -9 10c-14 0 -25.5 5.5 -34.5 16.5s-13.5 24.5 -13.5 40.5s5.5 29.667 16.5 41s24.833 17 41.5 17c18 0 32.667 -6.33301 44 -19s17 -29.667 17 -51c0 -31.333 -11.167 -60.333 -33.5 -87
s-49.833 -44.334 -82.5 -53.001zM405 150.001c0 -50 -19.168 -88.833 -57.501 -116.5s-87.166 -41.5 -146.499 -41.5s-116 10.333 -170 31l48 146h2l67 -146c3.33301 -6.66699 9.33301 -10.667 18 -12c11.333 -2 22.666 -3 33.999 -3c30.667 0 54.667 8 72 24s26 36 26 60
c0 22 -7.16699 39.167 -21.5 51.5s-38.5 26.166 -72.5 41.499l-64 29c-64 29.333 -96 75 -96 137c0 44.667 17.5 80.334 52.5 107.001s78.833 40 131.5 40c56 0 110 -8.33301 162 -25l-46 -136h-2l-70 130c-5.33301 10 -15.666 15 -30.999 15h-12
c-24.667 0 -45.167 -7 -61.5 -21s-24.5 -33.667 -24.5 -59c0 -21.333 7 -38.5 21 -51.5s35 -25.5 63 -37.5l66 -28c36 -15.333 63.667 -33 83 -53s29 -47.333 29 -82z" />
    <glyph glyph-name="uni021A" unicode="&#x21a;" horiz-adv-x="617" 
d="M251 -252l-1 2.00098c34.667 22 53 49.667 55 83c0 6.66699 -3 10 -9 10c-14 0 -25.5 5.5 -34.5 16.5s-13.5 24.5 -13.5 40.5s5.5 29.667 16.5 41s24.833 17 41.5 17c18 0 32.667 -6.33301 44 -19s17 -29.667 17 -51c0 -31.333 -11.167 -60.333 -33.5 -87
s-49.833 -44.334 -82.5 -53.001zM378 81.001c0 -9.33301 3.66699 -16.666 11 -21.999l84 -57v-2h-329v2l83 57c8 5.33301 12 12.666 12 21.999v603h-88c-8 0 -13.5 -1 -16.5 -3s-6.16699 -7 -9.5 -15l-104 -210h-2v247h578v-247h-2l-103 210c-3.33301 8 -6.5 13 -9.5 15
s-8.5 3 -16.5 3h-88v-603z" />
    <glyph glyph-name="uni021B" unicode="&#x21b;" horiz-adv-x="322" 
d="M127 -245l-1 2.00098c34.667 22 53 49.667 55 83c0 6.66699 -3 10 -9 10c-14 0 -25.5 5.5 -34.5 16.5s-13.5 24.5 -13.5 40.5s5.5 29.667 16.5 41s24.833 17 41.5 17c18 0 32.667 -6.33301 44 -19s17 -29.667 17 -51c0 -31.333 -11.167 -60.333 -33.5 -87
s-49.833 -44.334 -82.5 -53.001zM194 472.001v-345c0 -22.667 4.83301 -40.167 14.5 -52.5s23.167 -18.5 40.5 -18.5c15.333 0 29.166 4.66699 41.499 14s21.5 21 27.5 35l2 -1c-5.33301 -32 -19.166 -58.667 -41.499 -80s-53.5 -32 -93.5 -32c-78 0 -117 41.333 -117 124
v356h-63v18h51c10.667 0 19.667 4.33301 27 13l109 152h2v-165h133v-18h-133z" />
    <glyph glyph-name="dotlessj" unicode="&#x237;" horiz-adv-x="272" 
d="M-5 -219c-12.667 0 -22.333 0.667969 -29 2.00098v2c39.333 5.33301 68.833 24.166 88.5 56.499s29.5 81.5 29.5 147.5v426c0 9.33301 -3.33301 17 -10 23l-59 50v2h195v-462c0 -74.667 -18.333 -134.5 -55 -179.5s-90 -67.5 -160 -67.5z" />
    <glyph glyph-name="circumflex" unicode="&#x2c6;" horiz-adv-x="404" 
d="M354 538l-1 -2l-151 72l-151 -72l-1 2l151 173h2z" />
    <glyph glyph-name="caron" unicode="&#x2c7;" horiz-adv-x="404" 
d="M202 639l151 72l1 -1l-151 -174h-2l-151 174l1 1z" />
    </font>
</defs>
</svg>
